<?xml version="1.0" encoding="utf-8" standalone="no"?>
<!DOCTYPE svg PUBLIC "-//W3C//DTD SVG 1.1//EN"
  "http://www.w3.org/Graphics/SVG/1.1/DTD/svg11.dtd">
<svg xmlns:xlink="http://www.w3.org/1999/xlink" width="1152pt" height="576pt" viewBox="0 0 1152 576" xmlns="http://www.w3.org/2000/svg" version="1.1">
 <metadata>
  <rdf:RDF xmlns:dc="http://purl.org/dc/elements/1.1/" xmlns:cc="http://creativecommons.org/ns#" xmlns:rdf="http://www.w3.org/1999/02/22-rdf-syntax-ns#">
   <cc:Work>
    <dc:type rdf:resource="http://purl.org/dc/dcmitype/StillImage"/>
    <dc:date>2023-10-14T18:31:31.564260</dc:date>
    <dc:format>image/svg+xml</dc:format>
    <dc:creator>
     <cc:Agent>
      <dc:title>Matplotlib v3.7.2, https://matplotlib.org/</dc:title>
     </cc:Agent>
    </dc:creator>
   </cc:Work>
  </rdf:RDF>
 </metadata>
 <defs>
  <style type="text/css">*{stroke-linejoin: round; stroke-linecap: butt}</style>
 </defs>
 <g id="figure_1">
  <g id="patch_1">
   <path d="M 0 576 
L 1152 576 
L 1152 0 
L 0 0 
z
" style="fill: #ffffff"/>
  </g>
  <g id="axes_1">
   <g id="patch_2">
    <path d="M 51.945625 527.10125 
L 1128.475 527.10125 
L 1128.475 35.03625 
L 51.945625 35.03625 
z
" style="fill: #ffffff"/>
   </g>
   <g id="PolyCollection_1">
    <defs>
     <path id="mfce66a03a3" d="M 51.945625 -89.960308 
L 51.945625 -127.999131 
L 56.251742 -127.321623 
L 60.55786 -128.765641 
L 64.863977 -144.616987 
L 69.170095 -137.772353 
L 73.476212 -130.04105 
L 77.78233 -129.508246 
L 82.088447 -133.026176 
L 86.394565 -132.288719 
L 90.700682 -134.922514 
L 95.0068 -134.373733 
L 99.312917 -139.655913 
L 103.619035 -130.129744 
L 107.925152 -131.781973 
L 112.23127 -140.878062 
L 116.537387 -136.570125 
L 120.843505 -130.632818 
L 125.149622 -132.963892 
L 129.45574 -128.754556 
L 133.761857 -127.421 
L 138.067975 -133.656356 
L 142.374092 -132.497877 
L 146.68021 -133.647399 
L 150.986327 -133.429578 
L 155.292445 -126.198166 
L 159.598562 -122.575255 
L 163.90468 -123.813685 
L 168.210797 -129.065016 
L 172.516915 -135.662531 
L 176.823032 -134.217285 
L 181.12915 -130.2881 
L 185.435267 -127.289548 
L 189.741385 -127.281728 
L 194.047502 -131.232719 
L 198.35362 -114.949551 
L 202.659737 -116.610332 
L 206.965855 -123.013708 
L 211.271972 -123.255701 
L 215.57809 -130.473251 
L 219.884207 -138.356976 
L 224.190325 -136.774548 
L 228.496442 -133.677307 
L 232.80256 -132.454163 
L 237.108677 -131.455357 
L 241.414795 -127.57937 
L 245.720912 -130.690254 
L 250.02703 -134.485052 
L 254.333147 -137.538891 
L 258.639265 -130.137794 
L 262.945382 -126.473608 
L 267.2515 -127.539161 
L 271.557617 -131.553735 
L 275.863735 -132.688489 
L 280.169852 -122.260564 
L 284.47597 -127.889325 
L 288.782087 -135.173403 
L 293.088205 -130.066032 
L 297.394322 -130.025442 
L 301.70044 -127.359503 
L 306.006557 -124.140891 
L 310.312675 -130.498135 
L 314.618792 -133.884208 
L 318.92491 -129.942942 
L 323.231027 -134.663537 
L 327.537145 -139.519222 
L 331.843262 -136.419082 
L 336.14938 -129.210472 
L 340.455497 -123.276889 
L 344.761615 -124.828085 
L 349.067732 -131.706175 
L 353.37385 -137.118443 
L 357.679968 -137.369869 
L 361.986085 -136.869588 
L 366.292202 -138.217135 
L 370.59832 -139.186408 
L 374.904437 -132.934964 
L 379.210555 -139.279523 
L 383.516672 -140.969364 
L 387.82279 -147.252542 
L 392.128907 -144.8044 
L 396.435025 -138.573271 
L 400.741142 -136.834824 
L 405.04726 -134.024705 
L 409.353377 -136.755313 
L 413.659495 -139.221084 
L 417.965613 -141.79757 
L 422.27173 -140.394666 
L 426.577847 -137.093491 
L 430.883965 -139.059199 
L 435.190082 -136.56001 
L 439.4962 -143.545155 
L 443.802317 -144.48668 
L 448.108435 -151.871695 
L 452.414553 -151.89582 
L 456.72067 -142.516751 
L 461.026787 -143.049154 
L 465.332905 -150.730925 
L 469.639022 -149.497257 
L 473.94514 -139.702865 
L 478.251258 -137.925702 
L 482.557375 -141.774391 
L 486.863492 -151.26421 
L 491.16961 -155.56503 
L 495.475727 -148.594493 
L 499.781845 -146.927869 
L 504.087962 -141.315537 
L 508.39408 -139.055071 
L 512.700198 -140.806824 
L 517.006315 -141.008219 
L 521.312432 -143.428105 
L 525.61855 -150.588969 
L 529.924667 -154.000175 
L 534.230785 -143.601903 
L 538.536902 -135.154057 
L 542.84302 -132.294395 
L 547.149137 -135.347518 
L 551.455255 -140.01708 
L 555.761372 -143.551315 
L 560.06749 -145.037127 
L 564.373607 -142.051515 
L 568.679725 -136.547624 
L 572.985843 -137.264436 
L 577.29196 -139.422683 
L 581.598077 -147.700164 
L 585.904195 -145.144707 
L 590.210312 -135.700313 
L 594.51643 -133.654943 
L 598.822547 -139.82523 
L 603.128665 -143.36209 
L 607.434783 -149.078242 
L 611.7409 -157.479562 
L 616.047017 -153.676031 
L 620.353135 -149.40876 
L 624.659252 -143.638344 
L 628.96537 -154.992446 
L 633.271488 -157.58812 
L 637.577605 -156.702716 
L 641.883722 -154.385937 
L 646.18984 -155.463426 
L 650.495957 -163.448381 
L 654.802075 -165.112618 
L 659.108192 -162.175051 
L 663.41431 -151.141814 
L 667.720428 -157.284712 
L 672.026545 -157.066334 
L 676.332662 -154.179512 
L 680.63878 -168.229159 
L 684.944897 -173.213065 
L 689.251015 -171.096845 
L 693.557133 -171.173099 
L 697.86325 -170.683073 
L 702.169367 -170.606206 
L 706.475485 -171.142782 
L 710.781602 -180.377922 
L 715.08772 -179.025997 
L 719.393837 -174.227337 
L 723.699955 -175.024695 
L 728.006073 -178.536071 
L 732.31219 -183.426743 
L 736.618307 -181.68484 
L 740.924425 -183.025267 
L 745.230542 -182.763427 
L 749.53666 -182.543854 
L 753.842778 -178.47521 
L 758.148895 -182.823823 
L 758.148895 -164.079892 
L 758.148895 -164.079892 
L 753.842778 -165.472029 
L 749.53666 -164.621764 
L 745.230542 -156.720239 
L 740.924425 -172.927175 
L 736.618307 -164.594816 
L 732.31219 -151.511327 
L 728.006073 -148.998535 
L 723.699955 -157.349371 
L 719.393837 -153.382732 
L 715.08772 -146.701561 
L 710.781602 -145.712627 
L 706.475485 -137.662317 
L 702.169367 -139.968228 
L 697.86325 -139.823459 
L 693.557133 -143.222326 
L 689.251015 -139.078599 
L 684.944897 -127.087315 
L 680.63878 -133.131239 
L 676.332662 -132.884499 
L 672.026545 -128.772226 
L 667.720428 -118.52161 
L 663.41431 -117.168505 
L 659.108192 -126.318421 
L 654.802075 -132.761382 
L 650.495957 -129.802171 
L 646.18984 -131.031305 
L 641.883722 -127.274611 
L 637.577605 -121.472991 
L 633.271488 -111.218316 
L 628.96537 -115.575293 
L 624.659252 -108.332913 
L 620.353135 -115.71425 
L 616.047017 -129.018911 
L 611.7409 -132.020811 
L 607.434783 -127.315286 
L 603.128665 -124.403454 
L 598.822547 -122.151086 
L 594.51643 -118.182674 
L 590.210312 -116.014126 
L 585.904195 -114.983812 
L 581.598077 -112.839175 
L 577.29196 -113.469124 
L 572.985843 -116.317928 
L 568.679725 -114.365628 
L 564.373607 -116.485082 
L 560.06749 -116.503369 
L 555.761372 -117.067592 
L 551.455255 -113.410632 
L 547.149137 -112.385238 
L 542.84302 -118.072016 
L 538.536902 -123.507309 
L 534.230785 -128.640798 
L 529.924667 -121.925657 
L 525.61855 -121.20607 
L 521.312432 -118.202572 
L 517.006315 -130.231452 
L 512.700198 -128.308859 
L 508.39408 -123.368404 
L 504.087962 -122.510349 
L 499.781845 -117.814732 
L 495.475727 -121.595664 
L 491.16961 -126.577642 
L 486.863492 -118.386193 
L 482.557375 -110.244179 
L 478.251258 -114.921386 
L 473.94514 -120.580808 
L 469.639022 -116.732405 
L 465.332905 -111.455839 
L 461.026787 -113.790912 
L 456.72067 -115.120128 
L 452.414553 -119.25053 
L 448.108435 -124.313878 
L 443.802317 -111.347215 
L 439.4962 -104.270364 
L 435.190082 -108.184339 
L 430.883965 -112.394338 
L 426.577847 -113.819871 
L 422.27173 -111.043376 
L 417.965613 -105.903131 
L 413.659495 -110.416132 
L 409.353377 -110.52219 
L 405.04726 -105.790906 
L 400.741142 -96.655938 
L 396.435025 -104.508743 
L 392.128907 -110.077466 
L 387.82279 -104.603281 
L 383.516672 -100.610117 
L 379.210555 -106.950938 
L 374.904437 -102.403507 
L 370.59832 -106.155873 
L 366.292202 -92.06463 
L 361.986085 -94.833243 
L 357.679968 -110.133133 
L 353.37385 -105.594251 
L 349.067732 -99.457887 
L 344.761615 -102.937322 
L 340.455497 -103.304033 
L 336.14938 -111.239009 
L 331.843262 -105.91235 
L 327.537145 -98.728147 
L 323.231027 -96.501032 
L 318.92491 -102.402856 
L 314.618792 -106.605799 
L 310.312675 -104.072839 
L 306.006557 -104.657755 
L 301.70044 -105.009284 
L 297.394322 -96.202239 
L 293.088205 -94.85693 
L 288.782087 -95.329801 
L 284.47597 -97.09 
L 280.169852 -99.458532 
L 275.863735 -100.26973 
L 271.557617 -99.578425 
L 267.2515 -107.687756 
L 262.945382 -104.813714 
L 258.639265 -99.299957 
L 254.333147 -98.856582 
L 250.02703 -97.320888 
L 245.720912 -105.539114 
L 241.414795 -99.325027 
L 237.108677 -91.685704 
L 232.80256 -101.387102 
L 228.496442 -92.710849 
L 224.190325 -98.272731 
L 219.884207 -89.13718 
L 215.57809 -90.068975 
L 211.271972 -88.183985 
L 206.965855 -89.72599 
L 202.659737 -82.822073 
L 198.35362 -79.962327 
L 194.047502 -89.736853 
L 189.741385 -93.072227 
L 185.435267 -99.063977 
L 181.12915 -104.213591 
L 176.823032 -100.498219 
L 172.516915 -104.576439 
L 168.210797 -108.822063 
L 163.90468 -107.172189 
L 159.598562 -101.570157 
L 155.292445 -106.070181 
L 150.986327 -112.309044 
L 146.68021 -111.878105 
L 142.374092 -104.033095 
L 138.067975 -98.289285 
L 133.761857 -93.9208 
L 129.45574 -98.377818 
L 125.149622 -105.001024 
L 120.843505 -111.126537 
L 116.537387 -104.535981 
L 112.23127 -101.730512 
L 107.925152 -97.620508 
L 103.619035 -91.649598 
L 99.312917 -109.883701 
L 95.0068 -100.932182 
L 90.700682 -109.008377 
L 86.394565 -103.473053 
L 82.088447 -106.449847 
L 77.78233 -108.006041 
L 73.476212 -100.461659 
L 69.170095 -105.761369 
L 64.863977 -102.469742 
L 60.55786 -98.656321 
L 56.251742 -97.985387 
L 51.945625 -89.960308 
z
" style="stroke: #000000; stroke-opacity: 0.1"/>
    </defs>
    <g clip-path="url(#pb19fafa444)">
     <use xlink:href="#mfce66a03a3" x="0" y="576" style="fill-opacity: 0.1; stroke: #000000; stroke-opacity: 0.1"/>
    </g>
   </g>
   <g id="PolyCollection_2">
    <defs>
     <path id="mcd25f25138" d="M 762.455013 -165.32463 
L 762.455013 -187.971105 
L 766.76113 -184.978638 
L 771.067247 -189.003685 
L 775.373365 -192.678863 
L 779.679482 -202.006321 
L 783.9856 -203.010758 
L 788.291718 -204.037169 
L 792.597835 -209.77816 
L 796.903952 -206.339731 
L 801.21007 -210.018978 
L 805.516187 -207.838437 
L 809.822305 -214.414639 
L 814.128422 -217.306566 
L 818.43454 -220.782988 
L 822.740658 -213.421371 
L 827.046775 -218.646954 
L 831.352892 -223.065226 
L 835.65901 -218.04382 
L 839.965127 -222.444555 
L 844.271245 -230.907408 
L 848.577363 -226.758877 
L 852.88348 -235.710739 
L 857.189598 -234.506789 
L 861.495715 -233.42135 
L 865.801832 -230.120863 
L 870.10795 -229.595334 
L 874.414067 -234.357932 
L 878.720185 -240.150066 
L 883.026303 -241.905166 
L 887.33242 -242.709892 
L 891.638537 -246.782078 
L 895.944655 -247.60235 
L 900.250772 -244.020223 
L 904.55689 -238.028521 
L 908.863008 -239.180349 
L 913.169125 -248.529531 
L 917.475243 -247.786189 
L 921.78136 -249.7842 
L 926.087477 -251.830133 
L 930.393595 -244.475216 
L 934.699712 -250.69583 
L 939.00583 -254.046771 
L 943.311948 -251.918093 
L 947.618065 -258.685619 
L 951.924182 -266.741552 
L 956.2303 -259.110143 
L 960.536417 -252.889724 
L 964.842535 -249.716371 
L 969.148653 -257.285642 
L 973.45477 -254.358408 
L 977.760888 -239.863436 
L 982.067005 -251.848199 
L 986.373122 -260.47758 
L 990.67924 -257.631041 
L 994.985357 -258.860815 
L 999.291475 -264.785286 
L 1003.597593 -260.267079 
L 1007.90371 -255.204139 
L 1012.209828 -255.729531 
L 1016.515945 -265.648246 
L 1020.822062 -262.659376 
L 1025.12818 -259.305461 
L 1029.434297 -259.250625 
L 1033.740415 -259.90094 
L 1038.046533 -267.774738 
L 1042.35265 -266.14014 
L 1046.658767 -270.256075 
L 1050.964885 -274.662551 
L 1055.271002 -268.890462 
L 1059.57712 -262.273572 
L 1063.883238 -262.64774 
L 1068.189355 -263.504868 
L 1072.495473 -259.54965 
L 1076.80159 -255.160069 
L 1081.107707 -261.763529 
L 1085.413825 -257.271604 
L 1089.719942 -258.071618 
L 1094.02606 -263.65268 
L 1098.332178 -264.673446 
L 1102.638295 -261.293571 
L 1106.944413 -259.061962 
L 1111.25053 -252.904177 
L 1115.556647 -250.00426 
L 1119.862765 -254.956093 
L 1124.168883 -263.559474 
L 1128.475 -261.832718 
L 1128.475 -220.611553 
L 1128.475 -220.611553 
L 1124.168883 -218.298453 
L 1119.862765 -219.755688 
L 1115.556647 -212.965781 
L 1111.25053 -207.170997 
L 1106.944413 -209.841946 
L 1102.638295 -219.571029 
L 1098.332178 -215.934938 
L 1094.02606 -209.035248 
L 1089.719942 -214.855374 
L 1085.413825 -214.703254 
L 1081.107707 -216.071416 
L 1076.80159 -220.002176 
L 1072.495473 -215.756098 
L 1068.189355 -207.1576 
L 1063.883238 -210.431827 
L 1059.57712 -218.495212 
L 1055.271002 -220.487961 
L 1050.964885 -219.111747 
L 1046.658767 -224.51337 
L 1042.35265 -221.42202 
L 1038.046533 -223.138295 
L 1033.740415 -218.391252 
L 1029.434297 -222.327539 
L 1025.12818 -221.066676 
L 1020.822062 -212.332699 
L 1016.515945 -214.290822 
L 1012.209828 -220.467728 
L 1007.90371 -215.264346 
L 1003.597593 -218.591929 
L 999.291475 -218.764875 
L 994.985357 -218.715296 
L 990.67924 -220.174983 
L 986.373122 -215.699603 
L 982.067005 -214.011627 
L 977.760888 -214.443475 
L 973.45477 -217.775161 
L 969.148653 -214.014837 
L 964.842535 -214.363832 
L 960.536417 -216.981265 
L 956.2303 -216.983967 
L 951.924182 -220.858647 
L 947.618065 -217.509983 
L 943.311948 -219.701481 
L 939.00583 -221.451698 
L 934.699712 -215.448059 
L 930.393595 -209.26045 
L 926.087477 -213.054135 
L 921.78136 -210.776771 
L 917.475243 -224.97771 
L 913.169125 -218.757845 
L 908.863008 -220.428839 
L 904.55689 -220.316683 
L 900.250772 -218.258904 
L 895.944655 -209.946472 
L 891.638537 -214.53313 
L 887.33242 -213.250031 
L 883.026303 -204.83555 
L 878.720185 -212.199621 
L 874.414067 -205.475024 
L 870.10795 -195.077815 
L 865.801832 -206.956549 
L 861.495715 -212.580399 
L 857.189598 -208.913805 
L 852.88348 -201.028834 
L 848.577363 -205.435333 
L 844.271245 -196.233455 
L 839.965127 -195.930147 
L 835.65901 -196.476929 
L 831.352892 -202.768341 
L 827.046775 -199.378696 
L 822.740658 -188.957475 
L 818.43454 -186.241616 
L 814.128422 -178.898159 
L 809.822305 -182.559633 
L 805.516187 -193.140778 
L 801.21007 -191.894813 
L 796.903952 -188.755757 
L 792.597835 -184.790948 
L 788.291718 -184.929372 
L 783.9856 -179.404623 
L 779.679482 -180.159241 
L 775.373365 -183.712766 
L 771.067247 -180.705492 
L 766.76113 -170.359901 
L 762.455013 -165.32463 
z
" style="stroke: #173c66; stroke-opacity: 0.1"/>
    </defs>
    <g clip-path="url(#pb19fafa444)">
     <use xlink:href="#mcd25f25138" x="0" y="576" style="fill: #173c66; fill-opacity: 0.1; stroke: #173c66; stroke-opacity: 0.1"/>
    </g>
   </g>
   <g id="PolyCollection_3">
    <defs>
     <path id="mc94b137673" d="M 762.455013 -161.698108 
L 762.455013 -187.040173 
L 766.76113 -193.297108 
L 771.067247 -190.505043 
L 775.373365 -187.484127 
L 779.679482 -193.527366 
L 783.9856 -188.967496 
L 788.291718 -204.696997 
L 792.597835 -198.520197 
L 796.903952 -199.174633 
L 801.21007 -210.812597 
L 805.516187 -211.466454 
L 809.822305 -205.817513 
L 814.128422 -210.884605 
L 818.43454 -223.853081 
L 822.740658 -226.897412 
L 827.046775 -224.66522 
L 831.352892 -225.157998 
L 835.65901 -228.16316 
L 839.965127 -229.821036 
L 844.271245 -232.847547 
L 848.577363 -226.749872 
L 852.88348 -231.243541 
L 857.189598 -233.078323 
L 861.495715 -239.208779 
L 865.801832 -239.835064 
L 870.10795 -250.466297 
L 874.414067 -251.594561 
L 878.720185 -252.970086 
L 883.026303 -254.63463 
L 887.33242 -244.740272 
L 891.638537 -245.365404 
L 895.944655 -250.214128 
L 900.250772 -267.431297 
L 904.55689 -265.905678 
L 908.863008 -259.438926 
L 913.169125 -261.2618 
L 917.475243 -269.001505 
L 921.78136 -270.065617 
L 926.087477 -272.478589 
L 930.393595 -272.915108 
L 934.699712 -279.742865 
L 939.00583 -270.455337 
L 943.311948 -278.969497 
L 947.618065 -281.020185 
L 951.924182 -285.102236 
L 956.2303 -277.534043 
L 960.536417 -281.878316 
L 964.842535 -285.438267 
L 969.148653 -282.138174 
L 973.45477 -290.311605 
L 977.760888 -292.85039 
L 982.067005 -293.34616 
L 986.373122 -297.560571 
L 990.67924 -305.424025 
L 994.985357 -308.52294 
L 999.291475 -314.972756 
L 1003.597593 -318.162064 
L 1007.90371 -311.0009 
L 1012.209828 -310.232662 
L 1016.515945 -308.072021 
L 1020.822062 -308.081293 
L 1025.12818 -315.592468 
L 1029.434297 -317.316126 
L 1033.740415 -320.496641 
L 1038.046533 -319.870835 
L 1042.35265 -319.2114 
L 1046.658767 -326.733519 
L 1050.964885 -327.591692 
L 1055.271002 -324.846301 
L 1059.57712 -329.311615 
L 1063.883238 -330.636757 
L 1068.189355 -329.367459 
L 1072.495473 -331.084952 
L 1076.80159 -333.601759 
L 1081.107707 -339.996631 
L 1085.413825 -337.250478 
L 1089.719942 -337.28762 
L 1094.02606 -339.775185 
L 1098.332178 -336.476961 
L 1102.638295 -335.244696 
L 1106.944413 -340.762273 
L 1111.25053 -350.435037 
L 1115.556647 -350.091344 
L 1119.862765 -352.6564 
L 1124.168883 -350.815667 
L 1128.475 -357.000481 
L 1128.475 -276.876034 
L 1128.475 -276.876034 
L 1124.168883 -272.697015 
L 1119.862765 -273.502465 
L 1115.556647 -282.152068 
L 1111.25053 -280.479234 
L 1106.944413 -271.01804 
L 1102.638295 -271.338072 
L 1098.332178 -273.766628 
L 1094.02606 -268.011691 
L 1089.719942 -271.541909 
L 1085.413825 -275.731968 
L 1081.107707 -264.587486 
L 1076.80159 -265.773828 
L 1072.495473 -265.720496 
L 1068.189355 -265.965207 
L 1063.883238 -267.962541 
L 1059.57712 -275.823222 
L 1055.271002 -268.417675 
L 1050.964885 -261.543631 
L 1046.658767 -257.312263 
L 1042.35265 -256.972396 
L 1038.046533 -262.018569 
L 1033.740415 -262.515405 
L 1029.434297 -255.12517 
L 1025.12818 -261.305038 
L 1020.822062 -259.673895 
L 1016.515945 -258.066292 
L 1012.209828 -258.853594 
L 1007.90371 -257.606175 
L 1003.597593 -250.696755 
L 999.291475 -245.659066 
L 994.985357 -244.230393 
L 990.67924 -259.838968 
L 986.373122 -258.491945 
L 982.067005 -254.142915 
L 977.760888 -242.105711 
L 973.45477 -248.179054 
L 969.148653 -250.849089 
L 964.842535 -242.300756 
L 960.536417 -238.724383 
L 956.2303 -247.648224 
L 951.924182 -245.024786 
L 947.618065 -241.725003 
L 943.311948 -233.265287 
L 939.00583 -231.614133 
L 934.699712 -242.924595 
L 930.393595 -244.986542 
L 926.087477 -238.410719 
L 921.78136 -236.176038 
L 917.475243 -225.551902 
L 913.169125 -236.439869 
L 908.863008 -235.193073 
L 904.55689 -236.409882 
L 900.250772 -227.306043 
L 895.944655 -224.744305 
L 891.638537 -222.657839 
L 887.33242 -213.74132 
L 883.026303 -218.468305 
L 878.720185 -217.505546 
L 874.414067 -224.57507 
L 870.10795 -226.095377 
L 865.801832 -216.978477 
L 861.495715 -205.867253 
L 857.189598 -212.010621 
L 852.88348 -206.431901 
L 848.577363 -199.131825 
L 844.271245 -203.122288 
L 839.965127 -203.236113 
L 835.65901 -205.850317 
L 831.352892 -199.256326 
L 827.046775 -190.191069 
L 822.740658 -193.963838 
L 818.43454 -191.293906 
L 814.128422 -192.275035 
L 809.822305 -197.84448 
L 805.516187 -193.401202 
L 801.21007 -192.439175 
L 796.903952 -179.77034 
L 792.597835 -177.672733 
L 788.291718 -185.001213 
L 783.9856 -181.420351 
L 779.679482 -176.624016 
L 775.373365 -180.867542 
L 771.067247 -182.802246 
L 766.76113 -165.700033 
L 762.455013 -161.698108 
z
" style="stroke: #f79420; stroke-opacity: 0.1"/>
    </defs>
    <g clip-path="url(#pb19fafa444)">
     <use xlink:href="#mc94b137673" x="0" y="576" style="fill: #f79420; fill-opacity: 0.1; stroke: #f79420; stroke-opacity: 0.1"/>
    </g>
   </g>
   <g id="PolyCollection_4">
    <defs>
     <path id="m2377fc7aaa" d="M 762.455013 -164.678352 
L 762.455013 -183.93326 
L 766.76113 -192.81171 
L 771.067247 -193.221497 
L 775.373365 -194.370851 
L 779.679482 -197.609621 
L 783.9856 -196.436398 
L 788.291718 -192.761001 
L 792.597835 -197.007991 
L 796.903952 -196.922997 
L 801.21007 -213.336661 
L 805.516187 -222.032491 
L 809.822305 -219.616749 
L 814.128422 -220.632976 
L 818.43454 -220.959972 
L 822.740658 -215.822246 
L 827.046775 -220.881416 
L 831.352892 -233.718464 
L 835.65901 -236.93489 
L 839.965127 -226.674332 
L 844.271245 -238.990142 
L 848.577363 -240.511939 
L 852.88348 -244.581561 
L 857.189598 -247.370761 
L 861.495715 -249.889536 
L 865.801832 -250.982672 
L 870.10795 -253.343695 
L 874.414067 -252.698019 
L 878.720185 -253.134096 
L 883.026303 -257.151183 
L 887.33242 -259.720938 
L 891.638537 -269.387625 
L 895.944655 -277.196588 
L 900.250772 -273.486801 
L 904.55689 -274.811497 
L 908.863008 -282.442818 
L 913.169125 -283.891326 
L 917.475243 -281.313108 
L 921.78136 -286.10429 
L 926.087477 -292.571427 
L 930.393595 -287.926479 
L 934.699712 -296.007493 
L 939.00583 -295.957915 
L 943.311948 -304.529833 
L 947.618065 -310.940871 
L 951.924182 -305.814116 
L 956.2303 -304.901597 
L 960.536417 -306.928854 
L 964.842535 -308.257913 
L 969.148653 -311.43819 
L 973.45477 -317.940314 
L 977.760888 -319.766393 
L 982.067005 -319.640961 
L 986.373122 -324.186679 
L 990.67924 -330.805542 
L 994.985357 -334.3871 
L 999.291475 -333.633911 
L 1003.597593 -336.778344 
L 1007.90371 -349.276382 
L 1012.209828 -345.612199 
L 1016.515945 -345.86094 
L 1020.822062 -351.711838 
L 1025.12818 -355.877965 
L 1029.434297 -360.383064 
L 1033.740415 -363.197234 
L 1038.046533 -361.581451 
L 1042.35265 -365.334629 
L 1046.658767 -378.009979 
L 1050.964885 -370.768873 
L 1055.271002 -377.490101 
L 1059.57712 -385.719555 
L 1063.883238 -397.26687 
L 1068.189355 -389.632932 
L 1072.495473 -387.279032 
L 1076.80159 -391.799932 
L 1081.107707 -403.123274 
L 1085.413825 -412.477658 
L 1089.719942 -413.997757 
L 1094.02606 -413.857144 
L 1098.332178 -422.284506 
L 1102.638295 -431.431 
L 1106.944413 -429.68166 
L 1111.25053 -431.822417 
L 1115.556647 -444.357421 
L 1119.862765 -443.186933 
L 1124.168883 -444.398512 
L 1128.475 -454.872398 
L 1128.475 -339.382003 
L 1128.475 -339.382003 
L 1124.168883 -339.350855 
L 1119.862765 -347.59883 
L 1115.556647 -347.859517 
L 1111.25053 -336.878614 
L 1106.944413 -333.881235 
L 1102.638295 -333.125657 
L 1098.332178 -325.202642 
L 1094.02606 -325.468331 
L 1089.719942 -325.810658 
L 1085.413825 -332.859503 
L 1081.107707 -328.608177 
L 1076.80159 -317.468565 
L 1072.495473 -320.997538 
L 1068.189355 -326.466268 
L 1063.883238 -322.663203 
L 1059.57712 -312.777017 
L 1055.271002 -309.792125 
L 1050.964885 -313.091525 
L 1046.658767 -308.07537 
L 1042.35265 -306.274699 
L 1038.046533 -302.010394 
L 1033.740415 -292.979383 
L 1029.434297 -286.489519 
L 1025.12818 -295.260151 
L 1020.822062 -295.492817 
L 1016.515945 -292.42365 
L 1012.209828 -284.556533 
L 1007.90371 -276.709394 
L 1003.597593 -279.478349 
L 999.291475 -280.405153 
L 994.985357 -284.816488 
L 990.67924 -272.189938 
L 986.373122 -270.324832 
L 982.067005 -270.858199 
L 977.760888 -263.481853 
L 973.45477 -261.258275 
L 969.148653 -264.736514 
L 964.842535 -268.911015 
L 960.536417 -266.124554 
L 956.2303 -257.743166 
L 951.924182 -254.825883 
L 947.618065 -246.087805 
L 943.311948 -250.551719 
L 939.00583 -255.137507 
L 934.699712 -251.166213 
L 930.393595 -241.638262 
L 926.087477 -247.680995 
L 921.78136 -246.393711 
L 917.475243 -241.289355 
L 913.169125 -237.036799 
L 908.863008 -241.519679 
L 904.55689 -232.928521 
L 900.250772 -231.363775 
L 895.944655 -240.1875 
L 891.638537 -231.642048 
L 887.33242 -224.055919 
L 883.026303 -218.987667 
L 878.720185 -218.052979 
L 874.414067 -214.117558 
L 870.10795 -209.663942 
L 865.801832 -224.754256 
L 861.495715 -221.009292 
L 857.189598 -213.697933 
L 852.88348 -207.033298 
L 848.577363 -208.89297 
L 844.271245 -197.290316 
L 839.965127 -200.798432 
L 835.65901 -194.620124 
L 831.352892 -181.84867 
L 827.046775 -189.304892 
L 822.740658 -203.507095 
L 818.43454 -203.302018 
L 814.128422 -189.605311 
L 809.822305 -190.52153 
L 805.516187 -193.567765 
L 801.21007 -181.4193 
L 796.903952 -174.667271 
L 792.597835 -170.691701 
L 788.291718 -183.84892 
L 783.9856 -177.582045 
L 779.679482 -176.720909 
L 775.373365 -179.750855 
L 771.067247 -188.668599 
L 766.76113 -172.07826 
L 762.455013 -164.678352 
z
" style="stroke: #e71d25; stroke-opacity: 0.1"/>
    </defs>
    <g clip-path="url(#pb19fafa444)">
     <use xlink:href="#m2377fc7aaa" x="0" y="576" style="fill: #e71d25; fill-opacity: 0.1; stroke: #e71d25; stroke-opacity: 0.1"/>
    </g>
   </g>
   <g id="PolyCollection_5">
    <defs>
     <path id="m5a3bc15c3a" d="M 762.455013 -170.86153 
L 762.455013 -187.924477 
L 766.76113 -189.442259 
L 771.067247 -192.282659 
L 775.373365 -197.479147 
L 779.679482 -198.656404 
L 783.9856 -194.983978 
L 788.291718 -198.088342 
L 792.597835 -207.364607 
L 796.903952 -207.832361 
L 801.21007 -203.334865 
L 805.516187 -207.635222 
L 809.822305 -210.730432 
L 814.128422 -221.083763 
L 818.43454 -219.352659 
L 822.740658 -217.529121 
L 827.046775 -224.109589 
L 831.352892 -226.810685 
L 835.65901 -230.84998 
L 839.965127 -236.092481 
L 844.271245 -239.392214 
L 848.577363 -239.060394 
L 852.88348 -242.116768 
L 857.189598 -245.013476 
L 861.495715 -247.820962 
L 865.801832 -251.691786 
L 870.10795 -262.992589 
L 874.414067 -262.872009 
L 878.720185 -261.852072 
L 883.026303 -267.541086 
L 887.33242 -267.919618 
L 891.638537 -268.398554 
L 895.944655 -277.028701 
L 900.250772 -284.650989 
L 904.55689 -286.563977 
L 908.863008 -284.789145 
L 913.169125 -290.551969 
L 917.475243 -302.581179 
L 921.78136 -306.099166 
L 926.087477 -303.682556 
L 930.393595 -306.615937 
L 934.699712 -314.807163 
L 939.00583 -318.899499 
L 943.311948 -319.967435 
L 947.618065 -317.387936 
L 951.924182 -325.413994 
L 956.2303 -336.989861 
L 960.536417 -335.196613 
L 964.842535 -339.363298 
L 969.148653 -349.789212 
L 973.45477 -353.502436 
L 977.760888 -355.992169 
L 982.067005 -360.383445 
L 986.373122 -364.647722 
L 990.67924 -361.649075 
L 994.985357 -369.664166 
L 999.291475 -382.292363 
L 1003.597593 -384.867143 
L 1007.90371 -393.079529 
L 1012.209828 -390.720736 
L 1016.515945 -383.039766 
L 1020.822062 -389.534507 
L 1025.12818 -405.069085 
L 1029.434297 -405.496311 
L 1033.740415 -411.164695 
L 1038.046533 -416.340796 
L 1042.35265 -424.725666 
L 1046.658767 -428.904594 
L 1050.964885 -428.191549 
L 1055.271002 -432.319758 
L 1059.57712 -440.566032 
L 1063.883238 -440.696491 
L 1068.189355 -443.7157 
L 1072.495473 -453.619378 
L 1076.80159 -458.382655 
L 1081.107707 -472.846493 
L 1085.413825 -471.512057 
L 1089.719942 -469.69838 
L 1094.02606 -474.284666 
L 1098.332178 -475.093731 
L 1102.638295 -482.577916 
L 1106.944413 -496.232448 
L 1111.25053 -500.849606 
L 1115.556647 -499.524769 
L 1119.862765 -509.33117 
L 1124.168883 -504.549365 
L 1128.475 -509.27899 
L 1128.475 -382.528524 
L 1128.475 -382.528524 
L 1124.168883 -395.016918 
L 1119.862765 -396.175062 
L 1115.556647 -378.436284 
L 1111.25053 -375.406031 
L 1106.944413 -375.238459 
L 1102.638295 -369.345052 
L 1098.332178 -367.100872 
L 1094.02606 -363.695962 
L 1089.719942 -365.395878 
L 1085.413825 -361.297296 
L 1081.107707 -361.57388 
L 1076.80159 -361.542797 
L 1072.495473 -356.39753 
L 1068.189355 -353.081006 
L 1063.883238 -346.342451 
L 1059.57712 -346.9462 
L 1055.271002 -344.908398 
L 1050.964885 -331.325484 
L 1046.658767 -334.52303 
L 1042.35265 -329.903508 
L 1038.046533 -325.597917 
L 1033.740415 -326.961422 
L 1029.434297 -318.878679 
L 1025.12818 -319.13014 
L 1020.822062 -325.858463 
L 1016.515945 -313.665165 
L 1012.209828 -297.457667 
L 1007.90371 -297.383755 
L 1003.597593 -309.598775 
L 999.291475 -316.576584 
L 994.985357 -295.702975 
L 990.67924 -287.972763 
L 986.373122 -285.267095 
L 982.067005 -292.309101 
L 977.760888 -287.782777 
L 973.45477 -280.526309 
L 969.148653 -276.168935 
L 964.842535 -277.003991 
L 960.536417 -276.730087 
L 956.2303 -272.36621 
L 951.924182 -267.389774 
L 947.618065 -265.237157 
L 943.311948 -259.846628 
L 939.00583 -256.363612 
L 934.699712 -255.632223 
L 930.393595 -264.228186 
L 926.087477 -254.569691 
L 921.78136 -251.340321 
L 917.475243 -244.792244 
L 913.169125 -248.389074 
L 908.863008 -243.153259 
L 904.55689 -238.804193 
L 900.250772 -238.972102 
L 895.944655 -238.126854 
L 891.638537 -232.058126 
L 887.33242 -241.505518 
L 883.026303 -240.79749 
L 878.720185 -229.168941 
L 874.414067 -222.555938 
L 870.10795 -216.062532 
L 865.801832 -216.309168 
L 861.495715 -219.026038 
L 857.189598 -203.685699 
L 852.88348 -202.243658 
L 848.577363 -194.600283 
L 844.271245 -195.866732 
L 839.965127 -189.828239 
L 835.65901 -191.411306 
L 831.352892 -192.278524 
L 827.046775 -199.143348 
L 822.740658 -203.298628 
L 818.43454 -201.748768 
L 814.128422 -192.674263 
L 809.822305 -186.589606 
L 805.516187 -187.191186 
L 801.21007 -184.157667 
L 796.903952 -182.52464 
L 792.597835 -180.566021 
L 788.291718 -188.919269 
L 783.9856 -177.47351 
L 779.679482 -178.617515 
L 775.373365 -180.587631 
L 771.067247 -184.861248 
L 766.76113 -185.812229 
L 762.455013 -170.86153 
z
" style="stroke: #951b1e; stroke-opacity: 0.1"/>
    </defs>
    <g clip-path="url(#pb19fafa444)">
     <use xlink:href="#m5a3bc15c3a" x="0" y="576" style="fill: #951b1e; fill-opacity: 0.1; stroke: #951b1e; stroke-opacity: 0.1"/>
    </g>
   </g>
   <g id="matplotlib.axis_1">
    <g id="xtick_1">
     <g id="line2d_1">
      <path d="M 51.945625 527.10125 
L 51.945625 35.03625 
" clip-path="url(#pb19fafa444)" style="fill: none; stroke: #b0b0b0; stroke-width: 0.8; stroke-linecap: square"/>
     </g>
     <g id="line2d_2">
      <defs>
       <path id="m27dd4d2ab1" d="M 0 0 
L 0 3.5 
" style="stroke: #000000; stroke-width: 0.8"/>
      </defs>
      <g>
       <use xlink:href="#m27dd4d2ab1" x="51.945625" y="527.10125" style="stroke: #000000; stroke-width: 0.8"/>
      </g>
     </g>
     <g id="text_1">
      <!-- 1850 -->
      <g transform="translate(39.220625 541.699687) scale(0.1 -0.1)">
       <defs>
        <path id="DejaVuSans-31" d="M 794 531 
L 1825 531 
L 1825 4091 
L 703 3866 
L 703 4441 
L 1819 4666 
L 2450 4666 
L 2450 531 
L 3481 531 
L 3481 0 
L 794 0 
L 794 531 
z
" transform="scale(0.015625)"/>
        <path id="DejaVuSans-38" d="M 2034 2216 
Q 1584 2216 1326 1975 
Q 1069 1734 1069 1313 
Q 1069 891 1326 650 
Q 1584 409 2034 409 
Q 2484 409 2743 651 
Q 3003 894 3003 1313 
Q 3003 1734 2745 1975 
Q 2488 2216 2034 2216 
z
M 1403 2484 
Q 997 2584 770 2862 
Q 544 3141 544 3541 
Q 544 4100 942 4425 
Q 1341 4750 2034 4750 
Q 2731 4750 3128 4425 
Q 3525 4100 3525 3541 
Q 3525 3141 3298 2862 
Q 3072 2584 2669 2484 
Q 3125 2378 3379 2068 
Q 3634 1759 3634 1313 
Q 3634 634 3220 271 
Q 2806 -91 2034 -91 
Q 1263 -91 848 271 
Q 434 634 434 1313 
Q 434 1759 690 2068 
Q 947 2378 1403 2484 
z
M 1172 3481 
Q 1172 3119 1398 2916 
Q 1625 2713 2034 2713 
Q 2441 2713 2670 2916 
Q 2900 3119 2900 3481 
Q 2900 3844 2670 4047 
Q 2441 4250 2034 4250 
Q 1625 4250 1398 4047 
Q 1172 3844 1172 3481 
z
" transform="scale(0.015625)"/>
        <path id="DejaVuSans-35" d="M 691 4666 
L 3169 4666 
L 3169 4134 
L 1269 4134 
L 1269 2991 
Q 1406 3038 1543 3061 
Q 1681 3084 1819 3084 
Q 2600 3084 3056 2656 
Q 3513 2228 3513 1497 
Q 3513 744 3044 326 
Q 2575 -91 1722 -91 
Q 1428 -91 1123 -41 
Q 819 9 494 109 
L 494 744 
Q 775 591 1075 516 
Q 1375 441 1709 441 
Q 2250 441 2565 725 
Q 2881 1009 2881 1497 
Q 2881 1984 2565 2268 
Q 2250 2553 1709 2553 
Q 1456 2553 1204 2497 
Q 953 2441 691 2322 
L 691 4666 
z
" transform="scale(0.015625)"/>
        <path id="DejaVuSans-30" d="M 2034 4250 
Q 1547 4250 1301 3770 
Q 1056 3291 1056 2328 
Q 1056 1369 1301 889 
Q 1547 409 2034 409 
Q 2525 409 2770 889 
Q 3016 1369 3016 2328 
Q 3016 3291 2770 3770 
Q 2525 4250 2034 4250 
z
M 2034 4750 
Q 2819 4750 3233 4129 
Q 3647 3509 3647 2328 
Q 3647 1150 3233 529 
Q 2819 -91 2034 -91 
Q 1250 -91 836 529 
Q 422 1150 422 2328 
Q 422 3509 836 4129 
Q 1250 4750 2034 4750 
z
" transform="scale(0.015625)"/>
       </defs>
       <use xlink:href="#DejaVuSans-31"/>
       <use xlink:href="#DejaVuSans-38" x="63.623047"/>
       <use xlink:href="#DejaVuSans-35" x="127.246094"/>
       <use xlink:href="#DejaVuSans-30" x="190.869141"/>
      </g>
     </g>
    </g>
    <g id="xtick_2">
     <g id="line2d_3">
      <path d="M 267.2515 527.10125 
L 267.2515 35.03625 
" clip-path="url(#pb19fafa444)" style="fill: none; stroke: #b0b0b0; stroke-width: 0.8; stroke-linecap: square"/>
     </g>
     <g id="line2d_4">
      <g>
       <use xlink:href="#m27dd4d2ab1" x="267.2515" y="527.10125" style="stroke: #000000; stroke-width: 0.8"/>
      </g>
     </g>
     <g id="text_2">
      <!-- 1900 -->
      <g transform="translate(254.5265 541.699687) scale(0.1 -0.1)">
       <defs>
        <path id="DejaVuSans-39" d="M 703 97 
L 703 672 
Q 941 559 1184 500 
Q 1428 441 1663 441 
Q 2288 441 2617 861 
Q 2947 1281 2994 2138 
Q 2813 1869 2534 1725 
Q 2256 1581 1919 1581 
Q 1219 1581 811 2004 
Q 403 2428 403 3163 
Q 403 3881 828 4315 
Q 1253 4750 1959 4750 
Q 2769 4750 3195 4129 
Q 3622 3509 3622 2328 
Q 3622 1225 3098 567 
Q 2575 -91 1691 -91 
Q 1453 -91 1209 -44 
Q 966 3 703 97 
z
M 1959 2075 
Q 2384 2075 2632 2365 
Q 2881 2656 2881 3163 
Q 2881 3666 2632 3958 
Q 2384 4250 1959 4250 
Q 1534 4250 1286 3958 
Q 1038 3666 1038 3163 
Q 1038 2656 1286 2365 
Q 1534 2075 1959 2075 
z
" transform="scale(0.015625)"/>
       </defs>
       <use xlink:href="#DejaVuSans-31"/>
       <use xlink:href="#DejaVuSans-39" x="63.623047"/>
       <use xlink:href="#DejaVuSans-30" x="127.246094"/>
       <use xlink:href="#DejaVuSans-30" x="190.869141"/>
      </g>
     </g>
    </g>
    <g id="xtick_3">
     <g id="line2d_5">
      <path d="M 482.557375 527.10125 
L 482.557375 35.03625 
" clip-path="url(#pb19fafa444)" style="fill: none; stroke: #b0b0b0; stroke-width: 0.8; stroke-linecap: square"/>
     </g>
     <g id="line2d_6">
      <g>
       <use xlink:href="#m27dd4d2ab1" x="482.557375" y="527.10125" style="stroke: #000000; stroke-width: 0.8"/>
      </g>
     </g>
     <g id="text_3">
      <!-- 1950 -->
      <g transform="translate(469.832375 541.699687) scale(0.1 -0.1)">
       <use xlink:href="#DejaVuSans-31"/>
       <use xlink:href="#DejaVuSans-39" x="63.623047"/>
       <use xlink:href="#DejaVuSans-35" x="127.246094"/>
       <use xlink:href="#DejaVuSans-30" x="190.869141"/>
      </g>
     </g>
    </g>
    <g id="xtick_4">
     <g id="line2d_7">
      <path d="M 697.86325 527.10125 
L 697.86325 35.03625 
" clip-path="url(#pb19fafa444)" style="fill: none; stroke: #b0b0b0; stroke-width: 0.8; stroke-linecap: square"/>
     </g>
     <g id="line2d_8">
      <g>
       <use xlink:href="#m27dd4d2ab1" x="697.86325" y="527.10125" style="stroke: #000000; stroke-width: 0.8"/>
      </g>
     </g>
     <g id="text_4">
      <!-- 2000 -->
      <g transform="translate(685.13825 541.699687) scale(0.1 -0.1)">
       <defs>
        <path id="DejaVuSans-32" d="M 1228 531 
L 3431 531 
L 3431 0 
L 469 0 
L 469 531 
Q 828 903 1448 1529 
Q 2069 2156 2228 2338 
Q 2531 2678 2651 2914 
Q 2772 3150 2772 3378 
Q 2772 3750 2511 3984 
Q 2250 4219 1831 4219 
Q 1534 4219 1204 4116 
Q 875 4013 500 3803 
L 500 4441 
Q 881 4594 1212 4672 
Q 1544 4750 1819 4750 
Q 2544 4750 2975 4387 
Q 3406 4025 3406 3419 
Q 3406 3131 3298 2873 
Q 3191 2616 2906 2266 
Q 2828 2175 2409 1742 
Q 1991 1309 1228 531 
z
" transform="scale(0.015625)"/>
       </defs>
       <use xlink:href="#DejaVuSans-32"/>
       <use xlink:href="#DejaVuSans-30" x="63.623047"/>
       <use xlink:href="#DejaVuSans-30" x="127.246094"/>
       <use xlink:href="#DejaVuSans-30" x="190.869141"/>
      </g>
     </g>
    </g>
    <g id="xtick_5">
     <g id="line2d_9">
      <path d="M 913.169125 527.10125 
L 913.169125 35.03625 
" clip-path="url(#pb19fafa444)" style="fill: none; stroke: #b0b0b0; stroke-width: 0.8; stroke-linecap: square"/>
     </g>
     <g id="line2d_10">
      <g>
       <use xlink:href="#m27dd4d2ab1" x="913.169125" y="527.10125" style="stroke: #000000; stroke-width: 0.8"/>
      </g>
     </g>
     <g id="text_5">
      <!-- 2050 -->
      <g transform="translate(900.444125 541.699687) scale(0.1 -0.1)">
       <use xlink:href="#DejaVuSans-32"/>
       <use xlink:href="#DejaVuSans-30" x="63.623047"/>
       <use xlink:href="#DejaVuSans-35" x="127.246094"/>
       <use xlink:href="#DejaVuSans-30" x="190.869141"/>
      </g>
     </g>
    </g>
    <g id="xtick_6">
     <g id="line2d_11">
      <path d="M 1128.475 527.10125 
L 1128.475 35.03625 
" clip-path="url(#pb19fafa444)" style="fill: none; stroke: #b0b0b0; stroke-width: 0.8; stroke-linecap: square"/>
     </g>
     <g id="line2d_12">
      <g>
       <use xlink:href="#m27dd4d2ab1" x="1128.475" y="527.10125" style="stroke: #000000; stroke-width: 0.8"/>
      </g>
     </g>
     <g id="text_6">
      <!-- 2100 -->
      <g transform="translate(1115.75 541.699687) scale(0.1 -0.1)">
       <use xlink:href="#DejaVuSans-32"/>
       <use xlink:href="#DejaVuSans-31" x="63.623047"/>
       <use xlink:href="#DejaVuSans-30" x="127.246094"/>
       <use xlink:href="#DejaVuSans-30" x="190.869141"/>
      </g>
     </g>
    </g>
    <g id="text_7">
     <!-- Year -->
     <g transform="translate(571.152813 561.456563) scale(0.18 -0.18)">
      <defs>
       <path id="DejaVuSans-59" d="M -13 4666 
L 666 4666 
L 1959 2747 
L 3244 4666 
L 3922 4666 
L 2272 2222 
L 2272 0 
L 1638 0 
L 1638 2222 
L -13 4666 
z
" transform="scale(0.015625)"/>
       <path id="DejaVuSans-65" d="M 3597 1894 
L 3597 1613 
L 953 1613 
Q 991 1019 1311 708 
Q 1631 397 2203 397 
Q 2534 397 2845 478 
Q 3156 559 3463 722 
L 3463 178 
Q 3153 47 2828 -22 
Q 2503 -91 2169 -91 
Q 1331 -91 842 396 
Q 353 884 353 1716 
Q 353 2575 817 3079 
Q 1281 3584 2069 3584 
Q 2775 3584 3186 3129 
Q 3597 2675 3597 1894 
z
M 3022 2063 
Q 3016 2534 2758 2815 
Q 2500 3097 2075 3097 
Q 1594 3097 1305 2825 
Q 1016 2553 972 2059 
L 3022 2063 
z
" transform="scale(0.015625)"/>
       <path id="DejaVuSans-61" d="M 2194 1759 
Q 1497 1759 1228 1600 
Q 959 1441 959 1056 
Q 959 750 1161 570 
Q 1363 391 1709 391 
Q 2188 391 2477 730 
Q 2766 1069 2766 1631 
L 2766 1759 
L 2194 1759 
z
M 3341 1997 
L 3341 0 
L 2766 0 
L 2766 531 
Q 2569 213 2275 61 
Q 1981 -91 1556 -91 
Q 1019 -91 701 211 
Q 384 513 384 1019 
Q 384 1609 779 1909 
Q 1175 2209 1959 2209 
L 2766 2209 
L 2766 2266 
Q 2766 2663 2505 2880 
Q 2244 3097 1772 3097 
Q 1472 3097 1187 3025 
Q 903 2953 641 2809 
L 641 3341 
Q 956 3463 1253 3523 
Q 1550 3584 1831 3584 
Q 2591 3584 2966 3190 
Q 3341 2797 3341 1997 
z
" transform="scale(0.015625)"/>
       <path id="DejaVuSans-72" d="M 2631 2963 
Q 2534 3019 2420 3045 
Q 2306 3072 2169 3072 
Q 1681 3072 1420 2755 
Q 1159 2438 1159 1844 
L 1159 0 
L 581 0 
L 581 3500 
L 1159 3500 
L 1159 2956 
Q 1341 3275 1631 3429 
Q 1922 3584 2338 3584 
Q 2397 3584 2469 3576 
Q 2541 3569 2628 3553 
L 2631 2963 
z
" transform="scale(0.015625)"/>
      </defs>
      <use xlink:href="#DejaVuSans-59"/>
      <use xlink:href="#DejaVuSans-65" x="47.833984"/>
      <use xlink:href="#DejaVuSans-61" x="109.357422"/>
      <use xlink:href="#DejaVuSans-72" x="170.636719"/>
     </g>
    </g>
   </g>
   <g id="matplotlib.axis_2">
    <g id="ytick_1">
     <g id="line2d_13">
      <path d="M 51.945625 527.10125 
L 1128.475 527.10125 
" clip-path="url(#pb19fafa444)" style="fill: none; stroke: #b0b0b0; stroke-width: 0.8; stroke-linecap: square"/>
     </g>
     <g id="line2d_14">
      <defs>
       <path id="m696164cfaf" d="M 0 0 
L -3.5 0 
" style="stroke: #000000; stroke-width: 0.8"/>
      </defs>
      <g>
       <use xlink:href="#m696164cfaf" x="51.945625" y="527.10125" style="stroke: #000000; stroke-width: 0.8"/>
      </g>
     </g>
     <g id="text_8">
      <!-- 12 -->
      <g transform="translate(32.220625 530.900469) scale(0.1 -0.1)">
       <use xlink:href="#DejaVuSans-31"/>
       <use xlink:href="#DejaVuSans-32" x="63.623047"/>
      </g>
     </g>
    </g>
    <g id="ytick_2">
     <g id="line2d_15">
      <path d="M 51.945625 472.427361 
L 1128.475 472.427361 
" clip-path="url(#pb19fafa444)" style="fill: none; stroke: #b0b0b0; stroke-width: 0.8; stroke-linecap: square"/>
     </g>
     <g id="line2d_16">
      <g>
       <use xlink:href="#m696164cfaf" x="51.945625" y="472.427361" style="stroke: #000000; stroke-width: 0.8"/>
      </g>
     </g>
     <g id="text_9">
      <!-- 13 -->
      <g transform="translate(32.220625 476.22658) scale(0.1 -0.1)">
       <defs>
        <path id="DejaVuSans-33" d="M 2597 2516 
Q 3050 2419 3304 2112 
Q 3559 1806 3559 1356 
Q 3559 666 3084 287 
Q 2609 -91 1734 -91 
Q 1441 -91 1130 -33 
Q 819 25 488 141 
L 488 750 
Q 750 597 1062 519 
Q 1375 441 1716 441 
Q 2309 441 2620 675 
Q 2931 909 2931 1356 
Q 2931 1769 2642 2001 
Q 2353 2234 1838 2234 
L 1294 2234 
L 1294 2753 
L 1863 2753 
Q 2328 2753 2575 2939 
Q 2822 3125 2822 3475 
Q 2822 3834 2567 4026 
Q 2313 4219 1838 4219 
Q 1578 4219 1281 4162 
Q 984 4106 628 3988 
L 628 4550 
Q 988 4650 1302 4700 
Q 1616 4750 1894 4750 
Q 2613 4750 3031 4423 
Q 3450 4097 3450 3541 
Q 3450 3153 3228 2886 
Q 3006 2619 2597 2516 
z
" transform="scale(0.015625)"/>
       </defs>
       <use xlink:href="#DejaVuSans-31"/>
       <use xlink:href="#DejaVuSans-33" x="63.623047"/>
      </g>
     </g>
    </g>
    <g id="ytick_3">
     <g id="line2d_17">
      <path d="M 51.945625 417.753472 
L 1128.475 417.753472 
" clip-path="url(#pb19fafa444)" style="fill: none; stroke: #b0b0b0; stroke-width: 0.8; stroke-linecap: square"/>
     </g>
     <g id="line2d_18">
      <g>
       <use xlink:href="#m696164cfaf" x="51.945625" y="417.753472" style="stroke: #000000; stroke-width: 0.8"/>
      </g>
     </g>
     <g id="text_10">
      <!-- 14 -->
      <g transform="translate(32.220625 421.552691) scale(0.1 -0.1)">
       <defs>
        <path id="DejaVuSans-34" d="M 2419 4116 
L 825 1625 
L 2419 1625 
L 2419 4116 
z
M 2253 4666 
L 3047 4666 
L 3047 1625 
L 3713 1625 
L 3713 1100 
L 3047 1100 
L 3047 0 
L 2419 0 
L 2419 1100 
L 313 1100 
L 313 1709 
L 2253 4666 
z
" transform="scale(0.015625)"/>
       </defs>
       <use xlink:href="#DejaVuSans-31"/>
       <use xlink:href="#DejaVuSans-34" x="63.623047"/>
      </g>
     </g>
    </g>
    <g id="ytick_4">
     <g id="line2d_19">
      <path d="M 51.945625 363.079583 
L 1128.475 363.079583 
" clip-path="url(#pb19fafa444)" style="fill: none; stroke: #b0b0b0; stroke-width: 0.8; stroke-linecap: square"/>
     </g>
     <g id="line2d_20">
      <g>
       <use xlink:href="#m696164cfaf" x="51.945625" y="363.079583" style="stroke: #000000; stroke-width: 0.8"/>
      </g>
     </g>
     <g id="text_11">
      <!-- 15 -->
      <g transform="translate(32.220625 366.878802) scale(0.1 -0.1)">
       <use xlink:href="#DejaVuSans-31"/>
       <use xlink:href="#DejaVuSans-35" x="63.623047"/>
      </g>
     </g>
    </g>
    <g id="ytick_5">
     <g id="line2d_21">
      <path d="M 51.945625 308.405694 
L 1128.475 308.405694 
" clip-path="url(#pb19fafa444)" style="fill: none; stroke: #b0b0b0; stroke-width: 0.8; stroke-linecap: square"/>
     </g>
     <g id="line2d_22">
      <g>
       <use xlink:href="#m696164cfaf" x="51.945625" y="308.405694" style="stroke: #000000; stroke-width: 0.8"/>
      </g>
     </g>
     <g id="text_12">
      <!-- 16 -->
      <g transform="translate(32.220625 312.204913) scale(0.1 -0.1)">
       <defs>
        <path id="DejaVuSans-36" d="M 2113 2584 
Q 1688 2584 1439 2293 
Q 1191 2003 1191 1497 
Q 1191 994 1439 701 
Q 1688 409 2113 409 
Q 2538 409 2786 701 
Q 3034 994 3034 1497 
Q 3034 2003 2786 2293 
Q 2538 2584 2113 2584 
z
M 3366 4563 
L 3366 3988 
Q 3128 4100 2886 4159 
Q 2644 4219 2406 4219 
Q 1781 4219 1451 3797 
Q 1122 3375 1075 2522 
Q 1259 2794 1537 2939 
Q 1816 3084 2150 3084 
Q 2853 3084 3261 2657 
Q 3669 2231 3669 1497 
Q 3669 778 3244 343 
Q 2819 -91 2113 -91 
Q 1303 -91 875 529 
Q 447 1150 447 2328 
Q 447 3434 972 4092 
Q 1497 4750 2381 4750 
Q 2619 4750 2861 4703 
Q 3103 4656 3366 4563 
z
" transform="scale(0.015625)"/>
       </defs>
       <use xlink:href="#DejaVuSans-31"/>
       <use xlink:href="#DejaVuSans-36" x="63.623047"/>
      </g>
     </g>
    </g>
    <g id="ytick_6">
     <g id="line2d_23">
      <path d="M 51.945625 253.731806 
L 1128.475 253.731806 
" clip-path="url(#pb19fafa444)" style="fill: none; stroke: #b0b0b0; stroke-width: 0.8; stroke-linecap: square"/>
     </g>
     <g id="line2d_24">
      <g>
       <use xlink:href="#m696164cfaf" x="51.945625" y="253.731806" style="stroke: #000000; stroke-width: 0.8"/>
      </g>
     </g>
     <g id="text_13">
      <!-- 17 -->
      <g transform="translate(32.220625 257.531024) scale(0.1 -0.1)">
       <defs>
        <path id="DejaVuSans-37" d="M 525 4666 
L 3525 4666 
L 3525 4397 
L 1831 0 
L 1172 0 
L 2766 4134 
L 525 4134 
L 525 4666 
z
" transform="scale(0.015625)"/>
       </defs>
       <use xlink:href="#DejaVuSans-31"/>
       <use xlink:href="#DejaVuSans-37" x="63.623047"/>
      </g>
     </g>
    </g>
    <g id="ytick_7">
     <g id="line2d_25">
      <path d="M 51.945625 199.057917 
L 1128.475 199.057917 
" clip-path="url(#pb19fafa444)" style="fill: none; stroke: #b0b0b0; stroke-width: 0.8; stroke-linecap: square"/>
     </g>
     <g id="line2d_26">
      <g>
       <use xlink:href="#m696164cfaf" x="51.945625" y="199.057917" style="stroke: #000000; stroke-width: 0.8"/>
      </g>
     </g>
     <g id="text_14">
      <!-- 18 -->
      <g transform="translate(32.220625 202.857135) scale(0.1 -0.1)">
       <use xlink:href="#DejaVuSans-31"/>
       <use xlink:href="#DejaVuSans-38" x="63.623047"/>
      </g>
     </g>
    </g>
    <g id="ytick_8">
     <g id="line2d_27">
      <path d="M 51.945625 144.384028 
L 1128.475 144.384028 
" clip-path="url(#pb19fafa444)" style="fill: none; stroke: #b0b0b0; stroke-width: 0.8; stroke-linecap: square"/>
     </g>
     <g id="line2d_28">
      <g>
       <use xlink:href="#m696164cfaf" x="51.945625" y="144.384028" style="stroke: #000000; stroke-width: 0.8"/>
      </g>
     </g>
     <g id="text_15">
      <!-- 19 -->
      <g transform="translate(32.220625 148.183247) scale(0.1 -0.1)">
       <use xlink:href="#DejaVuSans-31"/>
       <use xlink:href="#DejaVuSans-39" x="63.623047"/>
      </g>
     </g>
    </g>
    <g id="ytick_9">
     <g id="line2d_29">
      <path d="M 51.945625 89.710139 
L 1128.475 89.710139 
" clip-path="url(#pb19fafa444)" style="fill: none; stroke: #b0b0b0; stroke-width: 0.8; stroke-linecap: square"/>
     </g>
     <g id="line2d_30">
      <g>
       <use xlink:href="#m696164cfaf" x="51.945625" y="89.710139" style="stroke: #000000; stroke-width: 0.8"/>
      </g>
     </g>
     <g id="text_16">
      <!-- 20 -->
      <g transform="translate(32.220625 93.509358) scale(0.1 -0.1)">
       <use xlink:href="#DejaVuSans-32"/>
       <use xlink:href="#DejaVuSans-30" x="63.623047"/>
      </g>
     </g>
    </g>
    <g id="ytick_10">
     <g id="line2d_31">
      <path d="M 51.945625 35.03625 
L 1128.475 35.03625 
" clip-path="url(#pb19fafa444)" style="fill: none; stroke: #b0b0b0; stroke-width: 0.8; stroke-linecap: square"/>
     </g>
     <g id="line2d_32">
      <g>
       <use xlink:href="#m696164cfaf" x="51.945625" y="35.03625" style="stroke: #000000; stroke-width: 0.8"/>
      </g>
     </g>
     <g id="text_17">
      <!-- 21 -->
      <g transform="translate(32.220625 38.835469) scale(0.1 -0.1)">
       <use xlink:href="#DejaVuSans-32"/>
       <use xlink:href="#DejaVuSans-31" x="63.623047"/>
      </g>
     </g>
    </g>
    <g id="text_18">
     <!-- Surface Air Temperature (°C) -->
     <g transform="translate(24.477187 411.106094) rotate(-90) scale(0.18 -0.18)">
      <defs>
       <path id="DejaVuSans-53" d="M 3425 4513 
L 3425 3897 
Q 3066 4069 2747 4153 
Q 2428 4238 2131 4238 
Q 1616 4238 1336 4038 
Q 1056 3838 1056 3469 
Q 1056 3159 1242 3001 
Q 1428 2844 1947 2747 
L 2328 2669 
Q 3034 2534 3370 2195 
Q 3706 1856 3706 1288 
Q 3706 609 3251 259 
Q 2797 -91 1919 -91 
Q 1588 -91 1214 -16 
Q 841 59 441 206 
L 441 856 
Q 825 641 1194 531 
Q 1563 422 1919 422 
Q 2459 422 2753 634 
Q 3047 847 3047 1241 
Q 3047 1584 2836 1778 
Q 2625 1972 2144 2069 
L 1759 2144 
Q 1053 2284 737 2584 
Q 422 2884 422 3419 
Q 422 4038 858 4394 
Q 1294 4750 2059 4750 
Q 2388 4750 2728 4690 
Q 3069 4631 3425 4513 
z
" transform="scale(0.015625)"/>
       <path id="DejaVuSans-75" d="M 544 1381 
L 544 3500 
L 1119 3500 
L 1119 1403 
Q 1119 906 1312 657 
Q 1506 409 1894 409 
Q 2359 409 2629 706 
Q 2900 1003 2900 1516 
L 2900 3500 
L 3475 3500 
L 3475 0 
L 2900 0 
L 2900 538 
Q 2691 219 2414 64 
Q 2138 -91 1772 -91 
Q 1169 -91 856 284 
Q 544 659 544 1381 
z
M 1991 3584 
L 1991 3584 
z
" transform="scale(0.015625)"/>
       <path id="DejaVuSans-66" d="M 2375 4863 
L 2375 4384 
L 1825 4384 
Q 1516 4384 1395 4259 
Q 1275 4134 1275 3809 
L 1275 3500 
L 2222 3500 
L 2222 3053 
L 1275 3053 
L 1275 0 
L 697 0 
L 697 3053 
L 147 3053 
L 147 3500 
L 697 3500 
L 697 3744 
Q 697 4328 969 4595 
Q 1241 4863 1831 4863 
L 2375 4863 
z
" transform="scale(0.015625)"/>
       <path id="DejaVuSans-63" d="M 3122 3366 
L 3122 2828 
Q 2878 2963 2633 3030 
Q 2388 3097 2138 3097 
Q 1578 3097 1268 2742 
Q 959 2388 959 1747 
Q 959 1106 1268 751 
Q 1578 397 2138 397 
Q 2388 397 2633 464 
Q 2878 531 3122 666 
L 3122 134 
Q 2881 22 2623 -34 
Q 2366 -91 2075 -91 
Q 1284 -91 818 406 
Q 353 903 353 1747 
Q 353 2603 823 3093 
Q 1294 3584 2113 3584 
Q 2378 3584 2631 3529 
Q 2884 3475 3122 3366 
z
" transform="scale(0.015625)"/>
       <path id="DejaVuSans-20" transform="scale(0.015625)"/>
       <path id="DejaVuSans-41" d="M 2188 4044 
L 1331 1722 
L 3047 1722 
L 2188 4044 
z
M 1831 4666 
L 2547 4666 
L 4325 0 
L 3669 0 
L 3244 1197 
L 1141 1197 
L 716 0 
L 50 0 
L 1831 4666 
z
" transform="scale(0.015625)"/>
       <path id="DejaVuSans-69" d="M 603 3500 
L 1178 3500 
L 1178 0 
L 603 0 
L 603 3500 
z
M 603 4863 
L 1178 4863 
L 1178 4134 
L 603 4134 
L 603 4863 
z
" transform="scale(0.015625)"/>
       <path id="DejaVuSans-54" d="M -19 4666 
L 3928 4666 
L 3928 4134 
L 2272 4134 
L 2272 0 
L 1638 0 
L 1638 4134 
L -19 4134 
L -19 4666 
z
" transform="scale(0.015625)"/>
       <path id="DejaVuSans-6d" d="M 3328 2828 
Q 3544 3216 3844 3400 
Q 4144 3584 4550 3584 
Q 5097 3584 5394 3201 
Q 5691 2819 5691 2113 
L 5691 0 
L 5113 0 
L 5113 2094 
Q 5113 2597 4934 2840 
Q 4756 3084 4391 3084 
Q 3944 3084 3684 2787 
Q 3425 2491 3425 1978 
L 3425 0 
L 2847 0 
L 2847 2094 
Q 2847 2600 2669 2842 
Q 2491 3084 2119 3084 
Q 1678 3084 1418 2786 
Q 1159 2488 1159 1978 
L 1159 0 
L 581 0 
L 581 3500 
L 1159 3500 
L 1159 2956 
Q 1356 3278 1631 3431 
Q 1906 3584 2284 3584 
Q 2666 3584 2933 3390 
Q 3200 3197 3328 2828 
z
" transform="scale(0.015625)"/>
       <path id="DejaVuSans-70" d="M 1159 525 
L 1159 -1331 
L 581 -1331 
L 581 3500 
L 1159 3500 
L 1159 2969 
Q 1341 3281 1617 3432 
Q 1894 3584 2278 3584 
Q 2916 3584 3314 3078 
Q 3713 2572 3713 1747 
Q 3713 922 3314 415 
Q 2916 -91 2278 -91 
Q 1894 -91 1617 61 
Q 1341 213 1159 525 
z
M 3116 1747 
Q 3116 2381 2855 2742 
Q 2594 3103 2138 3103 
Q 1681 3103 1420 2742 
Q 1159 2381 1159 1747 
Q 1159 1113 1420 752 
Q 1681 391 2138 391 
Q 2594 391 2855 752 
Q 3116 1113 3116 1747 
z
" transform="scale(0.015625)"/>
       <path id="DejaVuSans-74" d="M 1172 4494 
L 1172 3500 
L 2356 3500 
L 2356 3053 
L 1172 3053 
L 1172 1153 
Q 1172 725 1289 603 
Q 1406 481 1766 481 
L 2356 481 
L 2356 0 
L 1766 0 
Q 1100 0 847 248 
Q 594 497 594 1153 
L 594 3053 
L 172 3053 
L 172 3500 
L 594 3500 
L 594 4494 
L 1172 4494 
z
" transform="scale(0.015625)"/>
       <path id="DejaVuSans-28" d="M 1984 4856 
Q 1566 4138 1362 3434 
Q 1159 2731 1159 2009 
Q 1159 1288 1364 580 
Q 1569 -128 1984 -844 
L 1484 -844 
Q 1016 -109 783 600 
Q 550 1309 550 2009 
Q 550 2706 781 3412 
Q 1013 4119 1484 4856 
L 1984 4856 
z
" transform="scale(0.015625)"/>
       <path id="DejaVuSans-b0" d="M 1600 4347 
Q 1350 4347 1178 4173 
Q 1006 4000 1006 3750 
Q 1006 3503 1178 3333 
Q 1350 3163 1600 3163 
Q 1850 3163 2022 3333 
Q 2194 3503 2194 3750 
Q 2194 3997 2020 4172 
Q 1847 4347 1600 4347 
z
M 1600 4750 
Q 1800 4750 1984 4673 
Q 2169 4597 2303 4453 
Q 2447 4313 2519 4134 
Q 2591 3956 2591 3750 
Q 2591 3338 2302 3052 
Q 2013 2766 1594 2766 
Q 1172 2766 890 3047 
Q 609 3328 609 3750 
Q 609 4169 896 4459 
Q 1184 4750 1600 4750 
z
" transform="scale(0.015625)"/>
       <path id="DejaVuSans-43" d="M 4122 4306 
L 4122 3641 
Q 3803 3938 3442 4084 
Q 3081 4231 2675 4231 
Q 1875 4231 1450 3742 
Q 1025 3253 1025 2328 
Q 1025 1406 1450 917 
Q 1875 428 2675 428 
Q 3081 428 3442 575 
Q 3803 722 4122 1019 
L 4122 359 
Q 3791 134 3420 21 
Q 3050 -91 2638 -91 
Q 1578 -91 968 557 
Q 359 1206 359 2328 
Q 359 3453 968 4101 
Q 1578 4750 2638 4750 
Q 3056 4750 3426 4639 
Q 3797 4528 4122 4306 
z
" transform="scale(0.015625)"/>
       <path id="DejaVuSans-29" d="M 513 4856 
L 1013 4856 
Q 1481 4119 1714 3412 
Q 1947 2706 1947 2009 
Q 1947 1309 1714 600 
Q 1481 -109 1013 -844 
L 513 -844 
Q 928 -128 1133 580 
Q 1338 1288 1338 2009 
Q 1338 2731 1133 3434 
Q 928 4138 513 4856 
z
" transform="scale(0.015625)"/>
      </defs>
      <use xlink:href="#DejaVuSans-53"/>
      <use xlink:href="#DejaVuSans-75" x="63.476562"/>
      <use xlink:href="#DejaVuSans-72" x="126.855469"/>
      <use xlink:href="#DejaVuSans-66" x="167.96875"/>
      <use xlink:href="#DejaVuSans-61" x="203.173828"/>
      <use xlink:href="#DejaVuSans-63" x="264.453125"/>
      <use xlink:href="#DejaVuSans-65" x="319.433594"/>
      <use xlink:href="#DejaVuSans-20" x="380.957031"/>
      <use xlink:href="#DejaVuSans-41" x="412.744141"/>
      <use xlink:href="#DejaVuSans-69" x="481.152344"/>
      <use xlink:href="#DejaVuSans-72" x="508.935547"/>
      <use xlink:href="#DejaVuSans-20" x="550.048828"/>
      <use xlink:href="#DejaVuSans-54" x="581.835938"/>
      <use xlink:href="#DejaVuSans-65" x="625.919922"/>
      <use xlink:href="#DejaVuSans-6d" x="687.443359"/>
      <use xlink:href="#DejaVuSans-70" x="784.855469"/>
      <use xlink:href="#DejaVuSans-65" x="848.332031"/>
      <use xlink:href="#DejaVuSans-72" x="909.855469"/>
      <use xlink:href="#DejaVuSans-61" x="950.96875"/>
      <use xlink:href="#DejaVuSans-74" x="1012.248047"/>
      <use xlink:href="#DejaVuSans-75" x="1051.457031"/>
      <use xlink:href="#DejaVuSans-72" x="1114.835938"/>
      <use xlink:href="#DejaVuSans-65" x="1153.699219"/>
      <use xlink:href="#DejaVuSans-20" x="1215.222656"/>
      <use xlink:href="#DejaVuSans-28" x="1247.009766"/>
      <use xlink:href="#DejaVuSans-b0" x="1286.023438"/>
      <use xlink:href="#DejaVuSans-43" x="1336.023438"/>
      <use xlink:href="#DejaVuSans-29" x="1405.847656"/>
     </g>
    </g>
   </g>
   <g id="line2d_33">
    <path d="M 51.945625 454.553835 
L 56.251742 454.09237 
L 60.55786 448.395105 
L 64.863977 445.6394 
L 69.170095 449.950937 
L 73.476212 457.007956 
L 77.78233 446.709749 
L 82.088447 445.347263 
L 86.394565 446.342512 
L 90.700682 444.220866 
L 95.0068 448.341678 
L 99.312917 443.034447 
L 103.619035 447.602374 
L 107.925152 445.999116 
L 112.23127 446.979609 
L 116.537387 457.305903 
L 120.843505 452.984836 
L 125.149622 451.670356 
L 129.45574 453.992277 
L 133.761857 463.903665 
L 138.067975 469.705193 
L 142.374092 459.793639 
L 146.68021 444.802095 
L 150.986327 442.600682 
L 155.292445 453.93967 
L 159.598562 455.917062 
L 163.90468 453.85564 
L 168.210797 447.708599 
L 172.516915 444.856714 
L 176.823032 449.490365 
L 181.12915 449.193749 
L 185.435267 453.56481 
L 189.741385 449.359056 
L 194.047502 446.681153 
L 198.35362 463.117857 
L 202.659737 465.450882 
L 206.965855 461.344984 
L 211.271972 455.960506 
L 215.57809 447.216308 
L 219.884207 449.819673 
L 224.190325 452.101706 
L 228.496442 449.063615 
L 232.80256 451.960271 
L 237.108677 457.439605 
L 241.414795 454.215062 
L 245.720912 450.394806 
L 250.02703 446.195772 
L 254.333147 453.240278 
L 258.639265 451.277018 
L 262.945382 455.556838 
L 267.2515 451.224414 
L 271.557617 459.682194 
L 275.863735 452.715113 
L 280.169852 456.424056 
L 284.47597 458.936378 
L 288.782087 455.724071 
L 293.088205 456.793657 
L 297.394322 447.817954 
L 301.70044 449.700255 
L 306.006557 452.358894 
L 310.312675 453.941992 
L 314.618792 451.248236 
L 318.92491 456.051658 
L 323.231027 451.536428 
L 327.537145 445.353005 
L 331.843262 444.530863 
L 336.14938 451.227819 
L 340.455497 456.658105 
L 344.761615 452.812035 
L 349.067732 446.903396 
L 353.37385 449.745372 
L 357.679968 457.424604 
L 361.986085 456.978832 
L 366.292202 455.698481 
L 370.59832 446.430033 
L 374.904437 446.985035 
L 379.210555 448.568148 
L 383.516672 456.752871 
L 387.82279 452.197452 
L 392.128907 452.810855 
L 396.435025 447.557811 
L 400.741142 457.582784 
L 405.04726 455.209238 
L 409.353377 454.044399 
L 413.659495 457.097482 
L 417.965613 454.941773 
L 422.27173 446.846715 
L 426.577847 459.973568 
L 430.883965 463.170442 
L 435.190082 453.873851 
L 439.4962 459.514967 
L 443.802317 455.365303 
L 448.108435 446.153593 
L 452.414553 455.955784 
L 456.72067 449.608591 
L 461.026787 457.789704 
L 465.332905 453.821075 
L 469.639022 448.034389 
L 473.94514 450.229452 
L 478.251258 460.639305 
L 482.557375 456.649129 
L 486.863492 450.176983 
L 491.16961 441.241873 
L 495.475727 440.129607 
L 499.781845 433.379186 
L 504.087962 437.878755 
L 508.39408 442.725265 
L 512.700198 440.748159 
L 517.006315 436.688011 
L 521.312432 443.973866 
L 525.61855 449.325605 
L 529.924667 447.703192 
L 534.230785 443.388532 
L 538.536902 446.202025 
L 542.84302 448.837978 
L 547.149137 457.766123 
L 551.455255 457.313955 
L 555.761372 456.334537 
L 560.06749 456.029199 
L 564.373607 451.861249 
L 568.679725 458.193087 
L 572.985843 456.260257 
L 577.29196 452.904071 
L 581.598077 444.674957 
L 585.904195 458.556999 
L 590.210312 459.908496 
L 594.51643 451.172153 
L 598.822547 451.756133 
L 603.128665 441.774693 
L 607.434783 443.300018 
L 611.7409 441.629917 
L 616.047017 446.141138 
L 620.353135 452.804809 
L 624.659252 457.649318 
L 628.96537 456.095807 
L 633.271488 456.757292 
L 637.577605 450.080944 
L 641.883722 436.732827 
L 646.18984 425.205059 
L 650.495957 417.30631 
L 654.802075 440.358509 
L 659.108192 445.06372 
L 663.41431 450.154359 
L 667.720428 447.698305 
L 672.026545 444.147706 
L 676.332662 432.710038 
L 680.63878 427.694483 
L 689.251015 435.746894 
L 693.557133 432.177782 
L 697.86325 426.992038 
L 702.169367 432.319605 
L 706.475485 437.381879 
L 710.781602 422.799153 
L 715.08772 417.574174 
L 719.393837 416.2735 
L 723.699955 415.350811 
L 728.006073 416.988042 
L 732.31219 423.278298 
L 736.618307 402.016042 
L 740.924425 399.301368 
L 745.230542 416.895513 
L 749.53666 406.490998 
L 753.842778 408.059402 
L 758.148895 399.999292 
L 758.148895 399.999292 
" clip-path="url(#pb19fafa444)" style="fill: none; stroke: #000000; stroke-width: 1.5; stroke-linecap: square"/>
   </g>
   <g id="line2d_34">
    <path d="M 762.455013 392.247241 
L 766.76113 391.344439 
L 771.067247 387.442789 
L 775.373365 390.800126 
L 779.679482 377.119584 
L 783.9856 373.604603 
L 788.291718 374.358953 
L 792.597835 377.894222 
L 796.903952 384.819804 
L 801.21007 380.777433 
L 805.516187 375.461955 
L 809.822305 369.362324 
L 814.128422 376.690871 
L 818.43454 373.624187 
L 822.740658 365.524295 
L 827.046775 361.037598 
L 831.352892 353.372989 
L 835.65901 368.118209 
L 839.965127 372.740283 
L 844.271245 374.862634 
L 848.577363 366.280428 
L 852.88348 356.711254 
L 857.189598 366.841285 
L 861.495715 363.111158 
L 865.801832 368.151514 
L 870.10795 370.281759 
L 874.414067 355.897358 
L 878.720185 352.027328 
L 883.026303 363.633089 
L 887.33242 358.922066 
L 891.638537 357.325242 
L 895.944655 359.829237 
L 900.250772 356.55615 
L 904.55689 353.895706 
L 908.863008 354.649717 
L 913.169125 347.171964 
L 917.475243 346.42447 
L 921.78136 355.697766 
L 926.087477 360.5823 
L 930.393595 362.598613 
L 934.699712 359.631549 
L 939.00583 351.803761 
L 943.311948 355.295962 
L 947.618065 350.01845 
L 951.924182 354.666932 
L 956.2303 343.342474 
L 960.536417 343.949974 
L 964.842535 352.170834 
L 969.148653 347.829359 
L 973.45477 345.792103 
L 977.760888 353.093523 
L 982.067005 355.190846 
L 986.373122 358.220869 
L 990.67924 349.405114 
L 994.985357 357.150711 
L 999.291475 349.596316 
L 1003.597593 353.138573 
L 1007.90371 359.862686 
L 1012.209828 354.660258 
L 1016.515945 352.177508 
L 1020.822062 356.121877 
L 1025.12818 342.463416 
L 1029.434297 342.800456 
L 1033.740415 356.755367 
L 1038.046533 345.785429 
L 1042.35265 336.520167 
L 1046.658767 346.264292 
L 1050.964885 341.836054 
L 1055.271002 341.76264 
L 1059.57712 347.215346 
L 1063.883238 356.57905 
L 1068.189355 360.673585 
L 1072.495473 350.056826 
L 1076.80159 344.360517 
L 1081.107707 352.259266 
L 1085.413825 358.337665 
L 1089.719942 354.672868 
L 1094.02606 364.889922 
L 1098.332178 354.036234 
L 1102.638295 354.226444 
L 1106.944413 360.516745 
L 1111.25053 364.347654 
L 1115.556647 362.625747 
L 1119.862765 348.626909 
L 1124.168883 346.54794 
L 1128.475 355.025663 
L 1128.475 355.025663 
" clip-path="url(#pb19fafa444)" style="fill: none; stroke: #173c66; stroke-width: 1.5; stroke-linecap: square"/>
   </g>
   <g id="line2d_35">
    <path d="M 762.455013 398.626836 
L 766.76113 395.923042 
L 771.067247 392.869973 
L 775.373365 389.956218 
L 779.679482 396.050432 
L 783.9856 387.132106 
L 788.291718 373.545916 
L 792.597835 378.433141 
L 796.903952 379.604687 
L 801.21007 367.337087 
L 805.516187 376.115334 
L 809.822305 377.25815 
L 814.128422 376.880779 
L 818.43454 367.190257 
L 822.740658 368.403395 
L 827.046775 363.84129 
L 831.352892 356.270159 
L 835.65901 365.589029 
L 839.965127 368.31994 
L 844.271245 363.509775 
L 848.577363 365.895966 
L 852.88348 366.184689 
L 857.189598 360.87047 
L 861.495715 364.42116 
L 865.801832 356.809305 
L 870.10795 341.687557 
L 874.414067 343.001956 
L 878.720185 346.841342 
L 883.026303 355.609258 
L 887.33242 355.017349 
L 891.638537 350.74607 
L 895.944655 344.130262 
L 900.250772 336.483459 
L 908.863008 334.214343 
L 913.169125 334.534287 
L 917.475243 341.521563 
L 921.78136 336.053663 
L 926.087477 322.905087 
L 930.393595 323.175386 
L 934.699712 332.555776 
L 939.00583 343.893273 
L 943.311948 332.051884 
L 947.618065 326.056911 
L 951.924182 322.957757 
L 956.2303 324.393402 
L 960.536417 322.589738 
L 964.842535 317.26217 
L 969.148653 318.955713 
L 973.45477 321.865602 
L 977.760888 326.515753 
L 986.373122 304.798366 
L 990.67924 302.275572 
L 994.985357 316.900103 
L 999.291475 318.224903 
L 1003.597593 307.60147 
L 1007.90371 306.269996 
L 1012.209828 289.169389 
L 1016.515945 303.436858 
L 1020.822062 307.7483 
L 1025.12818 291.455254 
L 1029.434297 295.102627 
L 1033.740415 297.875698 
L 1038.046533 302.429075 
L 1042.35265 306.762207 
L 1046.658767 304.476342 
L 1050.964885 298.331203 
L 1059.57712 281.622697 
L 1063.883238 279.016477 
L 1068.189355 280.965302 
L 1072.495473 292.424661 
L 1076.80159 292.257809 
L 1081.107707 288.421894 
L 1085.413825 273.43029 
L 1089.719942 273.380234 
L 1094.02606 285.455275 
L 1098.332178 286.319566 
L 1102.638295 281.739493 
L 1106.944413 279.123262 
L 1111.25053 269.859668 
L 1115.556647 269.589369 
L 1119.862765 288.949145 
L 1124.168883 286.706661 
L 1128.475 266.674474 
L 1128.475 266.674474 
" clip-path="url(#pb19fafa444)" style="fill: none; stroke: #f79420; stroke-width: 1.5; stroke-linecap: square"/>
   </g>
   <g id="line2d_36">
    <path d="M 762.455013 393.703334 
L 766.76113 392.410005 
L 771.067247 383.987523 
L 775.373365 390.147013 
L 779.679482 380.963128 
L 783.9856 380.274787 
L 788.291718 387.41636 
L 792.597835 388.370649 
L 796.903952 385.738566 
L 801.21007 369.637983 
L 805.516187 368.29478 
L 809.822305 370.384732 
L 814.128422 371.788974 
L 818.43454 359.868089 
L 822.740658 366.150797 
L 827.046775 379.137545 
L 831.352892 378.870403 
L 835.65901 365.95622 
L 839.965127 359.431669 
L 844.271245 363.357171 
L 848.577363 365.45388 
L 852.88348 365.431845 
L 857.189598 352.611382 
L 861.495715 353.489381 
L 865.801832 349.654383 
L 870.10795 353.260374 
L 874.414067 350.096871 
L 878.720185 352.609654 
L 883.026303 353.246038 
L 887.33242 345.924738 
L 891.638537 337.266517 
L 895.944655 335.255433 
L 900.250772 332.98959 
L 904.55689 342.527103 
L 908.863008 326.559134 
L 913.169125 327.910631 
L 917.475243 318.632021 
L 921.78136 315.42013 
L 926.087477 318.286638 
L 930.393595 323.737676 
L 934.699712 316.781638 
L 939.00583 319.072509 
L 943.311948 323.589178 
L 947.618065 312.221588 
L 951.924182 318.221566 
L 956.2303 314.78724 
L 960.536417 307.078176 
L 964.842535 298.830089 
L 969.148653 289.176063 
L 973.45477 303.106492 
L 977.760888 297.044778 
L 982.067005 285.914117 
L 986.373122 291.718879 
L 990.67924 291.765598 
L 994.985357 288.193308 
L 999.291475 292.698337 
L 1003.597593 277.588228 
L 1007.90371 268.649995 
L 1012.209828 276.360202 
L 1016.515945 272.018726 
L 1020.822062 263.888054 
L 1025.12818 253.481528 
L 1029.434297 264.056574 
L 1033.740415 260.52266 
L 1038.046533 250.271306 
L 1042.35265 261.630554 
L 1046.658767 254.868064 
L 1050.964885 244.142852 
L 1055.271002 242.699587 
L 1059.57712 239.974902 
L 1063.883238 224.436025 
L 1068.189355 239.719619 
L 1072.495473 247.371428 
L 1076.80159 233.541109 
L 1081.107707 223.458275 
L 1085.413825 215.249183 
L 1089.719942 221.305891 
L 1094.02606 214.206361 
L 1098.332178 193.16806 
L 1102.638295 195.997861 
L 1106.944413 200.028992 
L 1111.25053 191.966729 
L 1115.556647 178.720391 
L 1119.862765 189.00011 
L 1124.168883 192.410554 
L 1128.475 185.059079 
L 1128.475 185.059079 
" clip-path="url(#pb19fafa444)" style="fill: none; stroke: #e71d25; stroke-width: 1.5; stroke-linecap: square"/>
   </g>
   <g id="line2d_37">
    <path d="M 762.455013 390.024278 
L 766.76113 388.164851 
L 771.067247 384.350975 
L 775.373365 383.693955 
L 779.679482 386.610186 
L 783.9856 394.999836 
L 788.291718 381.05231 
L 792.597835 368.792048 
L 796.903952 370.051192 
L 801.21007 374.686901 
L 805.516187 369.824057 
L 809.822305 377.904237 
L 818.43454 363.77673 
L 822.740658 366.705266 
L 827.046775 371.275327 
L 831.352892 367.459585 
L 835.65901 365.989243 
L 839.965127 368.912383 
L 844.271245 367.692009 
L 848.577363 370.386893 
L 852.88348 368.02306 
L 857.189598 359.124316 
L 861.495715 353.361193 
L 865.801832 358.963369 
L 870.10795 345.340091 
L 874.414067 348.686061 
L 878.720185 344.673223 
L 883.026303 333.22887 
L 887.33242 329.015188 
L 891.638537 334.614723 
L 895.944655 336.733737 
L 900.250772 327.076374 
L 904.55689 321.660375 
L 908.863008 326.7093 
L 913.169125 319.184299 
L 917.475243 317.282193 
L 921.78136 308.672657 
L 926.087477 306.32172 
L 930.393595 307.838399 
L 934.699712 306.670439 
L 939.00583 289.788408 
L 943.311948 291.995853 
L 947.618065 290.964711 
L 951.924182 294.994173 
L 956.2303 286.164394 
L 960.536417 293.495847 
L 964.842535 286.274516 
L 969.148653 272.842973 
L 973.45477 271.049319 
L 977.760888 271.119397 
L 982.067005 255.9843 
L 986.373122 258.136684 
L 994.985357 253.411451 
L 999.291475 243.245191 
L 1003.597593 232.294729 
L 1007.90371 236.055561 
L 1012.209828 239.462668 
L 1016.515945 232.957129 
L 1020.822062 239.038865 
L 1025.12818 229.016098 
L 1029.434297 221.214123 
L 1033.740415 210.488911 
L 1038.046533 207.49059 
L 1042.35265 188.322693 
L 1046.658767 178.193141 
L 1050.964885 198.417207 
L 1055.271002 190.149717 
L 1059.57712 180.085236 
L 1063.883238 189.362178 
L 1068.189355 175.608611 
L 1072.495473 160.78219 
L 1076.80159 163.463493 
L 1081.107707 152.980215 
L 1085.413825 146.409605 
L 1089.719942 149.112598 
L 1094.02606 148.643746 
L 1098.332178 150.375664 
L 1102.638295 145.330076 
L 1106.944413 130.240029 
L 1111.25053 124.076536 
L 1115.556647 130.306769 
L 1124.168883 104.317985 
L 1128.475 113.239533 
L 1128.475 113.239533 
" clip-path="url(#pb19fafa444)" style="fill: none; stroke: #951b1e; stroke-width: 1.5; stroke-linecap: square"/>
   </g>
   <g id="line2d_38">
    <path d="M 762.455013 527.10125 
L 762.455013 35.03625 
" clip-path="url(#pb19fafa444)" style="fill: none; stroke-dasharray: 5.55,2.4; stroke-dashoffset: 0; stroke: #000000; stroke-width: 1.5"/>
   </g>
   <g id="patch_3">
    <path d="M 51.945625 527.10125 
L 51.945625 35.03625 
" style="fill: none; stroke: #000000; stroke-width: 0.8; stroke-linejoin: miter; stroke-linecap: square"/>
   </g>
   <g id="patch_4">
    <path d="M 1128.475 527.10125 
L 1128.475 35.03625 
" style="fill: none; stroke: #000000; stroke-width: 0.8; stroke-linejoin: miter; stroke-linecap: square"/>
   </g>
   <g id="patch_5">
    <path d="M 51.945625 527.10125 
L 1128.475 527.10125 
" style="fill: none; stroke: #000000; stroke-width: 0.8; stroke-linejoin: miter; stroke-linecap: square"/>
   </g>
   <g id="patch_6">
    <path d="M 51.945625 35.03625 
L 1128.475 35.03625 
" style="fill: none; stroke: #000000; stroke-width: 0.8; stroke-linejoin: miter; stroke-linecap: square"/>
   </g>
   <g id="text_19">
    <!-- 2015 -->
    <g transform="translate(783.9856 117.047083) scale(0.18 -0.18)">
     <use xlink:href="#DejaVuSans-32"/>
     <use xlink:href="#DejaVuSans-30" x="63.623047"/>
     <use xlink:href="#DejaVuSans-31" x="127.246094"/>
     <use xlink:href="#DejaVuSans-35" x="190.869141"/>
    </g>
   </g>
   <g id="text_20">
    <g id="patch_7">
     <path d="M 988.588313 73.60405 
L 1053.055813 73.60405 
L 1053.055813 42.47755 
L 988.588313 42.47755 
z
" style="fill: #ffffff"/>
    </g>
    <!-- ipsl_cm6a_lr -->
    <g transform="translate(996.128938 50.9563) scale(0.08 -0.08)">
     <defs>
      <path id="DejaVuSans-73" d="M 2834 3397 
L 2834 2853 
Q 2591 2978 2328 3040 
Q 2066 3103 1784 3103 
Q 1356 3103 1142 2972 
Q 928 2841 928 2578 
Q 928 2378 1081 2264 
Q 1234 2150 1697 2047 
L 1894 2003 
Q 2506 1872 2764 1633 
Q 3022 1394 3022 966 
Q 3022 478 2636 193 
Q 2250 -91 1575 -91 
Q 1294 -91 989 -36 
Q 684 19 347 128 
L 347 722 
Q 666 556 975 473 
Q 1284 391 1588 391 
Q 1994 391 2212 530 
Q 2431 669 2431 922 
Q 2431 1156 2273 1281 
Q 2116 1406 1581 1522 
L 1381 1569 
Q 847 1681 609 1914 
Q 372 2147 372 2553 
Q 372 3047 722 3315 
Q 1072 3584 1716 3584 
Q 2034 3584 2315 3537 
Q 2597 3491 2834 3397 
z
" transform="scale(0.015625)"/>
      <path id="DejaVuSans-6c" d="M 603 4863 
L 1178 4863 
L 1178 0 
L 603 0 
L 603 4863 
z
" transform="scale(0.015625)"/>
      <path id="DejaVuSans-5f" d="M 3263 -1063 
L 3263 -1509 
L -63 -1509 
L -63 -1063 
L 3263 -1063 
z
" transform="scale(0.015625)"/>
     </defs>
     <use xlink:href="#DejaVuSans-69"/>
     <use xlink:href="#DejaVuSans-70" x="27.783203"/>
     <use xlink:href="#DejaVuSans-73" x="91.259766"/>
     <use xlink:href="#DejaVuSans-6c" x="143.359375"/>
     <use xlink:href="#DejaVuSans-5f" x="171.142578"/>
     <use xlink:href="#DejaVuSans-63" x="221.142578"/>
     <use xlink:href="#DejaVuSans-6d" x="276.123047"/>
     <use xlink:href="#DejaVuSans-36" x="373.535156"/>
     <use xlink:href="#DejaVuSans-61" x="437.158203"/>
     <use xlink:href="#DejaVuSans-5f" x="498.4375"/>
     <use xlink:href="#DejaVuSans-6c" x="548.4375"/>
     <use xlink:href="#DejaVuSans-72" x="576.220703"/>
    </g>
    <!-- mpi_esm1_2_lr -->
    <g transform="translate(990.988313 60.13705) scale(0.08 -0.08)">
     <use xlink:href="#DejaVuSans-6d"/>
     <use xlink:href="#DejaVuSans-70" x="97.412109"/>
     <use xlink:href="#DejaVuSans-69" x="160.888672"/>
     <use xlink:href="#DejaVuSans-5f" x="188.671875"/>
     <use xlink:href="#DejaVuSans-65" x="238.671875"/>
     <use xlink:href="#DejaVuSans-73" x="300.195312"/>
     <use xlink:href="#DejaVuSans-6d" x="352.294922"/>
     <use xlink:href="#DejaVuSans-31" x="449.707031"/>
     <use xlink:href="#DejaVuSans-5f" x="513.330078"/>
     <use xlink:href="#DejaVuSans-32" x="563.330078"/>
     <use xlink:href="#DejaVuSans-5f" x="626.953125"/>
     <use xlink:href="#DejaVuSans-6c" x="676.953125"/>
     <use xlink:href="#DejaVuSans-72" x="704.736328"/>
    </g>
    <!-- ukesm1_0_ll -->
    <g transform="translate(996.362063 69.3178) scale(0.08 -0.08)">
     <defs>
      <path id="DejaVuSans-6b" d="M 581 4863 
L 1159 4863 
L 1159 1991 
L 2875 3500 
L 3609 3500 
L 1753 1863 
L 3688 0 
L 2938 0 
L 1159 1709 
L 1159 0 
L 581 0 
L 581 4863 
z
" transform="scale(0.015625)"/>
     </defs>
     <use xlink:href="#DejaVuSans-75"/>
     <use xlink:href="#DejaVuSans-6b" x="63.378906"/>
     <use xlink:href="#DejaVuSans-65" x="117.664062"/>
     <use xlink:href="#DejaVuSans-73" x="179.1875"/>
     <use xlink:href="#DejaVuSans-6d" x="231.287109"/>
     <use xlink:href="#DejaVuSans-31" x="328.699219"/>
     <use xlink:href="#DejaVuSans-5f" x="392.322266"/>
     <use xlink:href="#DejaVuSans-30" x="442.322266"/>
     <use xlink:href="#DejaVuSans-5f" x="505.945312"/>
     <use xlink:href="#DejaVuSans-6c" x="555.945312"/>
     <use xlink:href="#DejaVuSans-6c" x="583.728516"/>
    </g>
   </g>
   <g id="text_21">
    <g id="patch_8">
     <path d="M 857.094706 519.65995 
L 1120.109706 519.65995 
L 1120.109706 507.11745 
L 857.094706 507.11745 
z
" style="fill: #ffffff"/>
    </g>
    <!-- Data: Copernicus CDS   github:lwieske/climate-and-digitalization -->
    <g transform="translate(859.494706 515.5962) scale(0.08 -0.08)">
     <defs>
      <path id="DejaVuSans-44" d="M 1259 4147 
L 1259 519 
L 2022 519 
Q 2988 519 3436 956 
Q 3884 1394 3884 2338 
Q 3884 3275 3436 3711 
Q 2988 4147 2022 4147 
L 1259 4147 
z
M 628 4666 
L 1925 4666 
Q 3281 4666 3915 4102 
Q 4550 3538 4550 2338 
Q 4550 1131 3912 565 
Q 3275 0 1925 0 
L 628 0 
L 628 4666 
z
" transform="scale(0.015625)"/>
      <path id="DejaVuSans-3a" d="M 750 794 
L 1409 794 
L 1409 0 
L 750 0 
L 750 794 
z
M 750 3309 
L 1409 3309 
L 1409 2516 
L 750 2516 
L 750 3309 
z
" transform="scale(0.015625)"/>
      <path id="DejaVuSans-6f" d="M 1959 3097 
Q 1497 3097 1228 2736 
Q 959 2375 959 1747 
Q 959 1119 1226 758 
Q 1494 397 1959 397 
Q 2419 397 2687 759 
Q 2956 1122 2956 1747 
Q 2956 2369 2687 2733 
Q 2419 3097 1959 3097 
z
M 1959 3584 
Q 2709 3584 3137 3096 
Q 3566 2609 3566 1747 
Q 3566 888 3137 398 
Q 2709 -91 1959 -91 
Q 1206 -91 779 398 
Q 353 888 353 1747 
Q 353 2609 779 3096 
Q 1206 3584 1959 3584 
z
" transform="scale(0.015625)"/>
      <path id="DejaVuSans-6e" d="M 3513 2113 
L 3513 0 
L 2938 0 
L 2938 2094 
Q 2938 2591 2744 2837 
Q 2550 3084 2163 3084 
Q 1697 3084 1428 2787 
Q 1159 2491 1159 1978 
L 1159 0 
L 581 0 
L 581 3500 
L 1159 3500 
L 1159 2956 
Q 1366 3272 1645 3428 
Q 1925 3584 2291 3584 
Q 2894 3584 3203 3211 
Q 3513 2838 3513 2113 
z
" transform="scale(0.015625)"/>
      <path id="DejaVuSans-67" d="M 2906 1791 
Q 2906 2416 2648 2759 
Q 2391 3103 1925 3103 
Q 1463 3103 1205 2759 
Q 947 2416 947 1791 
Q 947 1169 1205 825 
Q 1463 481 1925 481 
Q 2391 481 2648 825 
Q 2906 1169 2906 1791 
z
M 3481 434 
Q 3481 -459 3084 -895 
Q 2688 -1331 1869 -1331 
Q 1566 -1331 1297 -1286 
Q 1028 -1241 775 -1147 
L 775 -588 
Q 1028 -725 1275 -790 
Q 1522 -856 1778 -856 
Q 2344 -856 2625 -561 
Q 2906 -266 2906 331 
L 2906 616 
Q 2728 306 2450 153 
Q 2172 0 1784 0 
Q 1141 0 747 490 
Q 353 981 353 1791 
Q 353 2603 747 3093 
Q 1141 3584 1784 3584 
Q 2172 3584 2450 3431 
Q 2728 3278 2906 2969 
L 2906 3500 
L 3481 3500 
L 3481 434 
z
" transform="scale(0.015625)"/>
      <path id="DejaVuSans-68" d="M 3513 2113 
L 3513 0 
L 2938 0 
L 2938 2094 
Q 2938 2591 2744 2837 
Q 2550 3084 2163 3084 
Q 1697 3084 1428 2787 
Q 1159 2491 1159 1978 
L 1159 0 
L 581 0 
L 581 4863 
L 1159 4863 
L 1159 2956 
Q 1366 3272 1645 3428 
Q 1925 3584 2291 3584 
Q 2894 3584 3203 3211 
Q 3513 2838 3513 2113 
z
" transform="scale(0.015625)"/>
      <path id="DejaVuSans-62" d="M 3116 1747 
Q 3116 2381 2855 2742 
Q 2594 3103 2138 3103 
Q 1681 3103 1420 2742 
Q 1159 2381 1159 1747 
Q 1159 1113 1420 752 
Q 1681 391 2138 391 
Q 2594 391 2855 752 
Q 3116 1113 3116 1747 
z
M 1159 2969 
Q 1341 3281 1617 3432 
Q 1894 3584 2278 3584 
Q 2916 3584 3314 3078 
Q 3713 2572 3713 1747 
Q 3713 922 3314 415 
Q 2916 -91 2278 -91 
Q 1894 -91 1617 61 
Q 1341 213 1159 525 
L 1159 0 
L 581 0 
L 581 4863 
L 1159 4863 
L 1159 2969 
z
" transform="scale(0.015625)"/>
      <path id="DejaVuSans-77" d="M 269 3500 
L 844 3500 
L 1563 769 
L 2278 3500 
L 2956 3500 
L 3675 769 
L 4391 3500 
L 4966 3500 
L 4050 0 
L 3372 0 
L 2619 2869 
L 1863 0 
L 1184 0 
L 269 3500 
z
" transform="scale(0.015625)"/>
      <path id="DejaVuSans-2f" d="M 1625 4666 
L 2156 4666 
L 531 -594 
L 0 -594 
L 1625 4666 
z
" transform="scale(0.015625)"/>
      <path id="DejaVuSans-2d" d="M 313 2009 
L 1997 2009 
L 1997 1497 
L 313 1497 
L 313 2009 
z
" transform="scale(0.015625)"/>
      <path id="DejaVuSans-64" d="M 2906 2969 
L 2906 4863 
L 3481 4863 
L 3481 0 
L 2906 0 
L 2906 525 
Q 2725 213 2448 61 
Q 2172 -91 1784 -91 
Q 1150 -91 751 415 
Q 353 922 353 1747 
Q 353 2572 751 3078 
Q 1150 3584 1784 3584 
Q 2172 3584 2448 3432 
Q 2725 3281 2906 2969 
z
M 947 1747 
Q 947 1113 1208 752 
Q 1469 391 1925 391 
Q 2381 391 2643 752 
Q 2906 1113 2906 1747 
Q 2906 2381 2643 2742 
Q 2381 3103 1925 3103 
Q 1469 3103 1208 2742 
Q 947 2381 947 1747 
z
" transform="scale(0.015625)"/>
      <path id="DejaVuSans-7a" d="M 353 3500 
L 3084 3500 
L 3084 2975 
L 922 459 
L 3084 459 
L 3084 0 
L 275 0 
L 275 525 
L 2438 3041 
L 353 3041 
L 353 3500 
z
" transform="scale(0.015625)"/>
     </defs>
     <use xlink:href="#DejaVuSans-44"/>
     <use xlink:href="#DejaVuSans-61" x="77.001953"/>
     <use xlink:href="#DejaVuSans-74" x="138.28125"/>
     <use xlink:href="#DejaVuSans-61" x="177.490234"/>
     <use xlink:href="#DejaVuSans-3a" x="238.769531"/>
     <use xlink:href="#DejaVuSans-20" x="272.460938"/>
     <use xlink:href="#DejaVuSans-43" x="304.248047"/>
     <use xlink:href="#DejaVuSans-6f" x="374.072266"/>
     <use xlink:href="#DejaVuSans-70" x="435.253906"/>
     <use xlink:href="#DejaVuSans-65" x="498.730469"/>
     <use xlink:href="#DejaVuSans-72" x="560.253906"/>
     <use xlink:href="#DejaVuSans-6e" x="599.617188"/>
     <use xlink:href="#DejaVuSans-69" x="662.996094"/>
     <use xlink:href="#DejaVuSans-63" x="690.779297"/>
     <use xlink:href="#DejaVuSans-75" x="745.759766"/>
     <use xlink:href="#DejaVuSans-73" x="809.138672"/>
     <use xlink:href="#DejaVuSans-20" x="861.238281"/>
     <use xlink:href="#DejaVuSans-43" x="893.025391"/>
     <use xlink:href="#DejaVuSans-44" x="962.849609"/>
     <use xlink:href="#DejaVuSans-53" x="1039.851562"/>
     <use xlink:href="#DejaVuSans-20" x="1103.328125"/>
     <use xlink:href="#DejaVuSans-20" x="1135.115234"/>
     <use xlink:href="#DejaVuSans-20" x="1166.902344"/>
     <use xlink:href="#DejaVuSans-67" x="1198.689453"/>
     <use xlink:href="#DejaVuSans-69" x="1262.166016"/>
     <use xlink:href="#DejaVuSans-74" x="1289.949219"/>
     <use xlink:href="#DejaVuSans-68" x="1329.158203"/>
     <use xlink:href="#DejaVuSans-75" x="1392.537109"/>
     <use xlink:href="#DejaVuSans-62" x="1455.916016"/>
     <use xlink:href="#DejaVuSans-3a" x="1519.392578"/>
     <use xlink:href="#DejaVuSans-6c" x="1553.083984"/>
     <use xlink:href="#DejaVuSans-77" x="1580.867188"/>
     <use xlink:href="#DejaVuSans-69" x="1662.654297"/>
     <use xlink:href="#DejaVuSans-65" x="1690.4375"/>
     <use xlink:href="#DejaVuSans-73" x="1751.960938"/>
     <use xlink:href="#DejaVuSans-6b" x="1804.060547"/>
     <use xlink:href="#DejaVuSans-65" x="1858.345703"/>
     <use xlink:href="#DejaVuSans-2f" x="1919.869141"/>
     <use xlink:href="#DejaVuSans-63" x="1953.560547"/>
     <use xlink:href="#DejaVuSans-6c" x="2008.541016"/>
     <use xlink:href="#DejaVuSans-69" x="2036.324219"/>
     <use xlink:href="#DejaVuSans-6d" x="2064.107422"/>
     <use xlink:href="#DejaVuSans-61" x="2161.519531"/>
     <use xlink:href="#DejaVuSans-74" x="2222.798828"/>
     <use xlink:href="#DejaVuSans-65" x="2262.007812"/>
     <use xlink:href="#DejaVuSans-2d" x="2323.53125"/>
     <use xlink:href="#DejaVuSans-61" x="2359.615234"/>
     <use xlink:href="#DejaVuSans-6e" x="2420.894531"/>
     <use xlink:href="#DejaVuSans-64" x="2484.273438"/>
     <use xlink:href="#DejaVuSans-2d" x="2547.75"/>
     <use xlink:href="#DejaVuSans-64" x="2583.833984"/>
     <use xlink:href="#DejaVuSans-69" x="2647.310547"/>
     <use xlink:href="#DejaVuSans-67" x="2675.09375"/>
     <use xlink:href="#DejaVuSans-69" x="2738.570312"/>
     <use xlink:href="#DejaVuSans-74" x="2766.353516"/>
     <use xlink:href="#DejaVuSans-61" x="2805.5625"/>
     <use xlink:href="#DejaVuSans-6c" x="2866.841797"/>
     <use xlink:href="#DejaVuSans-69" x="2894.625"/>
     <use xlink:href="#DejaVuSans-7a" x="2922.408203"/>
     <use xlink:href="#DejaVuSans-61" x="2974.898438"/>
     <use xlink:href="#DejaVuSans-74" x="3036.177734"/>
     <use xlink:href="#DejaVuSans-69" x="3075.386719"/>
     <use xlink:href="#DejaVuSans-6f" x="3103.169922"/>
     <use xlink:href="#DejaVuSans-6e" x="3164.351562"/>
    </g>
   </g>
   <g id="text_22">
    <!-- CMIP6 Projection: Ensemble Mean Surface Air Temperature 1850 to 2100 -->
    <g transform="translate(152.499063 29.03625) scale(0.24 -0.24)">
     <defs>
      <path id="DejaVuSans-4d" d="M 628 4666 
L 1569 4666 
L 2759 1491 
L 3956 4666 
L 4897 4666 
L 4897 0 
L 4281 0 
L 4281 4097 
L 3078 897 
L 2444 897 
L 1241 4097 
L 1241 0 
L 628 0 
L 628 4666 
z
" transform="scale(0.015625)"/>
      <path id="DejaVuSans-49" d="M 628 4666 
L 1259 4666 
L 1259 0 
L 628 0 
L 628 4666 
z
" transform="scale(0.015625)"/>
      <path id="DejaVuSans-50" d="M 1259 4147 
L 1259 2394 
L 2053 2394 
Q 2494 2394 2734 2622 
Q 2975 2850 2975 3272 
Q 2975 3691 2734 3919 
Q 2494 4147 2053 4147 
L 1259 4147 
z
M 628 4666 
L 2053 4666 
Q 2838 4666 3239 4311 
Q 3641 3956 3641 3272 
Q 3641 2581 3239 2228 
Q 2838 1875 2053 1875 
L 1259 1875 
L 1259 0 
L 628 0 
L 628 4666 
z
" transform="scale(0.015625)"/>
      <path id="DejaVuSans-6a" d="M 603 3500 
L 1178 3500 
L 1178 -63 
Q 1178 -731 923 -1031 
Q 669 -1331 103 -1331 
L -116 -1331 
L -116 -844 
L 38 -844 
Q 366 -844 484 -692 
Q 603 -541 603 -63 
L 603 3500 
z
M 603 4863 
L 1178 4863 
L 1178 4134 
L 603 4134 
L 603 4863 
z
" transform="scale(0.015625)"/>
      <path id="DejaVuSans-45" d="M 628 4666 
L 3578 4666 
L 3578 4134 
L 1259 4134 
L 1259 2753 
L 3481 2753 
L 3481 2222 
L 1259 2222 
L 1259 531 
L 3634 531 
L 3634 0 
L 628 0 
L 628 4666 
z
" transform="scale(0.015625)"/>
     </defs>
     <use xlink:href="#DejaVuSans-43"/>
     <use xlink:href="#DejaVuSans-4d" x="69.824219"/>
     <use xlink:href="#DejaVuSans-49" x="156.103516"/>
     <use xlink:href="#DejaVuSans-50" x="185.595703"/>
     <use xlink:href="#DejaVuSans-36" x="245.898438"/>
     <use xlink:href="#DejaVuSans-20" x="309.521484"/>
     <use xlink:href="#DejaVuSans-50" x="341.308594"/>
     <use xlink:href="#DejaVuSans-72" x="399.861328"/>
     <use xlink:href="#DejaVuSans-6f" x="438.724609"/>
     <use xlink:href="#DejaVuSans-6a" x="499.90625"/>
     <use xlink:href="#DejaVuSans-65" x="527.689453"/>
     <use xlink:href="#DejaVuSans-63" x="589.212891"/>
     <use xlink:href="#DejaVuSans-74" x="644.193359"/>
     <use xlink:href="#DejaVuSans-69" x="683.402344"/>
     <use xlink:href="#DejaVuSans-6f" x="711.185547"/>
     <use xlink:href="#DejaVuSans-6e" x="772.367188"/>
     <use xlink:href="#DejaVuSans-3a" x="835.746094"/>
     <use xlink:href="#DejaVuSans-20" x="869.4375"/>
     <use xlink:href="#DejaVuSans-45" x="901.224609"/>
     <use xlink:href="#DejaVuSans-6e" x="964.408203"/>
     <use xlink:href="#DejaVuSans-73" x="1027.787109"/>
     <use xlink:href="#DejaVuSans-65" x="1079.886719"/>
     <use xlink:href="#DejaVuSans-6d" x="1141.410156"/>
     <use xlink:href="#DejaVuSans-62" x="1238.822266"/>
     <use xlink:href="#DejaVuSans-6c" x="1302.298828"/>
     <use xlink:href="#DejaVuSans-65" x="1330.082031"/>
     <use xlink:href="#DejaVuSans-20" x="1391.605469"/>
     <use xlink:href="#DejaVuSans-4d" x="1423.392578"/>
     <use xlink:href="#DejaVuSans-65" x="1509.671875"/>
     <use xlink:href="#DejaVuSans-61" x="1571.195312"/>
     <use xlink:href="#DejaVuSans-6e" x="1632.474609"/>
     <use xlink:href="#DejaVuSans-20" x="1695.853516"/>
     <use xlink:href="#DejaVuSans-53" x="1727.640625"/>
     <use xlink:href="#DejaVuSans-75" x="1791.117188"/>
     <use xlink:href="#DejaVuSans-72" x="1854.496094"/>
     <use xlink:href="#DejaVuSans-66" x="1895.609375"/>
     <use xlink:href="#DejaVuSans-61" x="1930.814453"/>
     <use xlink:href="#DejaVuSans-63" x="1992.09375"/>
     <use xlink:href="#DejaVuSans-65" x="2047.074219"/>
     <use xlink:href="#DejaVuSans-20" x="2108.597656"/>
     <use xlink:href="#DejaVuSans-41" x="2140.384766"/>
     <use xlink:href="#DejaVuSans-69" x="2208.792969"/>
     <use xlink:href="#DejaVuSans-72" x="2236.576172"/>
     <use xlink:href="#DejaVuSans-20" x="2277.689453"/>
     <use xlink:href="#DejaVuSans-54" x="2309.476562"/>
     <use xlink:href="#DejaVuSans-65" x="2353.560547"/>
     <use xlink:href="#DejaVuSans-6d" x="2415.083984"/>
     <use xlink:href="#DejaVuSans-70" x="2512.496094"/>
     <use xlink:href="#DejaVuSans-65" x="2575.972656"/>
     <use xlink:href="#DejaVuSans-72" x="2637.496094"/>
     <use xlink:href="#DejaVuSans-61" x="2678.609375"/>
     <use xlink:href="#DejaVuSans-74" x="2739.888672"/>
     <use xlink:href="#DejaVuSans-75" x="2779.097656"/>
     <use xlink:href="#DejaVuSans-72" x="2842.476562"/>
     <use xlink:href="#DejaVuSans-65" x="2881.339844"/>
     <use xlink:href="#DejaVuSans-20" x="2942.863281"/>
     <use xlink:href="#DejaVuSans-31" x="2974.650391"/>
     <use xlink:href="#DejaVuSans-38" x="3038.273438"/>
     <use xlink:href="#DejaVuSans-35" x="3101.896484"/>
     <use xlink:href="#DejaVuSans-30" x="3165.519531"/>
     <use xlink:href="#DejaVuSans-20" x="3229.142578"/>
     <use xlink:href="#DejaVuSans-74" x="3260.929688"/>
     <use xlink:href="#DejaVuSans-6f" x="3300.138672"/>
     <use xlink:href="#DejaVuSans-20" x="3361.320312"/>
     <use xlink:href="#DejaVuSans-32" x="3393.107422"/>
     <use xlink:href="#DejaVuSans-31" x="3456.730469"/>
     <use xlink:href="#DejaVuSans-30" x="3520.353516"/>
     <use xlink:href="#DejaVuSans-30" x="3583.976562"/>
    </g>
   </g>
   <g id="legend_1">
    <g id="patch_9">
     <path d="M 58.945625 116.426875 
L 168.140938 116.426875 
Q 170.140938 116.426875 170.140938 114.426875 
L 170.140938 42.03625 
Q 170.140938 40.03625 168.140938 40.03625 
L 58.945625 40.03625 
Q 56.945625 40.03625 56.945625 42.03625 
L 56.945625 114.426875 
Q 56.945625 116.426875 58.945625 116.426875 
z
" style="fill: #ffffff; opacity: 0.8; stroke: #cccccc; stroke-linejoin: miter"/>
    </g>
    <g id="line2d_39">
     <path d="M 60.945625 48.134688 
L 70.945625 48.134688 
L 80.945625 48.134688 
" style="fill: none; stroke: #000000; stroke-width: 1.5; stroke-linecap: square"/>
    </g>
    <g id="text_23">
     <!-- historical mean -->
     <g transform="translate(88.945625 51.634688) scale(0.1 -0.1)">
      <use xlink:href="#DejaVuSans-68"/>
      <use xlink:href="#DejaVuSans-69" x="63.378906"/>
      <use xlink:href="#DejaVuSans-73" x="91.162109"/>
      <use xlink:href="#DejaVuSans-74" x="143.261719"/>
      <use xlink:href="#DejaVuSans-6f" x="182.470703"/>
      <use xlink:href="#DejaVuSans-72" x="243.652344"/>
      <use xlink:href="#DejaVuSans-69" x="284.765625"/>
      <use xlink:href="#DejaVuSans-63" x="312.548828"/>
      <use xlink:href="#DejaVuSans-61" x="367.529297"/>
      <use xlink:href="#DejaVuSans-6c" x="428.808594"/>
      <use xlink:href="#DejaVuSans-20" x="456.591797"/>
      <use xlink:href="#DejaVuSans-6d" x="488.378906"/>
      <use xlink:href="#DejaVuSans-65" x="585.791016"/>
      <use xlink:href="#DejaVuSans-61" x="647.314453"/>
      <use xlink:href="#DejaVuSans-6e" x="708.59375"/>
     </g>
    </g>
    <g id="line2d_40">
     <path d="M 60.945625 62.812813 
L 70.945625 62.812813 
L 80.945625 62.812813 
" style="fill: none; stroke: #173c66; stroke-width: 1.5; stroke-linecap: square"/>
    </g>
    <g id="text_24">
     <!-- ssp126 mean -->
     <g transform="translate(88.945625 66.312813) scale(0.1 -0.1)">
      <use xlink:href="#DejaVuSans-73"/>
      <use xlink:href="#DejaVuSans-73" x="52.099609"/>
      <use xlink:href="#DejaVuSans-70" x="104.199219"/>
      <use xlink:href="#DejaVuSans-31" x="167.675781"/>
      <use xlink:href="#DejaVuSans-32" x="231.298828"/>
      <use xlink:href="#DejaVuSans-36" x="294.921875"/>
      <use xlink:href="#DejaVuSans-20" x="358.544922"/>
      <use xlink:href="#DejaVuSans-6d" x="390.332031"/>
      <use xlink:href="#DejaVuSans-65" x="487.744141"/>
      <use xlink:href="#DejaVuSans-61" x="549.267578"/>
      <use xlink:href="#DejaVuSans-6e" x="610.546875"/>
     </g>
    </g>
    <g id="line2d_41">
     <path d="M 60.945625 77.490938 
L 70.945625 77.490938 
L 80.945625 77.490938 
" style="fill: none; stroke: #f79420; stroke-width: 1.5; stroke-linecap: square"/>
    </g>
    <g id="text_25">
     <!-- ssp245 mean -->
     <g transform="translate(88.945625 80.990938) scale(0.1 -0.1)">
      <use xlink:href="#DejaVuSans-73"/>
      <use xlink:href="#DejaVuSans-73" x="52.099609"/>
      <use xlink:href="#DejaVuSans-70" x="104.199219"/>
      <use xlink:href="#DejaVuSans-32" x="167.675781"/>
      <use xlink:href="#DejaVuSans-34" x="231.298828"/>
      <use xlink:href="#DejaVuSans-35" x="294.921875"/>
      <use xlink:href="#DejaVuSans-20" x="358.544922"/>
      <use xlink:href="#DejaVuSans-6d" x="390.332031"/>
      <use xlink:href="#DejaVuSans-65" x="487.744141"/>
      <use xlink:href="#DejaVuSans-61" x="549.267578"/>
      <use xlink:href="#DejaVuSans-6e" x="610.546875"/>
     </g>
    </g>
    <g id="line2d_42">
     <path d="M 60.945625 92.169063 
L 70.945625 92.169063 
L 80.945625 92.169063 
" style="fill: none; stroke: #e71d25; stroke-width: 1.5; stroke-linecap: square"/>
    </g>
    <g id="text_26">
     <!-- ssp370 mean -->
     <g transform="translate(88.945625 95.669063) scale(0.1 -0.1)">
      <use xlink:href="#DejaVuSans-73"/>
      <use xlink:href="#DejaVuSans-73" x="52.099609"/>
      <use xlink:href="#DejaVuSans-70" x="104.199219"/>
      <use xlink:href="#DejaVuSans-33" x="167.675781"/>
      <use xlink:href="#DejaVuSans-37" x="231.298828"/>
      <use xlink:href="#DejaVuSans-30" x="294.921875"/>
      <use xlink:href="#DejaVuSans-20" x="358.544922"/>
      <use xlink:href="#DejaVuSans-6d" x="390.332031"/>
      <use xlink:href="#DejaVuSans-65" x="487.744141"/>
      <use xlink:href="#DejaVuSans-61" x="549.267578"/>
      <use xlink:href="#DejaVuSans-6e" x="610.546875"/>
     </g>
    </g>
    <g id="line2d_43">
     <path d="M 60.945625 106.847188 
L 70.945625 106.847188 
L 80.945625 106.847188 
" style="fill: none; stroke: #951b1e; stroke-width: 1.5; stroke-linecap: square"/>
    </g>
    <g id="text_27">
     <!-- ssp585 mean -->
     <g transform="translate(88.945625 110.347188) scale(0.1 -0.1)">
      <use xlink:href="#DejaVuSans-73"/>
      <use xlink:href="#DejaVuSans-73" x="52.099609"/>
      <use xlink:href="#DejaVuSans-70" x="104.199219"/>
      <use xlink:href="#DejaVuSans-35" x="167.675781"/>
      <use xlink:href="#DejaVuSans-38" x="231.298828"/>
      <use xlink:href="#DejaVuSans-35" x="294.921875"/>
      <use xlink:href="#DejaVuSans-20" x="358.544922"/>
      <use xlink:href="#DejaVuSans-6d" x="390.332031"/>
      <use xlink:href="#DejaVuSans-65" x="487.744141"/>
      <use xlink:href="#DejaVuSans-61" x="549.267578"/>
      <use xlink:href="#DejaVuSans-6e" x="610.546875"/>
     </g>
    </g>
   </g>
  </g>
 </g>
 <defs>
  <clipPath id="pb19fafa444">
   <rect x="51.945625" y="35.03625" width="1076.529375" height="492.065"/>
  </clipPath>
 </defs>
</svg>
