<?xml version="1.0" encoding="utf-8" standalone="no"?>
<!DOCTYPE svg PUBLIC "-//W3C//DTD SVG 1.1//EN"
  "http://www.w3.org/Graphics/SVG/1.1/DTD/svg11.dtd">
<svg xmlns:xlink="http://www.w3.org/1999/xlink" width="1152pt" height="648pt" viewBox="0 0 1152 648" xmlns="http://www.w3.org/2000/svg" version="1.1">
 <metadata>
  <rdf:RDF xmlns:dc="http://purl.org/dc/elements/1.1/" xmlns:cc="http://creativecommons.org/ns#" xmlns:rdf="http://www.w3.org/1999/02/22-rdf-syntax-ns#">
   <cc:Work>
    <dc:type rdf:resource="http://purl.org/dc/dcmitype/StillImage"/>
    <dc:date>2023-10-18T06:46:15.029022</dc:date>
    <dc:format>image/svg+xml</dc:format>
    <dc:creator>
     <cc:Agent>
      <dc:title>Matplotlib v3.7.2, https://matplotlib.org/</dc:title>
     </cc:Agent>
    </dc:creator>
   </cc:Work>
  </rdf:RDF>
 </metadata>
 <defs>
  <style type="text/css">*{stroke-linejoin: round; stroke-linecap: butt}</style>
 </defs>
 <g id="figure_1">
  <g id="patch_1">
   <path d="M 0 648 
L 1152 648 
L 1152 0 
L 0 0 
z
" style="fill: #ffffff"/>
  </g>
  <g id="axes_1">
   <g id="patch_2">
    <path d="M 144 576.72 
L 1036.8 576.72 
L 1036.8 77.76 
L 144 77.76 
z
" style="fill: #ffffff"/>
   </g>
   <g id="PolyCollection_1">
    <defs>
     <path id="m6ca8786d8c" d="M 184.581818 -193.103609 
L 184.581818 -124.628638 
L 189.273358 -160.021882 
L 193.964898 -160.517946 
L 198.656437 -156.401145 
L 203.347977 -155.839398 
L 208.039517 -154.53535 
L 212.731056 -148.800212 
L 217.422596 -119.216087 
L 222.114136 -135.070266 
L 226.805675 -157.630487 
L 231.497215 -134.653024 
L 236.188755 -123.026557 
L 240.880294 -101.774952 
L 245.571834 -135.613442 
L 250.263374 -112.874258 
L 254.954913 -137.511865 
L 259.646453 -138.073564 
L 264.337993 -131.841775 
L 269.029532 -136.512815 
L 273.721072 -147.137769 
L 278.412612 -148.684403 
L 283.104151 -139.608155 
L 287.795691 -149.800112 
L 292.487231 -147.912786 
L 297.17877 -141.006581 
L 301.87031 -139.62977 
L 306.56185 -129.884052 
L 311.253389 -196.355732 
L 315.944929 -216.036198 
L 320.636469 -155.591834 
L 325.328008 -154.377042 
L 330.019548 -170.786034 
L 334.711088 -158.368892 
L 339.402627 -150.252289 
L 344.094167 -121.941119 
L 348.785707 -125.853046 
L 353.477246 -137.933865 
L 358.168786 -119.168646 
L 362.860326 -143.764598 
L 367.551865 -167.934787 
L 372.243405 -116.005312 
L 376.934945 -134.973695 
L 381.626484 -113.626464 
L 386.318024 -116.180566 
L 391.009564 -117.370746 
L 395.701104 -126.062122 
L 400.392643 -158.917468 
L 405.084183 -162.685065 
L 409.775723 -118.951231 
L 414.467262 -145.147082 
L 419.158802 -168.983268 
L 423.850342 -156.468098 
L 428.541881 -127.377887 
L 433.233421 -110.33516 
L 437.924961 -96.760824 
L 442.6165 -135.440881 
L 447.30804 -152.306777 
L 451.99958 -117.228302 
L 456.691119 -114.993269 
L 461.382659 -111.969703 
L 466.074199 -111.359535 
L 470.765738 -110.051675 
L 475.457278 -124.603071 
L 480.148818 -124.594209 
L 484.840357 -165.830669 
L 489.531897 -177.965677 
L 494.223437 -130.677809 
L 498.914976 -104.088211 
L 503.606516 -126.069866 
L 508.298056 -146.13279 
L 512.989595 -152.690677 
L 517.681135 -166.032261 
L 522.372675 -149.197382 
L 527.064214 -153.574305 
L 531.755754 -154.640343 
L 536.447294 -159.441576 
L 541.138833 -191.799697 
L 545.830373 -172.098904 
L 550.521913 -174.60147 
L 555.213452 -137.129689 
L 559.904992 -184.262652 
L 564.596532 -199.774289 
L 569.288071 -191.937913 
L 573.979611 -156.981723 
L 578.671151 -187.537325 
L 583.36269 -181.650916 
L 588.05423 -189.629901 
L 592.74577 -218.322199 
L 597.43731 -220.209268 
L 602.128849 -212.944226 
L 606.820389 -233.851648 
L 611.511929 -209.840853 
L 616.203468 -203.262858 
L 620.895008 -202.388965 
L 625.586548 -231.347833 
L 630.278087 -210.832981 
L 634.969627 -189.143288 
L 639.661167 -195.962472 
L 644.352706 -190.505255 
L 649.044246 -191.514325 
L 653.735786 -175.831119 
L 658.427325 -212.216627 
L 663.118865 -225.671437 
L 667.810405 -238.126746 
L 672.501944 -200.610324 
L 677.193484 -185.456458 
L 681.885024 -174.54008 
L 686.576563 -222.152242 
L 691.268103 -225.643777 
L 695.959643 -220.197291 
L 700.651182 -207.463408 
L 705.342722 -228.09747 
L 710.034262 -218.810046 
L 714.725801 -224.14779 
L 719.417341 -172.471092 
L 724.108881 -191.614902 
L 728.80042 -202.628218 
L 733.49196 -210.165991 
L 738.1835 -199.662217 
L 742.875039 -227.880937 
L 747.566579 -217.060387 
L 752.258119 -193.424432 
L 756.949658 -215.935535 
L 761.641198 -244.912232 
L 766.332738 -200.26683 
L 771.024277 -212.026048 
L 775.715817 -191.153821 
L 780.407357 -254.210487 
L 785.098896 -235.32314 
L 789.790436 -254.669912 
L 794.481976 -274.717203 
L 799.173516 -286.011114 
L 803.865055 -241.20532 
L 808.556595 -279.760694 
L 813.248135 -244.531467 
L 817.939674 -245.350307 
L 822.631214 -255.078936 
L 827.322754 -284.572964 
L 832.014293 -291.528423 
L 836.705833 -271.063694 
L 841.397373 -306.999569 
L 846.088912 -302.904884 
L 850.780452 -260.362734 
L 855.471992 -267.805435 
L 860.163531 -281.824177 
L 864.855071 -310.812322 
L 869.546611 -290.758974 
L 874.23815 -320.080015 
L 878.92969 -350.607053 
L 883.62123 -300.669262 
L 888.312769 -301.745642 
L 893.004309 -333.647233 
L 897.695849 -344.567184 
L 902.387388 -344.259972 
L 907.078928 -328.91111 
L 911.770468 -357.125696 
L 916.462007 -350.393268 
L 921.153547 -354.261236 
L 925.845087 -328.57561 
L 930.536626 -355.040111 
L 935.228166 -371.769314 
L 939.919706 -343.213873 
L 944.611245 -350.968529 
L 949.302785 -359.67608 
L 953.994325 -369.739319 
L 958.685864 -400.152366 
L 963.377404 -422.201708 
L 968.068944 -404.840133 
L 972.760483 -388.130412 
L 977.452023 -413.225158 
L 982.143563 -419.497053 
L 986.835102 -387.011017 
L 991.526642 -394.956005 
L 996.218182 -419.445313 
L 996.218182 -451.402651 
L 996.218182 -451.402651 
L 991.526642 -409.339225 
L 986.835102 -401.545738 
L 982.143563 -433.300961 
L 977.452023 -426.910768 
L 972.760483 -400.744925 
L 968.068944 -416.974641 
L 963.377404 -434.641198 
L 958.685864 -413.655149 
L 953.994325 -383.297764 
L 949.302785 -373.683504 
L 944.611245 -364.042 
L 939.919706 -355.866121 
L 935.228166 -384.261456 
L 930.536626 -367.624293 
L 925.845087 -341.745166 
L 921.153547 -366.375257 
L 916.462007 -362.5997 
L 911.770468 -369.562673 
L 907.078928 -342.096582 
L 902.387388 -357.403597 
L 897.695849 -356.815514 
L 893.004309 -346.106084 
L 888.312769 -314.861064 
L 883.62123 -313.303009 
L 878.92969 -364.287468 
L 874.23815 -332.940286 
L 869.546611 -304.134843 
L 864.855071 -324.068849 
L 860.163531 -295.849676 
L 855.471992 -282.768381 
L 850.780452 -273.940328 
L 846.088912 -316.820026 
L 841.397373 -321.373691 
L 836.705833 -284.935534 
L 832.014293 -305.545778 
L 827.322754 -296.883656 
L 822.631214 -267.564501 
L 817.939674 -258.948488 
L 813.248135 -259.078737 
L 808.556595 -294.036774 
L 803.865055 -256.919763 
L 799.173516 -298.23395 
L 794.481976 -287.996752 
L 789.790436 -266.046006 
L 785.098896 -251.223054 
L 780.407357 -271.387411 
L 775.715817 -207.12937 
L 771.024277 -228.212664 
L 766.332738 -215.310047 
L 761.641198 -259.467824 
L 756.949658 -231.059947 
L 752.258119 -208.822064 
L 747.566579 -233.416054 
L 742.875039 -244.046733 
L 738.1835 -217.473425 
L 733.49196 -227.373517 
L 728.80042 -222.390078 
L 724.108881 -211.248249 
L 719.417341 -189.88495 
L 714.725801 -245.608733 
L 710.034262 -240.069729 
L 705.342722 -248.368472 
L 700.651182 -230.886126 
L 695.959643 -245.088978 
L 691.268103 -251.766131 
L 686.576563 -248.191445 
L 681.885024 -204.860893 
L 677.193484 -220.231988 
L 672.501944 -237.234986 
L 667.810405 -277.30922 
L 663.118865 -264.905871 
L 658.427325 -247.820923 
L 653.735786 -218.156969 
L 649.044246 -235.532679 
L 644.352706 -244.182217 
L 639.661167 -252.079449 
L 634.969627 -247.878702 
L 630.278087 -290.814772 
L 625.586548 -310.622584 
L 620.895008 -284.619585 
L 616.203468 -281.746665 
L 611.511929 -289.827418 
L 606.820389 -280.907768 
L 602.128849 -255.219109 
L 597.43731 -259.368848 
L 592.74577 -258.462461 
L 588.05423 -227.151025 
L 583.36269 -220.545094 
L 578.671151 -227.321244 
L 573.979611 -198.796962 
L 569.288071 -234.4467 
L 564.596532 -243.400926 
L 559.904992 -229.610548 
L 555.213452 -190.542687 
L 550.521913 -227.314194 
L 545.830373 -220.778192 
L 541.138833 -243.616575 
L 536.447294 -212.271554 
L 531.755754 -205.242661 
L 527.064214 -203.966251 
L 522.372675 -199.841864 
L 517.681135 -222.345429 
L 512.989595 -212.573689 
L 508.298056 -208.379014 
L 503.606516 -188.897915 
L 498.914976 -163.60402 
L 494.223437 -186.036068 
L 489.531897 -229.904629 
L 484.840357 -213.799097 
L 480.148818 -173.381704 
L 475.457278 -169.971731 
L 470.765738 -159.163156 
L 466.074199 -161.120848 
L 461.382659 -158.61836 
L 456.691119 -164.334238 
L 451.99958 -165.976325 
L 447.30804 -204.751281 
L 442.6165 -186.246094 
L 437.924961 -149.160036 
L 433.233421 -161.226266 
L 428.541881 -181.841902 
L 423.850342 -210.852869 
L 419.158802 -221.868459 
L 414.467262 -197.423437 
L 409.775723 -171.58436 
L 405.084183 -218.059283 
L 400.392643 -212.164168 
L 395.701104 -179.25885 
L 391.009564 -173.974436 
L 386.318024 -170.831531 
L 381.626484 -168.220677 
L 376.934945 -189.282487 
L 372.243405 -166.121393 
L 367.551865 -216.763164 
L 362.860326 -189.24775 
L 358.168786 -166.18029 
L 353.477246 -178.503139 
L 348.785707 -170.537756 
L 344.094167 -165.988721 
L 339.402627 -195.894474 
L 334.711088 -208.113216 
L 330.019548 -220.957247 
L 325.328008 -204.001157 
L 320.636469 -207.655322 
L 315.944929 -263.895397 
L 311.253389 -247.733116 
L 306.56185 -185.273098 
L 301.87031 -194.880639 
L 297.17877 -194.451743 
L 292.487231 -200.286527 
L 287.795691 -203.70429 
L 283.104151 -197.714484 
L 278.412612 -204.880314 
L 273.721072 -210.9457 
L 269.029532 -207.443997 
L 264.337993 -210.118143 
L 259.646453 -210.154359 
L 254.954913 -214.177963 
L 250.263374 -185.786564 
L 245.571834 -211.38403 
L 240.880294 -168.560499 
L 236.188755 -190.068012 
L 231.497215 -194.053782 
L 226.805675 -214.573548 
L 222.114136 -194.195174 
L 217.422596 -178.728887 
L 212.731056 -207.773097 
L 208.039517 -211.37949 
L 203.347977 -212.199485 
L 198.656437 -220.130273 
L 193.964898 -232.361542 
L 189.273358 -231.280602 
L 184.581818 -193.103609 
z
" style="stroke: #d3d3d3"/>
    </defs>
    <g clip-path="url(#p3f4ab8b481)">
     <use xlink:href="#m6ca8786d8c" x="0" y="648" style="fill: #d3d3d3; stroke: #d3d3d3"/>
    </g>
   </g>
   <g id="matplotlib.axis_1">
    <g id="xtick_1">
     <g id="line2d_1">
      <path d="M 184.581818 576.72 
L 184.581818 77.76 
" clip-path="url(#p3f4ab8b481)" style="fill: none; stroke: #b0b0b0; stroke-width: 0.8; stroke-linecap: square"/>
     </g>
     <g id="line2d_2">
      <defs>
       <path id="mbcc8b0fc61" d="M 0 0 
L 0 3.5 
" style="stroke: #000000; stroke-width: 0.8"/>
      </defs>
      <g>
       <use xlink:href="#mbcc8b0fc61" x="184.581818" y="576.72" style="stroke: #000000; stroke-width: 0.8"/>
      </g>
     </g>
     <g id="text_1">
      <!-- 1850 -->
      <g transform="translate(171.856818 591.318438) scale(0.1 -0.1)">
       <defs>
        <path id="DejaVuSans-31" d="M 794 531 
L 1825 531 
L 1825 4091 
L 703 3866 
L 703 4441 
L 1819 4666 
L 2450 4666 
L 2450 531 
L 3481 531 
L 3481 0 
L 794 0 
L 794 531 
z
" transform="scale(0.015625)"/>
        <path id="DejaVuSans-38" d="M 2034 2216 
Q 1584 2216 1326 1975 
Q 1069 1734 1069 1313 
Q 1069 891 1326 650 
Q 1584 409 2034 409 
Q 2484 409 2743 651 
Q 3003 894 3003 1313 
Q 3003 1734 2745 1975 
Q 2488 2216 2034 2216 
z
M 1403 2484 
Q 997 2584 770 2862 
Q 544 3141 544 3541 
Q 544 4100 942 4425 
Q 1341 4750 2034 4750 
Q 2731 4750 3128 4425 
Q 3525 4100 3525 3541 
Q 3525 3141 3298 2862 
Q 3072 2584 2669 2484 
Q 3125 2378 3379 2068 
Q 3634 1759 3634 1313 
Q 3634 634 3220 271 
Q 2806 -91 2034 -91 
Q 1263 -91 848 271 
Q 434 634 434 1313 
Q 434 1759 690 2068 
Q 947 2378 1403 2484 
z
M 1172 3481 
Q 1172 3119 1398 2916 
Q 1625 2713 2034 2713 
Q 2441 2713 2670 2916 
Q 2900 3119 2900 3481 
Q 2900 3844 2670 4047 
Q 2441 4250 2034 4250 
Q 1625 4250 1398 4047 
Q 1172 3844 1172 3481 
z
" transform="scale(0.015625)"/>
        <path id="DejaVuSans-35" d="M 691 4666 
L 3169 4666 
L 3169 4134 
L 1269 4134 
L 1269 2991 
Q 1406 3038 1543 3061 
Q 1681 3084 1819 3084 
Q 2600 3084 3056 2656 
Q 3513 2228 3513 1497 
Q 3513 744 3044 326 
Q 2575 -91 1722 -91 
Q 1428 -91 1123 -41 
Q 819 9 494 109 
L 494 744 
Q 775 591 1075 516 
Q 1375 441 1709 441 
Q 2250 441 2565 725 
Q 2881 1009 2881 1497 
Q 2881 1984 2565 2268 
Q 2250 2553 1709 2553 
Q 1456 2553 1204 2497 
Q 953 2441 691 2322 
L 691 4666 
z
" transform="scale(0.015625)"/>
        <path id="DejaVuSans-30" d="M 2034 4250 
Q 1547 4250 1301 3770 
Q 1056 3291 1056 2328 
Q 1056 1369 1301 889 
Q 1547 409 2034 409 
Q 2525 409 2770 889 
Q 3016 1369 3016 2328 
Q 3016 3291 2770 3770 
Q 2525 4250 2034 4250 
z
M 2034 4750 
Q 2819 4750 3233 4129 
Q 3647 3509 3647 2328 
Q 3647 1150 3233 529 
Q 2819 -91 2034 -91 
Q 1250 -91 836 529 
Q 422 1150 422 2328 
Q 422 3509 836 4129 
Q 1250 4750 2034 4750 
z
" transform="scale(0.015625)"/>
       </defs>
       <use xlink:href="#DejaVuSans-31"/>
       <use xlink:href="#DejaVuSans-38" x="63.623047"/>
       <use xlink:href="#DejaVuSans-35" x="127.246094"/>
       <use xlink:href="#DejaVuSans-30" x="190.869141"/>
      </g>
     </g>
    </g>
    <g id="xtick_2">
     <g id="line2d_3">
      <path d="M 301.87031 576.72 
L 301.87031 77.76 
" clip-path="url(#p3f4ab8b481)" style="fill: none; stroke: #b0b0b0; stroke-width: 0.8; stroke-linecap: square"/>
     </g>
     <g id="line2d_4">
      <g>
       <use xlink:href="#mbcc8b0fc61" x="301.87031" y="576.72" style="stroke: #000000; stroke-width: 0.8"/>
      </g>
     </g>
     <g id="text_2">
      <!-- 1875 -->
      <g transform="translate(289.14531 591.318438) scale(0.1 -0.1)">
       <defs>
        <path id="DejaVuSans-37" d="M 525 4666 
L 3525 4666 
L 3525 4397 
L 1831 0 
L 1172 0 
L 2766 4134 
L 525 4134 
L 525 4666 
z
" transform="scale(0.015625)"/>
       </defs>
       <use xlink:href="#DejaVuSans-31"/>
       <use xlink:href="#DejaVuSans-38" x="63.623047"/>
       <use xlink:href="#DejaVuSans-37" x="127.246094"/>
       <use xlink:href="#DejaVuSans-35" x="190.869141"/>
      </g>
     </g>
    </g>
    <g id="xtick_3">
     <g id="line2d_5">
      <path d="M 419.158802 576.72 
L 419.158802 77.76 
" clip-path="url(#p3f4ab8b481)" style="fill: none; stroke: #b0b0b0; stroke-width: 0.8; stroke-linecap: square"/>
     </g>
     <g id="line2d_6">
      <g>
       <use xlink:href="#mbcc8b0fc61" x="419.158802" y="576.72" style="stroke: #000000; stroke-width: 0.8"/>
      </g>
     </g>
     <g id="text_3">
      <!-- 1900 -->
      <g transform="translate(406.433802 591.318438) scale(0.1 -0.1)">
       <defs>
        <path id="DejaVuSans-39" d="M 703 97 
L 703 672 
Q 941 559 1184 500 
Q 1428 441 1663 441 
Q 2288 441 2617 861 
Q 2947 1281 2994 2138 
Q 2813 1869 2534 1725 
Q 2256 1581 1919 1581 
Q 1219 1581 811 2004 
Q 403 2428 403 3163 
Q 403 3881 828 4315 
Q 1253 4750 1959 4750 
Q 2769 4750 3195 4129 
Q 3622 3509 3622 2328 
Q 3622 1225 3098 567 
Q 2575 -91 1691 -91 
Q 1453 -91 1209 -44 
Q 966 3 703 97 
z
M 1959 2075 
Q 2384 2075 2632 2365 
Q 2881 2656 2881 3163 
Q 2881 3666 2632 3958 
Q 2384 4250 1959 4250 
Q 1534 4250 1286 3958 
Q 1038 3666 1038 3163 
Q 1038 2656 1286 2365 
Q 1534 2075 1959 2075 
z
" transform="scale(0.015625)"/>
       </defs>
       <use xlink:href="#DejaVuSans-31"/>
       <use xlink:href="#DejaVuSans-39" x="63.623047"/>
       <use xlink:href="#DejaVuSans-30" x="127.246094"/>
       <use xlink:href="#DejaVuSans-30" x="190.869141"/>
      </g>
     </g>
    </g>
    <g id="xtick_4">
     <g id="line2d_7">
      <path d="M 536.447294 576.72 
L 536.447294 77.76 
" clip-path="url(#p3f4ab8b481)" style="fill: none; stroke: #b0b0b0; stroke-width: 0.8; stroke-linecap: square"/>
     </g>
     <g id="line2d_8">
      <g>
       <use xlink:href="#mbcc8b0fc61" x="536.447294" y="576.72" style="stroke: #000000; stroke-width: 0.8"/>
      </g>
     </g>
     <g id="text_4">
      <!-- 1925 -->
      <g transform="translate(523.722294 591.318438) scale(0.1 -0.1)">
       <defs>
        <path id="DejaVuSans-32" d="M 1228 531 
L 3431 531 
L 3431 0 
L 469 0 
L 469 531 
Q 828 903 1448 1529 
Q 2069 2156 2228 2338 
Q 2531 2678 2651 2914 
Q 2772 3150 2772 3378 
Q 2772 3750 2511 3984 
Q 2250 4219 1831 4219 
Q 1534 4219 1204 4116 
Q 875 4013 500 3803 
L 500 4441 
Q 881 4594 1212 4672 
Q 1544 4750 1819 4750 
Q 2544 4750 2975 4387 
Q 3406 4025 3406 3419 
Q 3406 3131 3298 2873 
Q 3191 2616 2906 2266 
Q 2828 2175 2409 1742 
Q 1991 1309 1228 531 
z
" transform="scale(0.015625)"/>
       </defs>
       <use xlink:href="#DejaVuSans-31"/>
       <use xlink:href="#DejaVuSans-39" x="63.623047"/>
       <use xlink:href="#DejaVuSans-32" x="127.246094"/>
       <use xlink:href="#DejaVuSans-35" x="190.869141"/>
      </g>
     </g>
    </g>
    <g id="xtick_5">
     <g id="line2d_9">
      <path d="M 653.735786 576.72 
L 653.735786 77.76 
" clip-path="url(#p3f4ab8b481)" style="fill: none; stroke: #b0b0b0; stroke-width: 0.8; stroke-linecap: square"/>
     </g>
     <g id="line2d_10">
      <g>
       <use xlink:href="#mbcc8b0fc61" x="653.735786" y="576.72" style="stroke: #000000; stroke-width: 0.8"/>
      </g>
     </g>
     <g id="text_5">
      <!-- 1950 -->
      <g transform="translate(641.010786 591.318438) scale(0.1 -0.1)">
       <use xlink:href="#DejaVuSans-31"/>
       <use xlink:href="#DejaVuSans-39" x="63.623047"/>
       <use xlink:href="#DejaVuSans-35" x="127.246094"/>
       <use xlink:href="#DejaVuSans-30" x="190.869141"/>
      </g>
     </g>
    </g>
    <g id="xtick_6">
     <g id="line2d_11">
      <path d="M 771.024277 576.72 
L 771.024277 77.76 
" clip-path="url(#p3f4ab8b481)" style="fill: none; stroke: #b0b0b0; stroke-width: 0.8; stroke-linecap: square"/>
     </g>
     <g id="line2d_12">
      <g>
       <use xlink:href="#mbcc8b0fc61" x="771.024277" y="576.72" style="stroke: #000000; stroke-width: 0.8"/>
      </g>
     </g>
     <g id="text_6">
      <!-- 1975 -->
      <g transform="translate(758.299277 591.318438) scale(0.1 -0.1)">
       <use xlink:href="#DejaVuSans-31"/>
       <use xlink:href="#DejaVuSans-39" x="63.623047"/>
       <use xlink:href="#DejaVuSans-37" x="127.246094"/>
       <use xlink:href="#DejaVuSans-35" x="190.869141"/>
      </g>
     </g>
    </g>
    <g id="xtick_7">
     <g id="line2d_13">
      <path d="M 888.312769 576.72 
L 888.312769 77.76 
" clip-path="url(#p3f4ab8b481)" style="fill: none; stroke: #b0b0b0; stroke-width: 0.8; stroke-linecap: square"/>
     </g>
     <g id="line2d_14">
      <g>
       <use xlink:href="#mbcc8b0fc61" x="888.312769" y="576.72" style="stroke: #000000; stroke-width: 0.8"/>
      </g>
     </g>
     <g id="text_7">
      <!-- 2000 -->
      <g transform="translate(875.587769 591.318438) scale(0.1 -0.1)">
       <use xlink:href="#DejaVuSans-32"/>
       <use xlink:href="#DejaVuSans-30" x="63.623047"/>
       <use xlink:href="#DejaVuSans-30" x="127.246094"/>
       <use xlink:href="#DejaVuSans-30" x="190.869141"/>
      </g>
     </g>
    </g>
    <g id="xtick_8">
     <g id="line2d_15">
      <path d="M 1005.601261 576.72 
L 1005.601261 77.76 
" clip-path="url(#p3f4ab8b481)" style="fill: none; stroke: #b0b0b0; stroke-width: 0.8; stroke-linecap: square"/>
     </g>
     <g id="line2d_16">
      <g>
       <use xlink:href="#mbcc8b0fc61" x="1005.601261" y="576.72" style="stroke: #000000; stroke-width: 0.8"/>
      </g>
     </g>
     <g id="text_8">
      <!-- 2025 -->
      <g transform="translate(992.876261 591.318438) scale(0.1 -0.1)">
       <use xlink:href="#DejaVuSans-32"/>
       <use xlink:href="#DejaVuSans-30" x="63.623047"/>
       <use xlink:href="#DejaVuSans-32" x="127.246094"/>
       <use xlink:href="#DejaVuSans-35" x="190.869141"/>
      </g>
     </g>
    </g>
    <g id="text_9">
     <!-- Year -->
     <g transform="translate(571.3425 611.075312) scale(0.18 -0.18)">
      <defs>
       <path id="DejaVuSans-59" d="M -13 4666 
L 666 4666 
L 1959 2747 
L 3244 4666 
L 3922 4666 
L 2272 2222 
L 2272 0 
L 1638 0 
L 1638 2222 
L -13 4666 
z
" transform="scale(0.015625)"/>
       <path id="DejaVuSans-65" d="M 3597 1894 
L 3597 1613 
L 953 1613 
Q 991 1019 1311 708 
Q 1631 397 2203 397 
Q 2534 397 2845 478 
Q 3156 559 3463 722 
L 3463 178 
Q 3153 47 2828 -22 
Q 2503 -91 2169 -91 
Q 1331 -91 842 396 
Q 353 884 353 1716 
Q 353 2575 817 3079 
Q 1281 3584 2069 3584 
Q 2775 3584 3186 3129 
Q 3597 2675 3597 1894 
z
M 3022 2063 
Q 3016 2534 2758 2815 
Q 2500 3097 2075 3097 
Q 1594 3097 1305 2825 
Q 1016 2553 972 2059 
L 3022 2063 
z
" transform="scale(0.015625)"/>
       <path id="DejaVuSans-61" d="M 2194 1759 
Q 1497 1759 1228 1600 
Q 959 1441 959 1056 
Q 959 750 1161 570 
Q 1363 391 1709 391 
Q 2188 391 2477 730 
Q 2766 1069 2766 1631 
L 2766 1759 
L 2194 1759 
z
M 3341 1997 
L 3341 0 
L 2766 0 
L 2766 531 
Q 2569 213 2275 61 
Q 1981 -91 1556 -91 
Q 1019 -91 701 211 
Q 384 513 384 1019 
Q 384 1609 779 1909 
Q 1175 2209 1959 2209 
L 2766 2209 
L 2766 2266 
Q 2766 2663 2505 2880 
Q 2244 3097 1772 3097 
Q 1472 3097 1187 3025 
Q 903 2953 641 2809 
L 641 3341 
Q 956 3463 1253 3523 
Q 1550 3584 1831 3584 
Q 2591 3584 2966 3190 
Q 3341 2797 3341 1997 
z
" transform="scale(0.015625)"/>
       <path id="DejaVuSans-72" d="M 2631 2963 
Q 2534 3019 2420 3045 
Q 2306 3072 2169 3072 
Q 1681 3072 1420 2755 
Q 1159 2438 1159 1844 
L 1159 0 
L 581 0 
L 581 3500 
L 1159 3500 
L 1159 2956 
Q 1341 3275 1631 3429 
Q 1922 3584 2338 3584 
Q 2397 3584 2469 3576 
Q 2541 3569 2628 3553 
L 2631 2963 
z
" transform="scale(0.015625)"/>
      </defs>
      <use xlink:href="#DejaVuSans-59"/>
      <use xlink:href="#DejaVuSans-65" x="47.833984"/>
      <use xlink:href="#DejaVuSans-61" x="109.357422"/>
      <use xlink:href="#DejaVuSans-72" x="170.636719"/>
     </g>
    </g>
   </g>
   <g id="matplotlib.axis_2">
    <g id="ytick_1">
     <g id="line2d_17">
      <path d="M 144 576.72 
L 1036.8 576.72 
" clip-path="url(#p3f4ab8b481)" style="fill: none; stroke: #b0b0b0; stroke-width: 0.8; stroke-linecap: square"/>
     </g>
     <g id="line2d_18">
      <defs>
       <path id="mf081922749" d="M 0 0 
L -3.5 0 
" style="stroke: #000000; stroke-width: 0.8"/>
      </defs>
      <g>
       <use xlink:href="#mf081922749" x="144" y="576.72" style="stroke: #000000; stroke-width: 0.8"/>
      </g>
     </g>
     <g id="text_10">
      <!-- −0.5 -->
      <g transform="translate(112.717187 580.519219) scale(0.1 -0.1)">
       <defs>
        <path id="DejaVuSans-2212" d="M 678 2272 
L 4684 2272 
L 4684 1741 
L 678 1741 
L 678 2272 
z
" transform="scale(0.015625)"/>
        <path id="DejaVuSans-2e" d="M 684 794 
L 1344 794 
L 1344 0 
L 684 0 
L 684 794 
z
" transform="scale(0.015625)"/>
       </defs>
       <use xlink:href="#DejaVuSans-2212"/>
       <use xlink:href="#DejaVuSans-30" x="83.789062"/>
       <use xlink:href="#DejaVuSans-2e" x="147.412109"/>
       <use xlink:href="#DejaVuSans-35" x="179.199219"/>
      </g>
     </g>
    </g>
    <g id="ytick_2">
     <g id="line2d_19">
      <path d="M 144 476.928 
L 1036.8 476.928 
" clip-path="url(#p3f4ab8b481)" style="fill: none; stroke: #b0b0b0; stroke-width: 0.8; stroke-linecap: square"/>
     </g>
     <g id="line2d_20">
      <g>
       <use xlink:href="#mf081922749" x="144" y="476.928" style="stroke: #000000; stroke-width: 0.8"/>
      </g>
     </g>
     <g id="text_11">
      <!-- 0.0 -->
      <g transform="translate(121.096875 480.727219) scale(0.1 -0.1)">
       <use xlink:href="#DejaVuSans-30"/>
       <use xlink:href="#DejaVuSans-2e" x="63.623047"/>
       <use xlink:href="#DejaVuSans-30" x="95.410156"/>
      </g>
     </g>
    </g>
    <g id="ytick_3">
     <g id="line2d_21">
      <path d="M 144 377.136 
L 1036.8 377.136 
" clip-path="url(#p3f4ab8b481)" style="fill: none; stroke: #b0b0b0; stroke-width: 0.8; stroke-linecap: square"/>
     </g>
     <g id="line2d_22">
      <g>
       <use xlink:href="#mf081922749" x="144" y="377.136" style="stroke: #000000; stroke-width: 0.8"/>
      </g>
     </g>
     <g id="text_12">
      <!-- 0.5 -->
      <g transform="translate(121.096875 380.935219) scale(0.1 -0.1)">
       <use xlink:href="#DejaVuSans-30"/>
       <use xlink:href="#DejaVuSans-2e" x="63.623047"/>
       <use xlink:href="#DejaVuSans-35" x="95.410156"/>
      </g>
     </g>
    </g>
    <g id="ytick_4">
     <g id="line2d_23">
      <path d="M 144 277.344 
L 1036.8 277.344 
" clip-path="url(#p3f4ab8b481)" style="fill: none; stroke: #b0b0b0; stroke-width: 0.8; stroke-linecap: square"/>
     </g>
     <g id="line2d_24">
      <g>
       <use xlink:href="#mf081922749" x="144" y="277.344" style="stroke: #000000; stroke-width: 0.8"/>
      </g>
     </g>
     <g id="text_13">
      <!-- 1.0 -->
      <g transform="translate(121.096875 281.143219) scale(0.1 -0.1)">
       <use xlink:href="#DejaVuSans-31"/>
       <use xlink:href="#DejaVuSans-2e" x="63.623047"/>
       <use xlink:href="#DejaVuSans-30" x="95.410156"/>
      </g>
     </g>
    </g>
    <g id="ytick_5">
     <g id="line2d_25">
      <path d="M 144 177.552 
L 1036.8 177.552 
" clip-path="url(#p3f4ab8b481)" style="fill: none; stroke: #b0b0b0; stroke-width: 0.8; stroke-linecap: square"/>
     </g>
     <g id="line2d_26">
      <g>
       <use xlink:href="#mf081922749" x="144" y="177.552" style="stroke: #000000; stroke-width: 0.8"/>
      </g>
     </g>
     <g id="text_14">
      <!-- 1.5 -->
      <g transform="translate(121.096875 181.351219) scale(0.1 -0.1)">
       <use xlink:href="#DejaVuSans-31"/>
       <use xlink:href="#DejaVuSans-2e" x="63.623047"/>
       <use xlink:href="#DejaVuSans-35" x="95.410156"/>
      </g>
     </g>
    </g>
    <g id="ytick_6">
     <g id="line2d_27">
      <path d="M 144 77.76 
L 1036.8 77.76 
" clip-path="url(#p3f4ab8b481)" style="fill: none; stroke: #b0b0b0; stroke-width: 0.8; stroke-linecap: square"/>
     </g>
     <g id="line2d_28">
      <g>
       <use xlink:href="#mf081922749" x="144" y="77.76" style="stroke: #000000; stroke-width: 0.8"/>
      </g>
     </g>
     <g id="text_15">
      <!-- 2.0 -->
      <g transform="translate(121.096875 81.559219) scale(0.1 -0.1)">
       <use xlink:href="#DejaVuSans-32"/>
       <use xlink:href="#DejaVuSans-2e" x="63.623047"/>
       <use xlink:href="#DejaVuSans-30" x="95.410156"/>
      </g>
     </g>
    </g>
    <g id="text_16">
     <!-- Anomaly (°C) -->
     <g transform="translate(104.97375 387.383906) rotate(-90) scale(0.18 -0.18)">
      <defs>
       <path id="DejaVuSans-41" d="M 2188 4044 
L 1331 1722 
L 3047 1722 
L 2188 4044 
z
M 1831 4666 
L 2547 4666 
L 4325 0 
L 3669 0 
L 3244 1197 
L 1141 1197 
L 716 0 
L 50 0 
L 1831 4666 
z
" transform="scale(0.015625)"/>
       <path id="DejaVuSans-6e" d="M 3513 2113 
L 3513 0 
L 2938 0 
L 2938 2094 
Q 2938 2591 2744 2837 
Q 2550 3084 2163 3084 
Q 1697 3084 1428 2787 
Q 1159 2491 1159 1978 
L 1159 0 
L 581 0 
L 581 3500 
L 1159 3500 
L 1159 2956 
Q 1366 3272 1645 3428 
Q 1925 3584 2291 3584 
Q 2894 3584 3203 3211 
Q 3513 2838 3513 2113 
z
" transform="scale(0.015625)"/>
       <path id="DejaVuSans-6f" d="M 1959 3097 
Q 1497 3097 1228 2736 
Q 959 2375 959 1747 
Q 959 1119 1226 758 
Q 1494 397 1959 397 
Q 2419 397 2687 759 
Q 2956 1122 2956 1747 
Q 2956 2369 2687 2733 
Q 2419 3097 1959 3097 
z
M 1959 3584 
Q 2709 3584 3137 3096 
Q 3566 2609 3566 1747 
Q 3566 888 3137 398 
Q 2709 -91 1959 -91 
Q 1206 -91 779 398 
Q 353 888 353 1747 
Q 353 2609 779 3096 
Q 1206 3584 1959 3584 
z
" transform="scale(0.015625)"/>
       <path id="DejaVuSans-6d" d="M 3328 2828 
Q 3544 3216 3844 3400 
Q 4144 3584 4550 3584 
Q 5097 3584 5394 3201 
Q 5691 2819 5691 2113 
L 5691 0 
L 5113 0 
L 5113 2094 
Q 5113 2597 4934 2840 
Q 4756 3084 4391 3084 
Q 3944 3084 3684 2787 
Q 3425 2491 3425 1978 
L 3425 0 
L 2847 0 
L 2847 2094 
Q 2847 2600 2669 2842 
Q 2491 3084 2119 3084 
Q 1678 3084 1418 2786 
Q 1159 2488 1159 1978 
L 1159 0 
L 581 0 
L 581 3500 
L 1159 3500 
L 1159 2956 
Q 1356 3278 1631 3431 
Q 1906 3584 2284 3584 
Q 2666 3584 2933 3390 
Q 3200 3197 3328 2828 
z
" transform="scale(0.015625)"/>
       <path id="DejaVuSans-6c" d="M 603 4863 
L 1178 4863 
L 1178 0 
L 603 0 
L 603 4863 
z
" transform="scale(0.015625)"/>
       <path id="DejaVuSans-79" d="M 2059 -325 
Q 1816 -950 1584 -1140 
Q 1353 -1331 966 -1331 
L 506 -1331 
L 506 -850 
L 844 -850 
Q 1081 -850 1212 -737 
Q 1344 -625 1503 -206 
L 1606 56 
L 191 3500 
L 800 3500 
L 1894 763 
L 2988 3500 
L 3597 3500 
L 2059 -325 
z
" transform="scale(0.015625)"/>
       <path id="DejaVuSans-20" transform="scale(0.015625)"/>
       <path id="DejaVuSans-28" d="M 1984 4856 
Q 1566 4138 1362 3434 
Q 1159 2731 1159 2009 
Q 1159 1288 1364 580 
Q 1569 -128 1984 -844 
L 1484 -844 
Q 1016 -109 783 600 
Q 550 1309 550 2009 
Q 550 2706 781 3412 
Q 1013 4119 1484 4856 
L 1984 4856 
z
" transform="scale(0.015625)"/>
       <path id="DejaVuSans-b0" d="M 1600 4347 
Q 1350 4347 1178 4173 
Q 1006 4000 1006 3750 
Q 1006 3503 1178 3333 
Q 1350 3163 1600 3163 
Q 1850 3163 2022 3333 
Q 2194 3503 2194 3750 
Q 2194 3997 2020 4172 
Q 1847 4347 1600 4347 
z
M 1600 4750 
Q 1800 4750 1984 4673 
Q 2169 4597 2303 4453 
Q 2447 4313 2519 4134 
Q 2591 3956 2591 3750 
Q 2591 3338 2302 3052 
Q 2013 2766 1594 2766 
Q 1172 2766 890 3047 
Q 609 3328 609 3750 
Q 609 4169 896 4459 
Q 1184 4750 1600 4750 
z
" transform="scale(0.015625)"/>
       <path id="DejaVuSans-43" d="M 4122 4306 
L 4122 3641 
Q 3803 3938 3442 4084 
Q 3081 4231 2675 4231 
Q 1875 4231 1450 3742 
Q 1025 3253 1025 2328 
Q 1025 1406 1450 917 
Q 1875 428 2675 428 
Q 3081 428 3442 575 
Q 3803 722 4122 1019 
L 4122 359 
Q 3791 134 3420 21 
Q 3050 -91 2638 -91 
Q 1578 -91 968 557 
Q 359 1206 359 2328 
Q 359 3453 968 4101 
Q 1578 4750 2638 4750 
Q 3056 4750 3426 4639 
Q 3797 4528 4122 4306 
z
" transform="scale(0.015625)"/>
       <path id="DejaVuSans-29" d="M 513 4856 
L 1013 4856 
Q 1481 4119 1714 3412 
Q 1947 2706 1947 2009 
Q 1947 1309 1714 600 
Q 1481 -109 1013 -844 
L 513 -844 
Q 928 -128 1133 580 
Q 1338 1288 1338 2009 
Q 1338 2731 1133 3434 
Q 928 4138 513 4856 
z
" transform="scale(0.015625)"/>
      </defs>
      <use xlink:href="#DejaVuSans-41"/>
      <use xlink:href="#DejaVuSans-6e" x="68.408203"/>
      <use xlink:href="#DejaVuSans-6f" x="131.787109"/>
      <use xlink:href="#DejaVuSans-6d" x="192.96875"/>
      <use xlink:href="#DejaVuSans-61" x="290.380859"/>
      <use xlink:href="#DejaVuSans-6c" x="351.660156"/>
      <use xlink:href="#DejaVuSans-79" x="379.443359"/>
      <use xlink:href="#DejaVuSans-20" x="438.623047"/>
      <use xlink:href="#DejaVuSans-28" x="470.410156"/>
      <use xlink:href="#DejaVuSans-b0" x="509.423828"/>
      <use xlink:href="#DejaVuSans-43" x="559.423828"/>
      <use xlink:href="#DejaVuSans-29" x="629.248047"/>
     </g>
    </g>
   </g>
   <g id="line2d_29">
    <path d="M 184.581818 489.133881 
L 189.273358 452.348757 
L 193.964898 451.560255 
L 198.656437 459.734293 
L 203.347977 463.980559 
L 208.039517 465.042579 
L 212.731056 469.713348 
L 217.422596 499.027513 
L 222.114136 483.367284 
L 226.805675 461.897985 
L 231.497215 483.646598 
L 236.188755 491.452715 
L 240.880294 512.832281 
L 245.571834 474.501264 
L 250.263374 498.669589 
L 254.954913 472.155082 
L 259.646453 473.886034 
L 264.337993 477.020042 
L 269.029532 476.021599 
L 273.721072 468.958263 
L 278.412612 471.217642 
L 283.104151 479.338681 
L 287.795691 471.247799 
L 292.487231 473.900347 
L 297.17877 480.270838 
L 301.87031 480.744798 
L 306.56185 490.421429 
L 311.253389 425.955576 
L 315.944929 408.034202 
L 320.636469 466.376423 
L 325.328008 468.810901 
L 330.019548 452.128361 
L 334.711088 464.758946 
L 339.402627 474.926617 
L 344.094167 504.035078 
L 348.785707 499.804599 
L 353.477246 489.781499 
L 358.168786 505.325528 
L 362.860326 481.493827 
L 367.551865 455.651026 
L 372.243405 506.936652 
L 376.934945 485.871912 
L 381.626484 507.076426 
L 386.318024 504.493959 
L 391.009564 502.327411 
L 395.701104 495.33951 
L 400.392643 462.45918 
L 405.084183 457.627828 
L 409.775723 502.732207 
L 414.467262 476.714738 
L 419.158802 452.574135 
L 423.850342 464.339518 
L 428.541881 493.390107 
L 433.233421 512.219287 
L 437.924961 525.039565 
L 442.6165 487.15651 
L 447.30804 469.470969 
L 451.99958 506.397681 
L 456.691119 508.336241 
L 461.382659 512.705973 
L 466.074199 511.759805 
L 470.765738 513.392581 
L 475.457278 500.712595 
L 480.148818 499.012043 
L 484.840357 458.185112 
L 489.531897 444.064846 
L 494.223437 489.643057 
L 498.914976 514.153881 
L 503.606516 490.51611 
L 508.298056 470.744099 
L 512.989595 465.367821 
L 517.681135 453.811155 
L 522.372675 473.480376 
L 527.064214 469.229722 
L 531.755754 468.058493 
L 536.447294 462.143432 
L 541.138833 430.291865 
L 545.830373 451.561454 
L 550.521913 447.042168 
L 555.213452 484.163812 
L 559.904992 441.0634 
L 564.596532 426.412393 
L 569.288071 434.807691 
L 573.979611 470.110659 
L 578.671151 440.570717 
L 583.36269 446.901994 
L 588.05423 439.609536 
L 592.74577 409.60767 
L 597.43731 408.210942 
L 602.128849 413.918333 
L 606.820389 390.620292 
L 611.511929 398.165865 
L 616.203468 405.495238 
L 620.895008 404.495724 
L 625.586548 377.01479 
L 630.278087 397.176123 
L 634.969627 429.489005 
L 639.661167 423.979038 
L 644.352706 430.656266 
L 649.044246 434.476497 
L 653.735786 451.005954 
L 658.427325 417.981225 
L 663.118865 402.711345 
L 667.810405 390.282017 
L 672.501944 429.077345 
L 677.193484 445.155776 
L 681.885024 458.299514 
L 686.576563 412.828157 
L 691.268103 409.295046 
L 695.959643 415.356866 
L 700.651182 428.825233 
L 705.342722 409.767029 
L 710.034262 418.560112 
L 714.725801 413.121738 
L 719.417341 466.82198 
L 724.108881 446.568425 
L 728.80042 435.490851 
L 733.49196 429.230246 
L 738.1835 439.43218 
L 742.875039 412.036165 
L 747.566579 422.76178 
L 752.258119 446.876751 
L 756.949658 424.502259 
L 761.641198 395.809971 
L 766.332738 440.211563 
L 771.024277 427.880645 
L 775.715817 448.858404 
L 780.407357 385.201052 
L 785.098896 404.726903 
L 789.790436 387.642042 
L 794.481976 366.643023 
L 799.173516 355.877468 
L 803.865055 398.937459 
L 808.556595 361.101266 
L 813.248135 396.194899 
L 817.939674 395.850602 
L 822.631214 386.678283 
L 827.322754 357.27169 
L 832.014293 349.4629 
L 836.705833 370.000385 
L 841.397373 333.813371 
L 846.088912 338.137544 
L 850.780452 380.848469 
L 855.471992 372.713093 
L 860.163531 359.163073 
L 864.855071 330.559415 
L 869.546611 350.553094 
L 874.23815 321.489851 
L 878.92969 290.552742 
L 883.62123 341.013863 
L 888.312769 339.696642 
L 893.004309 308.123343 
L 897.695849 297.308653 
L 902.387388 297.168206 
L 907.078928 312.496153 
L 911.770468 284.655816 
L 916.462007 291.503513 
L 921.153547 287.681758 
L 925.845087 312.839613 
L 930.536626 286.667792 
L 935.228166 269.984613 
L 939.919706 298.460007 
L 944.611245 290.494735 
L 949.302785 281.320198 
L 953.994325 271.481455 
L 958.685864 241.096244 
L 963.377404 219.578542 
L 968.068944 237.092613 
L 972.760483 253.562335 
L 977.452023 227.932037 
L 982.143563 221.600993 
L 986.835102 253.721623 
L 991.526642 245.852379 
L 996.218182 212.576024 
L 996.218182 212.576024 
" clip-path="url(#p3f4ab8b481)" style="fill: none; stroke: #1f77b4; stroke-width: 1.5; stroke-linecap: square"/>
   </g>
   <g id="line2d_30">
    <path d="M 144 177.552 
L 1036.8 177.552 
" clip-path="url(#p3f4ab8b481)" style="fill: none; stroke-dasharray: 5.55,2.4; stroke-dashoffset: 0; stroke: #ff0000; stroke-width: 1.5"/>
   </g>
   <g id="line2d_31">
    <path d="M 144 476.928 
L 1036.8 476.928 
" clip-path="url(#p3f4ab8b481)" style="fill: none; stroke-dasharray: 5.55,2.4; stroke-dashoffset: 0; stroke: #ff0000; stroke-width: 1.5"/>
   </g>
   <g id="patch_3">
    <path d="M 144 576.72 
L 144 77.76 
" style="fill: none; stroke: #000000; stroke-width: 0.8; stroke-linejoin: miter; stroke-linecap: square"/>
   </g>
   <g id="patch_4">
    <path d="M 1036.8 576.72 
L 1036.8 77.76 
" style="fill: none; stroke: #000000; stroke-width: 0.8; stroke-linejoin: miter; stroke-linecap: square"/>
   </g>
   <g id="patch_5">
    <path d="M 144 576.72 
L 1036.8 576.72 
" style="fill: none; stroke: #000000; stroke-width: 0.8; stroke-linejoin: miter; stroke-linecap: square"/>
   </g>
   <g id="patch_6">
    <path d="M 144 77.76 
L 1036.8 77.76 
" style="fill: none; stroke: #000000; stroke-width: 0.8; stroke-linejoin: miter; stroke-linecap: square"/>
   </g>
   <g id="text_17">
    <!-- Paris 1.5°C -->
    <g style="fill: #ff0000" transform="translate(920.177437 163.829363) scale(0.18 -0.18)">
     <defs>
      <path id="DejaVuSans-50" d="M 1259 4147 
L 1259 2394 
L 2053 2394 
Q 2494 2394 2734 2622 
Q 2975 2850 2975 3272 
Q 2975 3691 2734 3919 
Q 2494 4147 2053 4147 
L 1259 4147 
z
M 628 4666 
L 2053 4666 
Q 2838 4666 3239 4311 
Q 3641 3956 3641 3272 
Q 3641 2581 3239 2228 
Q 2838 1875 2053 1875 
L 1259 1875 
L 1259 0 
L 628 0 
L 628 4666 
z
" transform="scale(0.015625)"/>
      <path id="DejaVuSans-69" d="M 603 3500 
L 1178 3500 
L 1178 0 
L 603 0 
L 603 3500 
z
M 603 4863 
L 1178 4863 
L 1178 4134 
L 603 4134 
L 603 4863 
z
" transform="scale(0.015625)"/>
      <path id="DejaVuSans-73" d="M 2834 3397 
L 2834 2853 
Q 2591 2978 2328 3040 
Q 2066 3103 1784 3103 
Q 1356 3103 1142 2972 
Q 928 2841 928 2578 
Q 928 2378 1081 2264 
Q 1234 2150 1697 2047 
L 1894 2003 
Q 2506 1872 2764 1633 
Q 3022 1394 3022 966 
Q 3022 478 2636 193 
Q 2250 -91 1575 -91 
Q 1294 -91 989 -36 
Q 684 19 347 128 
L 347 722 
Q 666 556 975 473 
Q 1284 391 1588 391 
Q 1994 391 2212 530 
Q 2431 669 2431 922 
Q 2431 1156 2273 1281 
Q 2116 1406 1581 1522 
L 1381 1569 
Q 847 1681 609 1914 
Q 372 2147 372 2553 
Q 372 3047 722 3315 
Q 1072 3584 1716 3584 
Q 2034 3584 2315 3537 
Q 2597 3491 2834 3397 
z
" transform="scale(0.015625)"/>
     </defs>
     <use xlink:href="#DejaVuSans-50"/>
     <use xlink:href="#DejaVuSans-61" x="55.802734"/>
     <use xlink:href="#DejaVuSans-72" x="117.082031"/>
     <use xlink:href="#DejaVuSans-69" x="158.195312"/>
     <use xlink:href="#DejaVuSans-73" x="185.978516"/>
     <use xlink:href="#DejaVuSans-20" x="238.078125"/>
     <use xlink:href="#DejaVuSans-31" x="269.865234"/>
     <use xlink:href="#DejaVuSans-2e" x="333.488281"/>
     <use xlink:href="#DejaVuSans-35" x="365.275391"/>
     <use xlink:href="#DejaVuSans-b0" x="428.898438"/>
     <use xlink:href="#DejaVuSans-43" x="478.898438"/>
    </g>
   </g>
   <g id="text_18">
    <!-- Mean 1850-1900 -->
    <g style="fill: #ff0000" transform="translate(866.064937 463.205362) scale(0.18 -0.18)">
     <defs>
      <path id="DejaVuSans-4d" d="M 628 4666 
L 1569 4666 
L 2759 1491 
L 3956 4666 
L 4897 4666 
L 4897 0 
L 4281 0 
L 4281 4097 
L 3078 897 
L 2444 897 
L 1241 4097 
L 1241 0 
L 628 0 
L 628 4666 
z
" transform="scale(0.015625)"/>
      <path id="DejaVuSans-2d" d="M 313 2009 
L 1997 2009 
L 1997 1497 
L 313 1497 
L 313 2009 
z
" transform="scale(0.015625)"/>
     </defs>
     <use xlink:href="#DejaVuSans-4d"/>
     <use xlink:href="#DejaVuSans-65" x="86.279297"/>
     <use xlink:href="#DejaVuSans-61" x="147.802734"/>
     <use xlink:href="#DejaVuSans-6e" x="209.082031"/>
     <use xlink:href="#DejaVuSans-20" x="272.460938"/>
     <use xlink:href="#DejaVuSans-31" x="304.248047"/>
     <use xlink:href="#DejaVuSans-38" x="367.871094"/>
     <use xlink:href="#DejaVuSans-35" x="431.494141"/>
     <use xlink:href="#DejaVuSans-30" x="495.117188"/>
     <use xlink:href="#DejaVuSans-2d" x="558.740234"/>
     <use xlink:href="#DejaVuSans-31" x="594.824219"/>
     <use xlink:href="#DejaVuSans-39" x="658.447266"/>
     <use xlink:href="#DejaVuSans-30" x="722.070312"/>
     <use xlink:href="#DejaVuSans-30" x="785.693359"/>
    </g>
   </g>
   <g id="text_19">
    <g id="patch_7">
     <path d="M 730.49825 569.1408 
L 1030.272 569.1408 
L 1030.272 556.5983 
L 730.49825 556.5983 
z
" style="fill: #ffffff"/>
    </g>
    <!-- Data: Met Office Hadley Centre   github:lwieske/climate-and-digitalization -->
    <g transform="translate(732.89825 565.07705) scale(0.08 -0.08)">
     <defs>
      <path id="DejaVuSans-44" d="M 1259 4147 
L 1259 519 
L 2022 519 
Q 2988 519 3436 956 
Q 3884 1394 3884 2338 
Q 3884 3275 3436 3711 
Q 2988 4147 2022 4147 
L 1259 4147 
z
M 628 4666 
L 1925 4666 
Q 3281 4666 3915 4102 
Q 4550 3538 4550 2338 
Q 4550 1131 3912 565 
Q 3275 0 1925 0 
L 628 0 
L 628 4666 
z
" transform="scale(0.015625)"/>
      <path id="DejaVuSans-74" d="M 1172 4494 
L 1172 3500 
L 2356 3500 
L 2356 3053 
L 1172 3053 
L 1172 1153 
Q 1172 725 1289 603 
Q 1406 481 1766 481 
L 2356 481 
L 2356 0 
L 1766 0 
Q 1100 0 847 248 
Q 594 497 594 1153 
L 594 3053 
L 172 3053 
L 172 3500 
L 594 3500 
L 594 4494 
L 1172 4494 
z
" transform="scale(0.015625)"/>
      <path id="DejaVuSans-3a" d="M 750 794 
L 1409 794 
L 1409 0 
L 750 0 
L 750 794 
z
M 750 3309 
L 1409 3309 
L 1409 2516 
L 750 2516 
L 750 3309 
z
" transform="scale(0.015625)"/>
      <path id="DejaVuSans-4f" d="M 2522 4238 
Q 1834 4238 1429 3725 
Q 1025 3213 1025 2328 
Q 1025 1447 1429 934 
Q 1834 422 2522 422 
Q 3209 422 3611 934 
Q 4013 1447 4013 2328 
Q 4013 3213 3611 3725 
Q 3209 4238 2522 4238 
z
M 2522 4750 
Q 3503 4750 4090 4092 
Q 4678 3434 4678 2328 
Q 4678 1225 4090 567 
Q 3503 -91 2522 -91 
Q 1538 -91 948 565 
Q 359 1222 359 2328 
Q 359 3434 948 4092 
Q 1538 4750 2522 4750 
z
" transform="scale(0.015625)"/>
      <path id="DejaVuSans-66" d="M 2375 4863 
L 2375 4384 
L 1825 4384 
Q 1516 4384 1395 4259 
Q 1275 4134 1275 3809 
L 1275 3500 
L 2222 3500 
L 2222 3053 
L 1275 3053 
L 1275 0 
L 697 0 
L 697 3053 
L 147 3053 
L 147 3500 
L 697 3500 
L 697 3744 
Q 697 4328 969 4595 
Q 1241 4863 1831 4863 
L 2375 4863 
z
" transform="scale(0.015625)"/>
      <path id="DejaVuSans-63" d="M 3122 3366 
L 3122 2828 
Q 2878 2963 2633 3030 
Q 2388 3097 2138 3097 
Q 1578 3097 1268 2742 
Q 959 2388 959 1747 
Q 959 1106 1268 751 
Q 1578 397 2138 397 
Q 2388 397 2633 464 
Q 2878 531 3122 666 
L 3122 134 
Q 2881 22 2623 -34 
Q 2366 -91 2075 -91 
Q 1284 -91 818 406 
Q 353 903 353 1747 
Q 353 2603 823 3093 
Q 1294 3584 2113 3584 
Q 2378 3584 2631 3529 
Q 2884 3475 3122 3366 
z
" transform="scale(0.015625)"/>
      <path id="DejaVuSans-48" d="M 628 4666 
L 1259 4666 
L 1259 2753 
L 3553 2753 
L 3553 4666 
L 4184 4666 
L 4184 0 
L 3553 0 
L 3553 2222 
L 1259 2222 
L 1259 0 
L 628 0 
L 628 4666 
z
" transform="scale(0.015625)"/>
      <path id="DejaVuSans-64" d="M 2906 2969 
L 2906 4863 
L 3481 4863 
L 3481 0 
L 2906 0 
L 2906 525 
Q 2725 213 2448 61 
Q 2172 -91 1784 -91 
Q 1150 -91 751 415 
Q 353 922 353 1747 
Q 353 2572 751 3078 
Q 1150 3584 1784 3584 
Q 2172 3584 2448 3432 
Q 2725 3281 2906 2969 
z
M 947 1747 
Q 947 1113 1208 752 
Q 1469 391 1925 391 
Q 2381 391 2643 752 
Q 2906 1113 2906 1747 
Q 2906 2381 2643 2742 
Q 2381 3103 1925 3103 
Q 1469 3103 1208 2742 
Q 947 2381 947 1747 
z
" transform="scale(0.015625)"/>
      <path id="DejaVuSans-67" d="M 2906 1791 
Q 2906 2416 2648 2759 
Q 2391 3103 1925 3103 
Q 1463 3103 1205 2759 
Q 947 2416 947 1791 
Q 947 1169 1205 825 
Q 1463 481 1925 481 
Q 2391 481 2648 825 
Q 2906 1169 2906 1791 
z
M 3481 434 
Q 3481 -459 3084 -895 
Q 2688 -1331 1869 -1331 
Q 1566 -1331 1297 -1286 
Q 1028 -1241 775 -1147 
L 775 -588 
Q 1028 -725 1275 -790 
Q 1522 -856 1778 -856 
Q 2344 -856 2625 -561 
Q 2906 -266 2906 331 
L 2906 616 
Q 2728 306 2450 153 
Q 2172 0 1784 0 
Q 1141 0 747 490 
Q 353 981 353 1791 
Q 353 2603 747 3093 
Q 1141 3584 1784 3584 
Q 2172 3584 2450 3431 
Q 2728 3278 2906 2969 
L 2906 3500 
L 3481 3500 
L 3481 434 
z
" transform="scale(0.015625)"/>
      <path id="DejaVuSans-68" d="M 3513 2113 
L 3513 0 
L 2938 0 
L 2938 2094 
Q 2938 2591 2744 2837 
Q 2550 3084 2163 3084 
Q 1697 3084 1428 2787 
Q 1159 2491 1159 1978 
L 1159 0 
L 581 0 
L 581 4863 
L 1159 4863 
L 1159 2956 
Q 1366 3272 1645 3428 
Q 1925 3584 2291 3584 
Q 2894 3584 3203 3211 
Q 3513 2838 3513 2113 
z
" transform="scale(0.015625)"/>
      <path id="DejaVuSans-75" d="M 544 1381 
L 544 3500 
L 1119 3500 
L 1119 1403 
Q 1119 906 1312 657 
Q 1506 409 1894 409 
Q 2359 409 2629 706 
Q 2900 1003 2900 1516 
L 2900 3500 
L 3475 3500 
L 3475 0 
L 2900 0 
L 2900 538 
Q 2691 219 2414 64 
Q 2138 -91 1772 -91 
Q 1169 -91 856 284 
Q 544 659 544 1381 
z
M 1991 3584 
L 1991 3584 
z
" transform="scale(0.015625)"/>
      <path id="DejaVuSans-62" d="M 3116 1747 
Q 3116 2381 2855 2742 
Q 2594 3103 2138 3103 
Q 1681 3103 1420 2742 
Q 1159 2381 1159 1747 
Q 1159 1113 1420 752 
Q 1681 391 2138 391 
Q 2594 391 2855 752 
Q 3116 1113 3116 1747 
z
M 1159 2969 
Q 1341 3281 1617 3432 
Q 1894 3584 2278 3584 
Q 2916 3584 3314 3078 
Q 3713 2572 3713 1747 
Q 3713 922 3314 415 
Q 2916 -91 2278 -91 
Q 1894 -91 1617 61 
Q 1341 213 1159 525 
L 1159 0 
L 581 0 
L 581 4863 
L 1159 4863 
L 1159 2969 
z
" transform="scale(0.015625)"/>
      <path id="DejaVuSans-77" d="M 269 3500 
L 844 3500 
L 1563 769 
L 2278 3500 
L 2956 3500 
L 3675 769 
L 4391 3500 
L 4966 3500 
L 4050 0 
L 3372 0 
L 2619 2869 
L 1863 0 
L 1184 0 
L 269 3500 
z
" transform="scale(0.015625)"/>
      <path id="DejaVuSans-6b" d="M 581 4863 
L 1159 4863 
L 1159 1991 
L 2875 3500 
L 3609 3500 
L 1753 1863 
L 3688 0 
L 2938 0 
L 1159 1709 
L 1159 0 
L 581 0 
L 581 4863 
z
" transform="scale(0.015625)"/>
      <path id="DejaVuSans-2f" d="M 1625 4666 
L 2156 4666 
L 531 -594 
L 0 -594 
L 1625 4666 
z
" transform="scale(0.015625)"/>
      <path id="DejaVuSans-7a" d="M 353 3500 
L 3084 3500 
L 3084 2975 
L 922 459 
L 3084 459 
L 3084 0 
L 275 0 
L 275 525 
L 2438 3041 
L 353 3041 
L 353 3500 
z
" transform="scale(0.015625)"/>
     </defs>
     <use xlink:href="#DejaVuSans-44"/>
     <use xlink:href="#DejaVuSans-61" x="77.001953"/>
     <use xlink:href="#DejaVuSans-74" x="138.28125"/>
     <use xlink:href="#DejaVuSans-61" x="177.490234"/>
     <use xlink:href="#DejaVuSans-3a" x="238.769531"/>
     <use xlink:href="#DejaVuSans-20" x="272.460938"/>
     <use xlink:href="#DejaVuSans-4d" x="304.248047"/>
     <use xlink:href="#DejaVuSans-65" x="390.527344"/>
     <use xlink:href="#DejaVuSans-74" x="452.050781"/>
     <use xlink:href="#DejaVuSans-20" x="491.259766"/>
     <use xlink:href="#DejaVuSans-4f" x="523.046875"/>
     <use xlink:href="#DejaVuSans-66" x="601.757812"/>
     <use xlink:href="#DejaVuSans-66" x="636.962891"/>
     <use xlink:href="#DejaVuSans-69" x="672.167969"/>
     <use xlink:href="#DejaVuSans-63" x="699.951172"/>
     <use xlink:href="#DejaVuSans-65" x="754.931641"/>
     <use xlink:href="#DejaVuSans-20" x="816.455078"/>
     <use xlink:href="#DejaVuSans-48" x="848.242188"/>
     <use xlink:href="#DejaVuSans-61" x="923.4375"/>
     <use xlink:href="#DejaVuSans-64" x="984.716797"/>
     <use xlink:href="#DejaVuSans-6c" x="1048.193359"/>
     <use xlink:href="#DejaVuSans-65" x="1075.976562"/>
     <use xlink:href="#DejaVuSans-79" x="1137.5"/>
     <use xlink:href="#DejaVuSans-20" x="1196.679688"/>
     <use xlink:href="#DejaVuSans-43" x="1228.466797"/>
     <use xlink:href="#DejaVuSans-65" x="1298.291016"/>
     <use xlink:href="#DejaVuSans-6e" x="1359.814453"/>
     <use xlink:href="#DejaVuSans-74" x="1423.193359"/>
     <use xlink:href="#DejaVuSans-72" x="1462.402344"/>
     <use xlink:href="#DejaVuSans-65" x="1501.265625"/>
     <use xlink:href="#DejaVuSans-20" x="1562.789062"/>
     <use xlink:href="#DejaVuSans-20" x="1594.576172"/>
     <use xlink:href="#DejaVuSans-20" x="1626.363281"/>
     <use xlink:href="#DejaVuSans-67" x="1658.150391"/>
     <use xlink:href="#DejaVuSans-69" x="1721.626953"/>
     <use xlink:href="#DejaVuSans-74" x="1749.410156"/>
     <use xlink:href="#DejaVuSans-68" x="1788.619141"/>
     <use xlink:href="#DejaVuSans-75" x="1851.998047"/>
     <use xlink:href="#DejaVuSans-62" x="1915.376953"/>
     <use xlink:href="#DejaVuSans-3a" x="1978.853516"/>
     <use xlink:href="#DejaVuSans-6c" x="2012.544922"/>
     <use xlink:href="#DejaVuSans-77" x="2040.328125"/>
     <use xlink:href="#DejaVuSans-69" x="2122.115234"/>
     <use xlink:href="#DejaVuSans-65" x="2149.898438"/>
     <use xlink:href="#DejaVuSans-73" x="2211.421875"/>
     <use xlink:href="#DejaVuSans-6b" x="2263.521484"/>
     <use xlink:href="#DejaVuSans-65" x="2317.806641"/>
     <use xlink:href="#DejaVuSans-2f" x="2379.330078"/>
     <use xlink:href="#DejaVuSans-63" x="2413.021484"/>
     <use xlink:href="#DejaVuSans-6c" x="2468.001953"/>
     <use xlink:href="#DejaVuSans-69" x="2495.785156"/>
     <use xlink:href="#DejaVuSans-6d" x="2523.568359"/>
     <use xlink:href="#DejaVuSans-61" x="2620.980469"/>
     <use xlink:href="#DejaVuSans-74" x="2682.259766"/>
     <use xlink:href="#DejaVuSans-65" x="2721.46875"/>
     <use xlink:href="#DejaVuSans-2d" x="2782.992188"/>
     <use xlink:href="#DejaVuSans-61" x="2819.076172"/>
     <use xlink:href="#DejaVuSans-6e" x="2880.355469"/>
     <use xlink:href="#DejaVuSans-64" x="2943.734375"/>
     <use xlink:href="#DejaVuSans-2d" x="3007.210938"/>
     <use xlink:href="#DejaVuSans-64" x="3043.294922"/>
     <use xlink:href="#DejaVuSans-69" x="3106.771484"/>
     <use xlink:href="#DejaVuSans-67" x="3134.554688"/>
     <use xlink:href="#DejaVuSans-69" x="3198.03125"/>
     <use xlink:href="#DejaVuSans-74" x="3225.814453"/>
     <use xlink:href="#DejaVuSans-61" x="3265.023438"/>
     <use xlink:href="#DejaVuSans-6c" x="3326.302734"/>
     <use xlink:href="#DejaVuSans-69" x="3354.085938"/>
     <use xlink:href="#DejaVuSans-7a" x="3381.869141"/>
     <use xlink:href="#DejaVuSans-61" x="3434.359375"/>
     <use xlink:href="#DejaVuSans-74" x="3495.638672"/>
     <use xlink:href="#DejaVuSans-69" x="3534.847656"/>
     <use xlink:href="#DejaVuSans-6f" x="3562.630859"/>
     <use xlink:href="#DejaVuSans-6e" x="3623.8125"/>
    </g>
   </g>
   <g id="text_20">
    <!-- HadCRUT5 - Annual Temperature Anomalies Relative to 1850-1900 Mean -->
    <g transform="translate(152.334375 71.76) scale(0.24 -0.24)">
     <defs>
      <path id="DejaVuSans-52" d="M 2841 2188 
Q 3044 2119 3236 1894 
Q 3428 1669 3622 1275 
L 4263 0 
L 3584 0 
L 2988 1197 
Q 2756 1666 2539 1819 
Q 2322 1972 1947 1972 
L 1259 1972 
L 1259 0 
L 628 0 
L 628 4666 
L 2053 4666 
Q 2853 4666 3247 4331 
Q 3641 3997 3641 3322 
Q 3641 2881 3436 2590 
Q 3231 2300 2841 2188 
z
M 1259 4147 
L 1259 2491 
L 2053 2491 
Q 2509 2491 2742 2702 
Q 2975 2913 2975 3322 
Q 2975 3731 2742 3939 
Q 2509 4147 2053 4147 
L 1259 4147 
z
" transform="scale(0.015625)"/>
      <path id="DejaVuSans-55" d="M 556 4666 
L 1191 4666 
L 1191 1831 
Q 1191 1081 1462 751 
Q 1734 422 2344 422 
Q 2950 422 3222 751 
Q 3494 1081 3494 1831 
L 3494 4666 
L 4128 4666 
L 4128 1753 
Q 4128 841 3676 375 
Q 3225 -91 2344 -91 
Q 1459 -91 1007 375 
Q 556 841 556 1753 
L 556 4666 
z
" transform="scale(0.015625)"/>
      <path id="DejaVuSans-54" d="M -19 4666 
L 3928 4666 
L 3928 4134 
L 2272 4134 
L 2272 0 
L 1638 0 
L 1638 4134 
L -19 4134 
L -19 4666 
z
" transform="scale(0.015625)"/>
      <path id="DejaVuSans-70" d="M 1159 525 
L 1159 -1331 
L 581 -1331 
L 581 3500 
L 1159 3500 
L 1159 2969 
Q 1341 3281 1617 3432 
Q 1894 3584 2278 3584 
Q 2916 3584 3314 3078 
Q 3713 2572 3713 1747 
Q 3713 922 3314 415 
Q 2916 -91 2278 -91 
Q 1894 -91 1617 61 
Q 1341 213 1159 525 
z
M 3116 1747 
Q 3116 2381 2855 2742 
Q 2594 3103 2138 3103 
Q 1681 3103 1420 2742 
Q 1159 2381 1159 1747 
Q 1159 1113 1420 752 
Q 1681 391 2138 391 
Q 2594 391 2855 752 
Q 3116 1113 3116 1747 
z
" transform="scale(0.015625)"/>
      <path id="DejaVuSans-76" d="M 191 3500 
L 800 3500 
L 1894 563 
L 2988 3500 
L 3597 3500 
L 2284 0 
L 1503 0 
L 191 3500 
z
" transform="scale(0.015625)"/>
     </defs>
     <use xlink:href="#DejaVuSans-48"/>
     <use xlink:href="#DejaVuSans-61" x="75.195312"/>
     <use xlink:href="#DejaVuSans-64" x="136.474609"/>
     <use xlink:href="#DejaVuSans-43" x="199.951172"/>
     <use xlink:href="#DejaVuSans-52" x="269.775391"/>
     <use xlink:href="#DejaVuSans-55" x="339.257812"/>
     <use xlink:href="#DejaVuSans-54" x="412.451172"/>
     <use xlink:href="#DejaVuSans-35" x="473.535156"/>
     <use xlink:href="#DejaVuSans-20" x="537.158203"/>
     <use xlink:href="#DejaVuSans-2d" x="568.945312"/>
     <use xlink:href="#DejaVuSans-20" x="605.029297"/>
     <use xlink:href="#DejaVuSans-41" x="636.816406"/>
     <use xlink:href="#DejaVuSans-6e" x="705.224609"/>
     <use xlink:href="#DejaVuSans-6e" x="768.603516"/>
     <use xlink:href="#DejaVuSans-75" x="831.982422"/>
     <use xlink:href="#DejaVuSans-61" x="895.361328"/>
     <use xlink:href="#DejaVuSans-6c" x="956.640625"/>
     <use xlink:href="#DejaVuSans-20" x="984.423828"/>
     <use xlink:href="#DejaVuSans-54" x="1016.210938"/>
     <use xlink:href="#DejaVuSans-65" x="1060.294922"/>
     <use xlink:href="#DejaVuSans-6d" x="1121.818359"/>
     <use xlink:href="#DejaVuSans-70" x="1219.230469"/>
     <use xlink:href="#DejaVuSans-65" x="1282.707031"/>
     <use xlink:href="#DejaVuSans-72" x="1344.230469"/>
     <use xlink:href="#DejaVuSans-61" x="1385.34375"/>
     <use xlink:href="#DejaVuSans-74" x="1446.623047"/>
     <use xlink:href="#DejaVuSans-75" x="1485.832031"/>
     <use xlink:href="#DejaVuSans-72" x="1549.210938"/>
     <use xlink:href="#DejaVuSans-65" x="1588.074219"/>
     <use xlink:href="#DejaVuSans-20" x="1649.597656"/>
     <use xlink:href="#DejaVuSans-41" x="1681.384766"/>
     <use xlink:href="#DejaVuSans-6e" x="1749.792969"/>
     <use xlink:href="#DejaVuSans-6f" x="1813.171875"/>
     <use xlink:href="#DejaVuSans-6d" x="1874.353516"/>
     <use xlink:href="#DejaVuSans-61" x="1971.765625"/>
     <use xlink:href="#DejaVuSans-6c" x="2033.044922"/>
     <use xlink:href="#DejaVuSans-69" x="2060.828125"/>
     <use xlink:href="#DejaVuSans-65" x="2088.611328"/>
     <use xlink:href="#DejaVuSans-73" x="2150.134766"/>
     <use xlink:href="#DejaVuSans-20" x="2202.234375"/>
     <use xlink:href="#DejaVuSans-52" x="2234.021484"/>
     <use xlink:href="#DejaVuSans-65" x="2299.003906"/>
     <use xlink:href="#DejaVuSans-6c" x="2360.527344"/>
     <use xlink:href="#DejaVuSans-61" x="2388.310547"/>
     <use xlink:href="#DejaVuSans-74" x="2449.589844"/>
     <use xlink:href="#DejaVuSans-69" x="2488.798828"/>
     <use xlink:href="#DejaVuSans-76" x="2516.582031"/>
     <use xlink:href="#DejaVuSans-65" x="2575.761719"/>
     <use xlink:href="#DejaVuSans-20" x="2637.285156"/>
     <use xlink:href="#DejaVuSans-74" x="2669.072266"/>
     <use xlink:href="#DejaVuSans-6f" x="2708.28125"/>
     <use xlink:href="#DejaVuSans-20" x="2769.462891"/>
     <use xlink:href="#DejaVuSans-31" x="2801.25"/>
     <use xlink:href="#DejaVuSans-38" x="2864.873047"/>
     <use xlink:href="#DejaVuSans-35" x="2928.496094"/>
     <use xlink:href="#DejaVuSans-30" x="2992.119141"/>
     <use xlink:href="#DejaVuSans-2d" x="3055.742188"/>
     <use xlink:href="#DejaVuSans-31" x="3091.826172"/>
     <use xlink:href="#DejaVuSans-39" x="3155.449219"/>
     <use xlink:href="#DejaVuSans-30" x="3219.072266"/>
     <use xlink:href="#DejaVuSans-30" x="3282.695312"/>
     <use xlink:href="#DejaVuSans-20" x="3346.318359"/>
     <use xlink:href="#DejaVuSans-4d" x="3378.105469"/>
     <use xlink:href="#DejaVuSans-65" x="3464.384766"/>
     <use xlink:href="#DejaVuSans-61" x="3525.908203"/>
     <use xlink:href="#DejaVuSans-6e" x="3587.1875"/>
    </g>
   </g>
  </g>
 </g>
 <defs>
  <clipPath id="p3f4ab8b481">
   <rect x="144" y="77.76" width="892.8" height="498.96"/>
  </clipPath>
 </defs>
</svg>
