<?xml version="1.0" encoding="utf-8" standalone="no"?>
<!DOCTYPE svg PUBLIC "-//W3C//DTD SVG 1.1//EN"
  "http://www.w3.org/Graphics/SVG/1.1/DTD/svg11.dtd">
<svg xmlns:xlink="http://www.w3.org/1999/xlink" width="1152pt" height="648pt" viewBox="0 0 1152 648" xmlns="http://www.w3.org/2000/svg" version="1.1">
 <metadata>
  <rdf:RDF xmlns:dc="http://purl.org/dc/elements/1.1/" xmlns:cc="http://creativecommons.org/ns#" xmlns:rdf="http://www.w3.org/1999/02/22-rdf-syntax-ns#">
   <cc:Work>
    <dc:type rdf:resource="http://purl.org/dc/dcmitype/StillImage"/>
    <dc:date>2023-09-15T14:36:36.851946</dc:date>
    <dc:format>image/svg+xml</dc:format>
    <dc:creator>
     <cc:Agent>
      <dc:title>Matplotlib v3.7.2, https://matplotlib.org/</dc:title>
     </cc:Agent>
    </dc:creator>
   </cc:Work>
  </rdf:RDF>
 </metadata>
 <defs>
  <style type="text/css">*{stroke-linejoin: round; stroke-linecap: butt}</style>
 </defs>
 <g id="figure_1">
  <g id="patch_1">
   <path d="M 0 648 
L 1152 648 
L 1152 0 
L 0 0 
z
" style="fill: #ffffff"/>
  </g>
  <g id="axes_1">
   <g id="patch_2">
    <path d="M 144 576.72 
L 1036.8 576.72 
L 1036.8 77.76 
L 144 77.76 
z
" style="fill: #ffffff"/>
   </g>
   <g id="matplotlib.axis_1">
    <g id="xtick_1">
     <g id="line2d_1">
      <path d="M 184.54682 576.72 
L 184.54682 77.76 
" clip-path="url(#p97105bfff0)" style="fill: none; stroke: #b0b0b0; stroke-width: 0.8; stroke-linecap: square"/>
     </g>
     <g id="line2d_2">
      <defs>
       <path id="m2e85e32e93" d="M 0 0 
L 0 3.5 
" style="stroke: #000000; stroke-width: 0.8"/>
      </defs>
      <g>
       <use xlink:href="#m2e85e32e93" x="184.54682" y="576.72" style="stroke: #000000; stroke-width: 0.8"/>
      </g>
     </g>
     <g id="text_1">
      <!-- 1960 -->
      <g transform="translate(171.82182 591.318438) scale(0.1 -0.1)">
       <defs>
        <path id="DejaVuSans-31" d="M 794 531 
L 1825 531 
L 1825 4091 
L 703 3866 
L 703 4441 
L 1819 4666 
L 2450 4666 
L 2450 531 
L 3481 531 
L 3481 0 
L 794 0 
L 794 531 
z
" transform="scale(0.015625)"/>
        <path id="DejaVuSans-39" d="M 703 97 
L 703 672 
Q 941 559 1184 500 
Q 1428 441 1663 441 
Q 2288 441 2617 861 
Q 2947 1281 2994 2138 
Q 2813 1869 2534 1725 
Q 2256 1581 1919 1581 
Q 1219 1581 811 2004 
Q 403 2428 403 3163 
Q 403 3881 828 4315 
Q 1253 4750 1959 4750 
Q 2769 4750 3195 4129 
Q 3622 3509 3622 2328 
Q 3622 1225 3098 567 
Q 2575 -91 1691 -91 
Q 1453 -91 1209 -44 
Q 966 3 703 97 
z
M 1959 2075 
Q 2384 2075 2632 2365 
Q 2881 2656 2881 3163 
Q 2881 3666 2632 3958 
Q 2384 4250 1959 4250 
Q 1534 4250 1286 3958 
Q 1038 3666 1038 3163 
Q 1038 2656 1286 2365 
Q 1534 2075 1959 2075 
z
" transform="scale(0.015625)"/>
        <path id="DejaVuSans-36" d="M 2113 2584 
Q 1688 2584 1439 2293 
Q 1191 2003 1191 1497 
Q 1191 994 1439 701 
Q 1688 409 2113 409 
Q 2538 409 2786 701 
Q 3034 994 3034 1497 
Q 3034 2003 2786 2293 
Q 2538 2584 2113 2584 
z
M 3366 4563 
L 3366 3988 
Q 3128 4100 2886 4159 
Q 2644 4219 2406 4219 
Q 1781 4219 1451 3797 
Q 1122 3375 1075 2522 
Q 1259 2794 1537 2939 
Q 1816 3084 2150 3084 
Q 2853 3084 3261 2657 
Q 3669 2231 3669 1497 
Q 3669 778 3244 343 
Q 2819 -91 2113 -91 
Q 1303 -91 875 529 
Q 447 1150 447 2328 
Q 447 3434 972 4092 
Q 1497 4750 2381 4750 
Q 2619 4750 2861 4703 
Q 3103 4656 3366 4563 
z
" transform="scale(0.015625)"/>
        <path id="DejaVuSans-30" d="M 2034 4250 
Q 1547 4250 1301 3770 
Q 1056 3291 1056 2328 
Q 1056 1369 1301 889 
Q 1547 409 2034 409 
Q 2525 409 2770 889 
Q 3016 1369 3016 2328 
Q 3016 3291 2770 3770 
Q 2525 4250 2034 4250 
z
M 2034 4750 
Q 2819 4750 3233 4129 
Q 3647 3509 3647 2328 
Q 3647 1150 3233 529 
Q 2819 -91 2034 -91 
Q 1250 -91 836 529 
Q 422 1150 422 2328 
Q 422 3509 836 4129 
Q 1250 4750 2034 4750 
z
" transform="scale(0.015625)"/>
       </defs>
       <use xlink:href="#DejaVuSans-31"/>
       <use xlink:href="#DejaVuSans-39" x="63.623047"/>
       <use xlink:href="#DejaVuSans-36" x="127.246094"/>
       <use xlink:href="#DejaVuSans-30" x="190.869141"/>
      </g>
     </g>
    </g>
    <g id="xtick_2">
     <g id="line2d_3">
      <path d="M 440.2065 576.72 
L 440.2065 77.76 
" clip-path="url(#p97105bfff0)" style="fill: none; stroke: #b0b0b0; stroke-width: 0.8; stroke-linecap: square"/>
     </g>
     <g id="line2d_4">
      <g>
       <use xlink:href="#m2e85e32e93" x="440.2065" y="576.72" style="stroke: #000000; stroke-width: 0.8"/>
      </g>
     </g>
     <g id="text_2">
      <!-- 1980 -->
      <g transform="translate(427.4815 591.318438) scale(0.1 -0.1)">
       <defs>
        <path id="DejaVuSans-38" d="M 2034 2216 
Q 1584 2216 1326 1975 
Q 1069 1734 1069 1313 
Q 1069 891 1326 650 
Q 1584 409 2034 409 
Q 2484 409 2743 651 
Q 3003 894 3003 1313 
Q 3003 1734 2745 1975 
Q 2488 2216 2034 2216 
z
M 1403 2484 
Q 997 2584 770 2862 
Q 544 3141 544 3541 
Q 544 4100 942 4425 
Q 1341 4750 2034 4750 
Q 2731 4750 3128 4425 
Q 3525 4100 3525 3541 
Q 3525 3141 3298 2862 
Q 3072 2584 2669 2484 
Q 3125 2378 3379 2068 
Q 3634 1759 3634 1313 
Q 3634 634 3220 271 
Q 2806 -91 2034 -91 
Q 1263 -91 848 271 
Q 434 634 434 1313 
Q 434 1759 690 2068 
Q 947 2378 1403 2484 
z
M 1172 3481 
Q 1172 3119 1398 2916 
Q 1625 2713 2034 2713 
Q 2441 2713 2670 2916 
Q 2900 3119 2900 3481 
Q 2900 3844 2670 4047 
Q 2441 4250 2034 4250 
Q 1625 4250 1398 4047 
Q 1172 3844 1172 3481 
z
" transform="scale(0.015625)"/>
       </defs>
       <use xlink:href="#DejaVuSans-31"/>
       <use xlink:href="#DejaVuSans-39" x="63.623047"/>
       <use xlink:href="#DejaVuSans-38" x="127.246094"/>
       <use xlink:href="#DejaVuSans-30" x="190.869141"/>
      </g>
     </g>
    </g>
    <g id="xtick_3">
     <g id="line2d_5">
      <path d="M 695.86618 576.72 
L 695.86618 77.76 
" clip-path="url(#p97105bfff0)" style="fill: none; stroke: #b0b0b0; stroke-width: 0.8; stroke-linecap: square"/>
     </g>
     <g id="line2d_6">
      <g>
       <use xlink:href="#m2e85e32e93" x="695.86618" y="576.72" style="stroke: #000000; stroke-width: 0.8"/>
      </g>
     </g>
     <g id="text_3">
      <!-- 2000 -->
      <g transform="translate(683.14118 591.318438) scale(0.1 -0.1)">
       <defs>
        <path id="DejaVuSans-32" d="M 1228 531 
L 3431 531 
L 3431 0 
L 469 0 
L 469 531 
Q 828 903 1448 1529 
Q 2069 2156 2228 2338 
Q 2531 2678 2651 2914 
Q 2772 3150 2772 3378 
Q 2772 3750 2511 3984 
Q 2250 4219 1831 4219 
Q 1534 4219 1204 4116 
Q 875 4013 500 3803 
L 500 4441 
Q 881 4594 1212 4672 
Q 1544 4750 1819 4750 
Q 2544 4750 2975 4387 
Q 3406 4025 3406 3419 
Q 3406 3131 3298 2873 
Q 3191 2616 2906 2266 
Q 2828 2175 2409 1742 
Q 1991 1309 1228 531 
z
" transform="scale(0.015625)"/>
       </defs>
       <use xlink:href="#DejaVuSans-32"/>
       <use xlink:href="#DejaVuSans-30" x="63.623047"/>
       <use xlink:href="#DejaVuSans-30" x="127.246094"/>
       <use xlink:href="#DejaVuSans-30" x="190.869141"/>
      </g>
     </g>
    </g>
    <g id="xtick_4">
     <g id="line2d_7">
      <path d="M 951.52586 576.72 
L 951.52586 77.76 
" clip-path="url(#p97105bfff0)" style="fill: none; stroke: #b0b0b0; stroke-width: 0.8; stroke-linecap: square"/>
     </g>
     <g id="line2d_8">
      <g>
       <use xlink:href="#m2e85e32e93" x="951.52586" y="576.72" style="stroke: #000000; stroke-width: 0.8"/>
      </g>
     </g>
     <g id="text_4">
      <!-- 2020 -->
      <g transform="translate(938.80086 591.318438) scale(0.1 -0.1)">
       <use xlink:href="#DejaVuSans-32"/>
       <use xlink:href="#DejaVuSans-30" x="63.623047"/>
       <use xlink:href="#DejaVuSans-32" x="127.246094"/>
       <use xlink:href="#DejaVuSans-30" x="190.869141"/>
      </g>
     </g>
    </g>
    <g id="text_5">
     <!-- Year -->
     <g transform="translate(571.3425 611.075312) scale(0.18 -0.18)">
      <defs>
       <path id="DejaVuSans-59" d="M -13 4666 
L 666 4666 
L 1959 2747 
L 3244 4666 
L 3922 4666 
L 2272 2222 
L 2272 0 
L 1638 0 
L 1638 2222 
L -13 4666 
z
" transform="scale(0.015625)"/>
       <path id="DejaVuSans-65" d="M 3597 1894 
L 3597 1613 
L 953 1613 
Q 991 1019 1311 708 
Q 1631 397 2203 397 
Q 2534 397 2845 478 
Q 3156 559 3463 722 
L 3463 178 
Q 3153 47 2828 -22 
Q 2503 -91 2169 -91 
Q 1331 -91 842 396 
Q 353 884 353 1716 
Q 353 2575 817 3079 
Q 1281 3584 2069 3584 
Q 2775 3584 3186 3129 
Q 3597 2675 3597 1894 
z
M 3022 2063 
Q 3016 2534 2758 2815 
Q 2500 3097 2075 3097 
Q 1594 3097 1305 2825 
Q 1016 2553 972 2059 
L 3022 2063 
z
" transform="scale(0.015625)"/>
       <path id="DejaVuSans-61" d="M 2194 1759 
Q 1497 1759 1228 1600 
Q 959 1441 959 1056 
Q 959 750 1161 570 
Q 1363 391 1709 391 
Q 2188 391 2477 730 
Q 2766 1069 2766 1631 
L 2766 1759 
L 2194 1759 
z
M 3341 1997 
L 3341 0 
L 2766 0 
L 2766 531 
Q 2569 213 2275 61 
Q 1981 -91 1556 -91 
Q 1019 -91 701 211 
Q 384 513 384 1019 
Q 384 1609 779 1909 
Q 1175 2209 1959 2209 
L 2766 2209 
L 2766 2266 
Q 2766 2663 2505 2880 
Q 2244 3097 1772 3097 
Q 1472 3097 1187 3025 
Q 903 2953 641 2809 
L 641 3341 
Q 956 3463 1253 3523 
Q 1550 3584 1831 3584 
Q 2591 3584 2966 3190 
Q 3341 2797 3341 1997 
z
" transform="scale(0.015625)"/>
       <path id="DejaVuSans-72" d="M 2631 2963 
Q 2534 3019 2420 3045 
Q 2306 3072 2169 3072 
Q 1681 3072 1420 2755 
Q 1159 2438 1159 1844 
L 1159 0 
L 581 0 
L 581 3500 
L 1159 3500 
L 1159 2956 
Q 1341 3275 1631 3429 
Q 1922 3584 2338 3584 
Q 2397 3584 2469 3576 
Q 2541 3569 2628 3553 
L 2631 2963 
z
" transform="scale(0.015625)"/>
      </defs>
      <use xlink:href="#DejaVuSans-59"/>
      <use xlink:href="#DejaVuSans-65" x="47.833984"/>
      <use xlink:href="#DejaVuSans-61" x="109.357422"/>
      <use xlink:href="#DejaVuSans-72" x="170.636719"/>
     </g>
    </g>
   </g>
   <g id="matplotlib.axis_2">
    <g id="ytick_1">
     <g id="line2d_9">
      <path d="M 144 526.771749 
L 1036.8 526.771749 
" clip-path="url(#p97105bfff0)" style="fill: none; stroke: #b0b0b0; stroke-width: 0.8; stroke-linecap: square"/>
     </g>
     <g id="line2d_10">
      <defs>
       <path id="mca93981e14" d="M 0 0 
L -3.5 0 
" style="stroke: #000000; stroke-width: 0.8"/>
      </defs>
      <g>
       <use xlink:href="#mca93981e14" x="144" y="526.771749" style="stroke: #000000; stroke-width: 0.8"/>
      </g>
     </g>
     <g id="text_6">
      <!-- 320 -->
      <g transform="translate(117.9125 530.570968) scale(0.1 -0.1)">
       <defs>
        <path id="DejaVuSans-33" d="M 2597 2516 
Q 3050 2419 3304 2112 
Q 3559 1806 3559 1356 
Q 3559 666 3084 287 
Q 2609 -91 1734 -91 
Q 1441 -91 1130 -33 
Q 819 25 488 141 
L 488 750 
Q 750 597 1062 519 
Q 1375 441 1716 441 
Q 2309 441 2620 675 
Q 2931 909 2931 1356 
Q 2931 1769 2642 2001 
Q 2353 2234 1838 2234 
L 1294 2234 
L 1294 2753 
L 1863 2753 
Q 2328 2753 2575 2939 
Q 2822 3125 2822 3475 
Q 2822 3834 2567 4026 
Q 2313 4219 1838 4219 
Q 1578 4219 1281 4162 
Q 984 4106 628 3988 
L 628 4550 
Q 988 4650 1302 4700 
Q 1616 4750 1894 4750 
Q 2613 4750 3031 4423 
Q 3450 4097 3450 3541 
Q 3450 3153 3228 2886 
Q 3006 2619 2597 2516 
z
" transform="scale(0.015625)"/>
       </defs>
       <use xlink:href="#DejaVuSans-33"/>
       <use xlink:href="#DejaVuSans-32" x="63.623047"/>
       <use xlink:href="#DejaVuSans-30" x="127.246094"/>
      </g>
     </g>
    </g>
    <g id="ytick_2">
     <g id="line2d_11">
      <path d="M 144 445.130281 
L 1036.8 445.130281 
" clip-path="url(#p97105bfff0)" style="fill: none; stroke: #b0b0b0; stroke-width: 0.8; stroke-linecap: square"/>
     </g>
     <g id="line2d_12">
      <g>
       <use xlink:href="#mca93981e14" x="144" y="445.130281" style="stroke: #000000; stroke-width: 0.8"/>
      </g>
     </g>
     <g id="text_7">
      <!-- 340 -->
      <g transform="translate(117.9125 448.9295) scale(0.1 -0.1)">
       <defs>
        <path id="DejaVuSans-34" d="M 2419 4116 
L 825 1625 
L 2419 1625 
L 2419 4116 
z
M 2253 4666 
L 3047 4666 
L 3047 1625 
L 3713 1625 
L 3713 1100 
L 3047 1100 
L 3047 0 
L 2419 0 
L 2419 1100 
L 313 1100 
L 313 1709 
L 2253 4666 
z
" transform="scale(0.015625)"/>
       </defs>
       <use xlink:href="#DejaVuSans-33"/>
       <use xlink:href="#DejaVuSans-34" x="63.623047"/>
       <use xlink:href="#DejaVuSans-30" x="127.246094"/>
      </g>
     </g>
    </g>
    <g id="ytick_3">
     <g id="line2d_13">
      <path d="M 144 363.488812 
L 1036.8 363.488812 
" clip-path="url(#p97105bfff0)" style="fill: none; stroke: #b0b0b0; stroke-width: 0.8; stroke-linecap: square"/>
     </g>
     <g id="line2d_14">
      <g>
       <use xlink:href="#mca93981e14" x="144" y="363.488812" style="stroke: #000000; stroke-width: 0.8"/>
      </g>
     </g>
     <g id="text_8">
      <!-- 360 -->
      <g transform="translate(117.9125 367.288031) scale(0.1 -0.1)">
       <use xlink:href="#DejaVuSans-33"/>
       <use xlink:href="#DejaVuSans-36" x="63.623047"/>
       <use xlink:href="#DejaVuSans-30" x="127.246094"/>
      </g>
     </g>
    </g>
    <g id="ytick_4">
     <g id="line2d_15">
      <path d="M 144 281.847343 
L 1036.8 281.847343 
" clip-path="url(#p97105bfff0)" style="fill: none; stroke: #b0b0b0; stroke-width: 0.8; stroke-linecap: square"/>
     </g>
     <g id="line2d_16">
      <g>
       <use xlink:href="#mca93981e14" x="144" y="281.847343" style="stroke: #000000; stroke-width: 0.8"/>
      </g>
     </g>
     <g id="text_9">
      <!-- 380 -->
      <g transform="translate(117.9125 285.646562) scale(0.1 -0.1)">
       <use xlink:href="#DejaVuSans-33"/>
       <use xlink:href="#DejaVuSans-38" x="63.623047"/>
       <use xlink:href="#DejaVuSans-30" x="127.246094"/>
      </g>
     </g>
    </g>
    <g id="ytick_5">
     <g id="line2d_17">
      <path d="M 144 200.205875 
L 1036.8 200.205875 
" clip-path="url(#p97105bfff0)" style="fill: none; stroke: #b0b0b0; stroke-width: 0.8; stroke-linecap: square"/>
     </g>
     <g id="line2d_18">
      <g>
       <use xlink:href="#mca93981e14" x="144" y="200.205875" style="stroke: #000000; stroke-width: 0.8"/>
      </g>
     </g>
     <g id="text_10">
      <!-- 400 -->
      <g transform="translate(117.9125 204.005093) scale(0.1 -0.1)">
       <use xlink:href="#DejaVuSans-34"/>
       <use xlink:href="#DejaVuSans-30" x="63.623047"/>
       <use xlink:href="#DejaVuSans-30" x="127.246094"/>
      </g>
     </g>
    </g>
    <g id="ytick_6">
     <g id="line2d_19">
      <path d="M 144 118.564406 
L 1036.8 118.564406 
" clip-path="url(#p97105bfff0)" style="fill: none; stroke: #b0b0b0; stroke-width: 0.8; stroke-linecap: square"/>
     </g>
     <g id="line2d_20">
      <g>
       <use xlink:href="#mca93981e14" x="144" y="118.564406" style="stroke: #000000; stroke-width: 0.8"/>
      </g>
     </g>
     <g id="text_11">
      <!-- 420 -->
      <g transform="translate(117.9125 122.363625) scale(0.1 -0.1)">
       <use xlink:href="#DejaVuSans-34"/>
       <use xlink:href="#DejaVuSans-32" x="63.623047"/>
       <use xlink:href="#DejaVuSans-30" x="127.246094"/>
      </g>
     </g>
    </g>
    <g id="text_12">
     <!-- CO2 (ppm) -->
     <g transform="translate(110.169062 376.412344) rotate(-90) scale(0.18 -0.18)">
      <defs>
       <path id="DejaVuSans-43" d="M 4122 4306 
L 4122 3641 
Q 3803 3938 3442 4084 
Q 3081 4231 2675 4231 
Q 1875 4231 1450 3742 
Q 1025 3253 1025 2328 
Q 1025 1406 1450 917 
Q 1875 428 2675 428 
Q 3081 428 3442 575 
Q 3803 722 4122 1019 
L 4122 359 
Q 3791 134 3420 21 
Q 3050 -91 2638 -91 
Q 1578 -91 968 557 
Q 359 1206 359 2328 
Q 359 3453 968 4101 
Q 1578 4750 2638 4750 
Q 3056 4750 3426 4639 
Q 3797 4528 4122 4306 
z
" transform="scale(0.015625)"/>
       <path id="DejaVuSans-4f" d="M 2522 4238 
Q 1834 4238 1429 3725 
Q 1025 3213 1025 2328 
Q 1025 1447 1429 934 
Q 1834 422 2522 422 
Q 3209 422 3611 934 
Q 4013 1447 4013 2328 
Q 4013 3213 3611 3725 
Q 3209 4238 2522 4238 
z
M 2522 4750 
Q 3503 4750 4090 4092 
Q 4678 3434 4678 2328 
Q 4678 1225 4090 567 
Q 3503 -91 2522 -91 
Q 1538 -91 948 565 
Q 359 1222 359 2328 
Q 359 3434 948 4092 
Q 1538 4750 2522 4750 
z
" transform="scale(0.015625)"/>
       <path id="DejaVuSans-20" transform="scale(0.015625)"/>
       <path id="DejaVuSans-28" d="M 1984 4856 
Q 1566 4138 1362 3434 
Q 1159 2731 1159 2009 
Q 1159 1288 1364 580 
Q 1569 -128 1984 -844 
L 1484 -844 
Q 1016 -109 783 600 
Q 550 1309 550 2009 
Q 550 2706 781 3412 
Q 1013 4119 1484 4856 
L 1984 4856 
z
" transform="scale(0.015625)"/>
       <path id="DejaVuSans-70" d="M 1159 525 
L 1159 -1331 
L 581 -1331 
L 581 3500 
L 1159 3500 
L 1159 2969 
Q 1341 3281 1617 3432 
Q 1894 3584 2278 3584 
Q 2916 3584 3314 3078 
Q 3713 2572 3713 1747 
Q 3713 922 3314 415 
Q 2916 -91 2278 -91 
Q 1894 -91 1617 61 
Q 1341 213 1159 525 
z
M 3116 1747 
Q 3116 2381 2855 2742 
Q 2594 3103 2138 3103 
Q 1681 3103 1420 2742 
Q 1159 2381 1159 1747 
Q 1159 1113 1420 752 
Q 1681 391 2138 391 
Q 2594 391 2855 752 
Q 3116 1113 3116 1747 
z
" transform="scale(0.015625)"/>
       <path id="DejaVuSans-6d" d="M 3328 2828 
Q 3544 3216 3844 3400 
Q 4144 3584 4550 3584 
Q 5097 3584 5394 3201 
Q 5691 2819 5691 2113 
L 5691 0 
L 5113 0 
L 5113 2094 
Q 5113 2597 4934 2840 
Q 4756 3084 4391 3084 
Q 3944 3084 3684 2787 
Q 3425 2491 3425 1978 
L 3425 0 
L 2847 0 
L 2847 2094 
Q 2847 2600 2669 2842 
Q 2491 3084 2119 3084 
Q 1678 3084 1418 2786 
Q 1159 2488 1159 1978 
L 1159 0 
L 581 0 
L 581 3500 
L 1159 3500 
L 1159 2956 
Q 1356 3278 1631 3431 
Q 1906 3584 2284 3584 
Q 2666 3584 2933 3390 
Q 3200 3197 3328 2828 
z
" transform="scale(0.015625)"/>
       <path id="DejaVuSans-29" d="M 513 4856 
L 1013 4856 
Q 1481 4119 1714 3412 
Q 1947 2706 1947 2009 
Q 1947 1309 1714 600 
Q 1481 -109 1013 -844 
L 513 -844 
Q 928 -128 1133 580 
Q 1338 1288 1338 2009 
Q 1338 2731 1133 3434 
Q 928 4138 513 4856 
z
" transform="scale(0.015625)"/>
      </defs>
      <use xlink:href="#DejaVuSans-43"/>
      <use xlink:href="#DejaVuSans-4f" x="69.824219"/>
      <use xlink:href="#DejaVuSans-32" x="148.535156"/>
      <use xlink:href="#DejaVuSans-20" x="212.158203"/>
      <use xlink:href="#DejaVuSans-28" x="243.945312"/>
      <use xlink:href="#DejaVuSans-70" x="282.958984"/>
      <use xlink:href="#DejaVuSans-70" x="346.435547"/>
      <use xlink:href="#DejaVuSans-6d" x="409.912109"/>
      <use xlink:href="#DejaVuSans-29" x="507.324219"/>
     </g>
    </g>
   </g>
   <g id="line2d_21">
    <path d="M 184.581818 544.243024 
L 184.826804 541.467214 
L 185.071789 540.12013 
L 185.316774 540.773261 
L 185.561759 540.324233 
L 185.806745 540.609978 
L 186.296715 537.303499 
L 186.541701 539.01797 
L 186.786686 539.181253 
L 187.031671 535.915594 
L 187.276657 534.650151 
L 187.521642 535.874773 
L 188.011613 529.465918 
L 188.256598 530.813002 
L 188.501583 530.731361 
L 188.746569 527.710626 
L 188.991554 526.935032 
L 189.236539 527.506523 
L 189.481525 526.608467 
L 189.72651 526.526825 
L 189.971495 528.976069 
L 190.216481 526.445184 
L 190.461466 529.139352 
L 190.706451 530.486436 
L 190.951436 534.201123 
L 191.196422 532.323369 
L 191.441407 533.262246 
L 191.931378 537.670886 
L 192.176363 540.569158 
L 192.421348 540.242592 
L 192.666334 546.773909 
L 192.911319 548.080173 
L 193.156304 548.325097 
L 193.40129 548.896587 
L 193.646275 550.12121 
L 193.89126 553.999179 
L 194.136246 552.652095 
L 194.381231 554.04 
L 194.626216 551.590756 
L 194.871202 550.406955 
L 195.116187 550.080389 
L 195.361172 549.223153 
L 195.606158 546.773909 
L 195.851143 546.773909 
L 196.831084 542.242808 
L 197.811025 538.936328 
L 198.056011 538.895508 
L 198.300996 538.977149 
L 198.545981 538.773045 
L 198.790967 535.956415 
L 199.035952 535.180821 
L 199.525923 534.772613 
L 200.015893 531.180389 
L 200.260879 532.037624 
L 200.505864 529.180173 
L 200.750849 528.608683 
L 200.995835 531.26203 
L 201.24082 527.833089 
L 201.485805 528.118834 
L 201.730791 524.03676 
L 201.975776 524.893996 
L 202.220761 524.281685 
L 202.710732 526.404363 
L 202.955717 526.690108 
L 203.200702 528.322937 
L 203.445688 528.853607 
L 203.935658 530.568078 
L 204.180644 532.93568 
L 204.425629 538.364838 
L 204.670614 535.058359 
L 204.9156 535.303283 
L 205.40557 539.997667 
L 205.650556 546.120778 
L 205.895541 546.039136 
L 206.385512 549.100691 
L 206.875482 544.692052 
L 207.120468 547.304579 
L 207.365453 545.426825 
L 207.610438 545.222721 
L 207.855424 544.243024 
L 208.100409 543.834816 
L 208.345394 544.324665 
L 208.835365 540.854903 
L 209.08035 540.977365 
L 209.325335 538.936328 
L 209.570321 539.262894 
L 210.060291 537.140216 
L 210.305277 534.976717 
L 210.550262 534.446048 
L 210.795247 534.650151 
L 211.040233 535.833952 
L 211.530203 533.507171 
L 212.020174 529.302635 
L 212.265159 529.710842 
L 212.510145 528.976069 
L 212.75513 526.975853 
L 213.000115 527.669806 
L 213.245101 525.66959 
L 213.490086 525.71041 
L 213.735071 522.567214 
L 213.980057 523.587732 
L 214.225042 525.302203 
L 214.470027 523.138704 
L 214.715012 523.587732 
L 214.959998 522.485572 
L 215.204983 522.036544 
L 215.449968 523.057063 
L 215.694954 523.220346 
L 216.184924 526.159438 
L 216.42991 525.832873 
L 216.91988 526.975853 
L 217.164866 530.813002 
L 217.409851 531.874341 
L 217.654836 532.160086 
L 217.899822 538.038272 
L 218.144807 537.058575 
L 219.124748 540.446695 
L 219.369734 544.243024 
L 219.614719 543.426609 
L 219.859704 546.773909 
L 220.349675 544.243024 
L 220.59466 543.998099 
L 220.839645 543.344968 
L 221.329616 539.344536 
L 221.819587 538.242376 
L 222.064572 537.752527 
L 222.309557 536.323801 
L 222.554543 534.201123 
L 223.534484 531.26203 
L 224.024455 531.7927 
L 224.759411 529.343456 
L 225.004396 529.425097 
L 225.249381 527.996371 
L 225.494367 527.588164 
L 225.739352 525.383844 
L 225.984337 525.587948 
L 226.229323 525.220562 
L 226.474308 522.852959 
L 226.719293 518.403499 
L 226.964278 518.934168 
L 227.454249 518.730065 
L 227.699234 517.464622 
L 227.94422 517.505443 
L 228.189205 517.301339 
L 228.679176 519.301555 
L 228.924161 523.179525 
L 229.659117 527.506523 
L 229.904102 528.567862 
L 231.374014 541.303931 
L 231.619 539.793564 
L 231.863985 543.140864 
L 232.10897 542.977581 
L 232.353955 543.385788 
L 232.598941 541.957063 
L 232.843926 544.528769 
L 233.088911 542.528553 
L 233.823867 539.711922 
L 234.068853 538.4873 
L 234.558823 536.732009 
L 234.803809 534.650151 
L 235.048794 533.833737 
L 235.293779 532.527473 
L 235.538765 531.915162 
L 235.78375 530.69054 
L 236.273721 527.261598 
L 240.928442 518.321857 
L 241.173427 518.362678 
L 241.908383 520.362894 
L 242.153368 522.118186 
L 242.398354 526.975853 
L 242.643339 525.628769 
L 242.888324 526.690108 
L 243.13331 530.282333 
L 244.113251 534.486868 
L 244.603221 540.773261 
L 244.848207 544.773693 
L 245.093192 538.977149 
L 245.338177 539.303715 
L 245.583163 541.018186 
L 246.563104 535.874773 
L 247.053075 536.895292 
L 247.29806 534.486868 
L 247.543045 533.221425 
L 247.788031 532.568294 
L 248.033016 531.139568 
L 248.278001 531.22121 
L 248.767972 530.15987 
L 249.012957 530.200691 
L 249.257943 527.628985 
L 249.502928 526.281901 
L 249.747913 525.955335 
L 249.992898 526.118618 
L 250.237884 523.914298 
L 250.727854 522.403931 
L 250.97284 522.771317 
L 251.217825 524.771533 
L 251.707796 518.811706 
L 251.952781 517.505443 
L 252.197766 517.91365 
L 252.442752 519.179093 
L 252.687737 516.729849 
L 253.422693 519.873045 
L 253.667678 517.546263 
L 253.912664 519.138272 
L 254.157649 519.546479 
L 254.402634 519.546479 
L 254.64762 518.648423 
L 254.892605 518.730065 
L 255.382576 519.5873 
L 255.872546 528.853607 
L 256.117531 528.935248 
L 256.362517 534.854255 
L 256.607502 531.588596 
L 256.852487 531.955983 
L 257.342458 534.731793 
L 257.587443 533.874557 
L 257.832429 539.630281 
L 258.077414 540.650799 
L 258.567385 535.507387 
L 258.81237 536.732009 
L 259.057355 536.446263 
L 259.547326 529.792484 
L 259.792311 530.894644 
L 260.037297 530.15987 
L 260.282282 530.486436 
L 260.527267 529.343456 
L 260.772253 529.261814 
L 261.017238 527.996371 
L 261.262223 528.037192 
L 261.507209 524.771533 
L 261.752194 524.200043 
L 261.997179 522.322289 
L 262.48715 521.628337 
L 262.732135 519.628121 
L 262.97712 519.954687 
L 263.222106 519.424017 
L 263.467091 518.199395 
L 263.712076 518.036112 
L 264.447032 512.280389 
L 264.692018 511.994644 
L 264.937003 510.933305 
L 265.181988 510.810842 
L 265.426974 512.36203 
L 265.671959 510.443456 
L 265.916944 510.035248 
L 266.16193 511.586436 
L 266.406915 509.178013 
L 266.6519 510.361814 
L 267.141871 511.463974 
L 267.631842 515.260302 
L 267.876827 514.933737 
L 269.101753 523.301987 
L 269.346739 530.200691 
L 269.836709 527.016674 
L 270.081695 534.03784 
L 270.32668 533.058143 
L 270.571665 533.670454 
L 270.816651 535.344104 
L 271.061636 535.344104 
L 271.551607 532.445832 
L 271.796592 533.343888 
L 272.531548 526.649287 
L 272.776533 525.792052 
L 273.021519 523.506091 
L 273.266504 523.220346 
L 273.511489 522.036544 
L 273.756474 521.424233 
L 274.00146 521.179309 
L 274.246445 518.934168 
L 274.49143 514.811274 
L 275.226386 517.832009 
L 275.471372 517.668726 
L 275.716357 515.097019 
L 275.961342 516.158359 
L 276.206328 514.770454 
L 276.451313 516.158359 
L 276.696298 513.178445 
L 277.186269 513.913218 
L 277.431254 509.58622 
L 277.921225 507.994212 
L 278.16621 505.708251 
L 278.411196 505.300043 
L 278.656181 507.259438 
L 278.901166 505.993996 
L 279.146152 506.606307 
L 279.391137 506.565486 
L 279.636122 507.790108 
L 279.881107 513.260086 
L 280.126093 512.484492 
L 280.371078 514.974557 
L 280.616063 515.13784 
L 280.861049 516.77067 
L 281.106034 516.974773 
L 281.84099 521.056847 
L 282.085975 524.812354 
L 282.330961 526.730929 
L 282.575946 526.486004 
L 282.820931 529.098531 
L 283.065917 529.425097 
L 283.555887 531.629417 
L 283.800873 531.343672 
L 284.045858 527.34324 
L 284.290843 528.935248 
L 284.535829 527.34324 
L 284.780814 526.730929 
L 285.025799 525.383844 
L 285.51577 520.485356 
L 285.760755 521.056847 
L 286.250726 517.423801 
L 286.495711 518.689244 
L 286.740696 517.382981 
L 286.985682 516.729849 
L 287.230667 516.566566 
L 287.475652 516.199179 
L 287.720638 515.219482 
L 287.965623 515.913434 
L 288.455594 512.647775 
L 288.700579 513.790756 
L 288.945564 513.913218 
L 289.19055 511.055767 
L 289.435535 511.055767 
L 289.68052 509.58622 
L 289.925506 507.300259 
L 290.170491 507.218618 
L 290.415476 506.198099 
L 290.660462 507.014514 
L 290.905447 504.524449 
L 291.150432 503.789676 
L 291.395418 505.993996 
L 291.885388 502.850799 
L 292.130373 503.626393 
L 292.375359 503.46311 
L 292.620344 504.075421 
L 293.110315 507.871749 
L 293.3553 507.586004 
L 293.600285 509.912786 
L 293.845271 510.68838 
L 294.090256 512.8927 
L 294.335241 516.607387 
L 295.070197 519.668942 
L 295.315183 520.975205 
L 295.560168 524.975637 
L 295.805153 521.954903 
L 296.050139 527.669806 
L 296.295124 527.220778 
L 296.540109 524.444968 
L 296.785095 524.649071 
L 297.275065 527.098315 
L 297.52005 523.914298 
L 297.765036 523.138704 
L 298.255006 519.505659 
L 298.744977 516.81149 
L 299.234948 513.178445 
L 299.479933 513.749935 
L 299.724918 512.933521 
L 299.969904 510.198531 
L 300.214889 508.973909 
L 300.459874 509.871965 
L 300.70486 509.790324 
L 300.949845 510.770022 
L 301.929786 503.99378 
L 302.174772 503.422289 
L 302.419757 502.442592 
L 302.664742 502.728337 
L 302.909728 501.177149 
L 303.154713 497.666566 
L 303.399698 499.911706 
L 303.644683 499.952527 
L 303.889669 496.074557 
L 304.134654 494.849935 
L 304.379639 498.768726 
L 304.624625 498.523801 
L 304.86961 496.441944 
L 305.114595 500.197451 
L 305.359581 499.095292 
L 305.604566 499.299395 
L 306.094537 501.626177 
L 306.339522 501.993564 
L 306.829493 504.442808 
L 307.074478 508.402419 
L 307.319463 508.157495 
L 307.564449 513.954039 
L 307.809434 516.321641 
L 308.054419 513.954039 
L 308.299405 517.750367 
L 308.54439 515.382765 
L 308.789375 515.178661 
L 309.034361 518.770886 
L 309.279346 520.648639 
L 309.769316 518.607603 
L 310.014302 518.893348 
L 310.259287 517.750367 
L 310.504272 515.995076 
L 310.749258 515.423585 
L 311.239228 512.402851 
L 311.484214 510.810842 
L 311.729199 510.484276 
L 312.464155 507.586004 
L 312.70914 504.728553 
L 313.199111 507.177797 
L 313.444096 504.116242 
L 313.689082 503.503931 
L 314.179052 500.973045 
L 314.424038 501.585356 
L 314.669023 498.809546 
L 314.914008 499.01365 
L 315.158993 496.115378 
L 315.403979 498.401339 
L 315.648964 493.298747 
L 315.893949 494.768294 
L 316.138935 494.890756 
L 316.38392 491.870022 
L 316.873891 495.911274 
L 317.363861 492.768078 
L 317.853832 495.952095 
L 318.098817 494.686652 
L 318.343803 495.298963 
L 318.588788 497.258359 
L 318.833773 497.013434 
L 319.078759 501.299611 
L 319.323744 501.136328 
L 319.813715 505.381685 
L 320.0587 505.504147 
L 320.303685 506.932873 
L 320.548671 507.014514 
L 320.793656 513.178445 
L 321.038641 514.647991 
L 321.283626 512.157927 
L 321.528612 513.790756 
L 321.773597 513.913218 
L 322.018582 513.668294 
L 322.263568 512.239568 
L 322.508553 514.852095 
L 322.753538 514.443888 
L 322.998524 513.790756 
L 323.243509 511.708898 
L 323.488494 511.423153 
L 323.978465 507.545184 
L 324.22345 507.463542 
L 325.203392 503.218186 
L 325.448377 502.728337 
L 325.693362 502.687516 
L 325.938348 499.340216 
L 326.183333 499.503499 
L 326.428318 500.034168 
L 326.673304 500.279093 
L 327.163274 497.993132 
L 327.408259 497.584924 
L 327.653245 496.80933 
L 327.89823 497.87067 
L 328.143215 496.360302 
L 328.388201 496.401123 
L 328.633186 497.789028 
L 329.123157 491.829201 
L 329.368142 493.298747 
L 329.613127 489.747343 
L 329.858113 488.890108 
L 330.103098 490.359654 
L 330.348083 490.808683 
L 330.593069 491.829201 
L 330.838054 490.849503 
L 331.083039 493.380389 
L 331.328025 491.992484 
L 331.57301 494.441728 
L 331.817995 494.605011 
L 332.062981 495.952095 
L 332.307966 501.422073 
L 332.552951 499.258575 
L 333.042922 503.871317 
L 333.287907 504.769374 
L 333.532892 510.280173 
L 333.777878 511.872181 
L 334.022863 512.443672 
L 334.267848 513.46419 
L 334.757819 513.219266 
L 335.002804 514.729633 
L 335.24779 512.402851 
L 335.492775 511.708898 
L 335.73776 508.810626 
L 335.982746 508.973909 
L 336.227731 508.279957 
L 336.717702 504.279525 
L 336.962687 504.810194 
L 337.452658 501.136328 
L 337.697643 500.850583 
L 337.942628 499.789244 
L 338.187614 499.54432 
L 338.432599 499.748423 
L 338.677584 499.503499 
L 338.922569 497.217538 
L 339.167555 496.564406 
L 339.41254 494.319266 
L 339.657525 494.809114 
L 339.902511 496.482765 
L 340.147496 495.829633 
L 340.392481 497.544104 
L 341.372423 488.114514 
L 341.862393 485.420346 
L 342.107379 485.869374 
L 342.352364 485.787732 
L 342.597349 486.971533 
L 342.842335 485.501987 
L 343.08732 485.09378 
L 343.577291 489.420778 
L 343.822276 489.869806 
L 344.067261 491.992484 
L 344.312247 491.543456 
L 344.557232 492.849719 
L 344.802217 495.258143 
L 345.047202 493.543672 
L 345.537173 498.523801 
L 345.782158 499.58514 
L 346.027144 499.952527 
L 346.272129 506.157279 
L 346.7621 503.218186 
L 347.25207 509.382117 
L 347.497056 509.504579 
L 347.987026 504.238704 
L 348.232012 505.912354 
L 348.721982 500.932225 
L 348.966968 501.748639 
L 349.211953 500.483197 
L 349.456938 498.278877 
L 349.701924 498.44216 
L 349.946909 497.503283 
L 350.43688 494.482549 
L 350.681865 493.053823 
L 350.92685 492.482333 
L 351.171835 492.31905 
L 351.906791 489.257495 
L 352.151777 487.828769 
L 352.396762 487.257279 
L 352.641747 487.175637 
L 353.376703 483.705875 
L 353.621689 482.522073 
L 353.866674 483.134384 
L 354.111659 480.930065 
L 354.356645 481.460734 
L 354.60163 478.031793 
L 354.846615 477.133737 
L 355.091601 476.929633 
L 355.336586 476.358143 
L 355.581571 475.215162 
L 355.826557 475.419266 
L 356.071542 476.684708 
L 356.316527 475.419266 
L 356.806498 479.297235 
L 357.051483 480.11365 
L 357.296468 479.664622 
L 357.541454 481.583197 
L 357.786439 485.624449 
L 358.031424 485.420346 
L 358.27641 485.746911 
L 358.521395 487.828769 
L 358.76638 488.563542 
L 359.011366 491.951663 
L 359.256351 492.237408 
L 359.501336 495.543888 
L 359.746322 494.890756 
L 360.236292 499.789244 
L 360.726263 496.523585 
L 360.971248 496.23784 
L 361.216234 497.421641 
L 361.706204 494.033521 
L 361.95119 493.298747 
L 362.44116 489.788164 
L 362.686145 491.21689 
L 362.931131 491.420994 
L 363.176116 493.094644 
L 363.421101 491.21689 
L 363.666087 490.359654 
L 363.911072 488.849287 
L 364.156057 488.318618 
L 364.401043 486.563326 
L 364.646028 483.746695 
L 364.891013 482.644536 
L 365.135999 483.42013 
L 365.625969 482.685356 
L 365.870955 481.011706 
L 366.11594 477.297019 
L 366.360925 477.786868 
L 366.605911 479.54216 
L 366.850896 475.827473 
L 367.095881 477.174557 
L 367.340867 473.99054 
L 367.585852 473.010842 
L 367.830837 473.908898 
L 368.320808 472.561814 
L 368.565793 474.194644 
L 368.810778 473.949719 
L 369.055764 477.623585 
L 369.300749 477.623585 
L 369.545734 476.684708 
L 369.79072 478.848207 
L 370.035705 478.848207 
L 370.28069 480.64432 
L 370.525676 483.99162 
L 370.770661 481.7873 
L 371.015646 485.542808 
L 371.260632 486.23676 
L 371.505617 488.808467 
L 371.750602 490.155551 
L 371.995588 493.339568 
L 372.240573 493.951879 
L 372.730544 498.523801 
L 372.975529 496.605227 
L 373.220514 496.564406 
L 373.4655 497.91149 
L 373.710485 495.870454 
L 373.95547 495.298963 
L 374.200456 494.115162 
L 374.445441 493.706955 
L 374.690426 490.727041 
L 374.935411 491.461814 
L 375.180397 491.012786 
L 375.425382 487.951231 
L 375.670367 487.053175 
L 375.915353 486.644968 
L 376.160338 486.808251 
L 376.405323 486.19594 
L 376.650309 486.644968 
L 376.895294 484.808035 
L 377.140279 481.297451 
L 377.385265 481.093348 
L 377.63025 479.909546 
L 377.875235 481.828121 
L 378.120221 478.889028 
L 378.365206 478.235896 
L 378.610191 479.338056 
L 379.590133 473.541512 
L 379.835118 471.296371 
L 380.080103 471.459654 
L 380.325088 473.133305 
L 380.570074 469.826825 
L 380.815059 469.867646 
L 381.060044 470.561598 
L 381.30503 470.68406 
L 381.550015 469.051231 
L 381.795 470.11257 
L 382.039986 472.112786 
L 382.284971 471.827041 
L 382.529956 472.88838 
L 383.019927 477.541944 
L 383.264912 481.624017 
L 383.509898 479.501339 
L 383.754883 482.522073 
L 383.999868 483.052743 
L 384.244854 484.481469 
L 384.489839 488.767646 
L 384.734824 490.482117 
L 384.97981 488.155335 
L 385.224795 491.951663 
L 385.46978 493.706955 
L 385.714766 492.931361 
L 385.959751 493.951879 
L 386.204736 493.870238 
L 386.449721 491.747559 
L 386.694707 490.767862 
L 386.939692 488.563542 
L 387.184677 489.175853 
L 387.429663 489.298315 
L 387.674648 487.787948 
L 387.919633 485.338704 
L 388.409604 483.705875 
L 388.654589 481.297451 
L 388.899575 480.64432 
L 389.14456 479.501339 
L 389.389545 479.746263 
L 390.124501 476.603067 
L 390.369487 476.970454 
L 390.614472 475.623369 
L 390.859457 472.602635 
L 391.104443 475.786652 
L 391.349428 474.439568 
L 391.594413 471.21473 
L 391.839399 473.092484 
L 392.084384 467.989892 
L 392.329369 466.601987 
L 392.574354 468.520562 
L 393.30931 466.561166 
L 393.554296 468.234816 
L 393.799281 467.132657 
L 394.044266 463.744536 
L 394.534237 468.112354 
L 394.779222 467.010194 
L 395.759164 471.949503 
L 396.249134 475.827473 
L 396.739105 478.889028 
L 396.98409 483.256847 
L 397.229076 483.093564 
L 397.719046 486.930713 
L 397.964032 485.542808 
L 398.454002 492.35987 
L 398.698987 490.604579 
L 398.943973 489.747343 
L 399.188958 487.543024 
L 399.433943 489.298315 
L 399.678929 489.869806 
L 400.168899 484.154903 
L 400.65887 483.052743 
L 400.903855 481.21581 
L 401.148841 480.481037 
L 401.393826 478.072613 
L 401.883797 475.378445 
L 402.128782 475.990756 
L 402.373767 473.092484 
L 402.618753 472.684276 
L 402.863738 472.765918 
L 403.108723 471.990324 
L 403.353709 472.31689 
L 403.843679 471.092268 
L 404.578635 465.050799 
L 404.82362 465.418186 
L 405.313591 461.662678 
L 405.803562 460.927905 
L 406.048547 458.233737 
L 406.293532 458.152095 
L 406.538518 459.499179 
L 406.783503 457.988812 
L 407.028488 458.478661 
L 407.518459 460.152311 
L 408.00843 461.295292 
L 408.4984 465.09162 
L 408.743386 465.050799 
L 408.988371 467.132657 
L 409.478342 473.623153 
L 409.723327 473.745616 
L 409.968312 474.317106 
L 410.213297 474.276285 
L 410.703268 480.970886 
L 410.948253 477.33784 
L 411.193239 481.991404 
L 411.438224 484.073261 
L 411.928195 479.705443 
L 412.17318 479.705443 
L 412.418165 478.807387 
L 412.663151 477.215378 
L 412.908136 477.623585 
L 413.153121 475.337624 
L 413.643092 472.847559 
L 414.378048 468.561382 
L 414.623033 466.846911 
L 414.868019 468.479741 
L 415.113004 467.010194 
L 415.602975 461.662678 
L 415.84796 465.499827 
L 416.092945 464.969158 
L 416.33793 462.805659 
L 416.582916 462.642376 
L 416.827901 460.315594 
L 417.072886 461.009546 
L 417.562857 455.743672 
L 417.807842 457.009114 
L 418.052828 453.294428 
L 418.297813 453.498531 
L 418.542798 455.417106 
L 418.787784 453.049503 
L 419.277754 452.8454 
L 419.52274 453.98838 
L 419.767725 453.661814 
L 420.01271 451.294212 
L 420.257696 452.31473 
L 420.747666 455.743672 
L 420.992652 454.51905 
L 421.237637 458.192916 
L 421.482622 458.478661 
L 421.727607 461.621857 
L 421.972593 462.683197 
L 422.462563 466.152959 
L 422.707549 467.908251 
L 422.952534 468.071533 
L 423.197519 470.071749 
L 423.68749 476.970454 
L 423.932475 476.19486 
L 424.177461 474.643672 
L 424.422446 477.33784 
L 424.667431 475.909114 
L 424.912417 473.582333 
L 425.157402 472.929201 
L 425.647373 470.194212 
L 425.892358 470.071749 
L 426.872299 464.887516 
L 427.117285 465.009978 
L 427.36227 464.193564 
L 427.607255 464.030281 
L 428.342211 457.539784 
L 428.587196 457.743888 
L 428.832182 459.213434 
L 429.077167 458.519482 
L 429.322152 458.192916 
L 429.567138 456.845832 
L 429.812123 454.110842 
L 430.057108 455.580389 
L 430.302094 449.089892 
L 430.547079 449.987948 
L 430.792064 452.559654 
L 431.52702 446.722289 
L 432.016991 449.661382 
L 432.261976 445.66095 
L 432.506962 446.640648 
L 432.751947 445.375205 
L 432.996932 447.048855 
L 433.241918 449.579741 
L 433.731888 449.171533 
L 434.221859 453.98838 
L 434.711829 457.988812 
L 434.956815 457.213218 
L 435.446785 460.682981 
L 435.691771 467.29594 
L 435.936756 467.704147 
L 436.181741 469.54108 
L 436.426727 468.724665 
L 436.671712 472.520994 
L 436.916697 469.132873 
L 437.161683 469.132873 
L 437.406668 469.704363 
L 437.651653 470.64324 
L 438.87658 462.724017 
L 439.121565 461.458575 
L 439.366551 459.335896 
L 439.611536 458.274557 
L 439.856521 457.784708 
L 440.101506 455.702851 
L 440.346492 454.600691 
L 440.591477 455.335464 
L 440.836462 451.661598 
L 441.081448 451.21257 
L 441.326433 453.049503 
L 441.571418 452.682117 
L 441.816404 450.477797 
L 442.061389 452.192268 
L 442.306374 447.906091 
L 442.55136 446.926393 
L 443.286316 440.966566 
L 443.531301 443.41581 
L 443.776286 441.17067 
L 444.021272 442.027905 
L 444.511242 438.884708 
L 444.756228 439.741944 
L 445.001213 439.456199 
L 445.246198 441.293132 
L 445.491183 438.027473 
L 445.736169 439.456199 
L 445.981154 439.415378 
L 446.471125 443.456631 
L 446.71611 443.293348 
L 446.961095 445.987516 
L 447.206081 451.130929 
L 447.451066 449.457279 
L 447.696051 453.335248 
L 447.941037 454.192484 
L 448.186022 454.233305 
L 448.431007 454.070022 
L 448.675993 457.254039 
L 448.920978 458.723585 
L 449.165963 462.397451 
L 449.410949 464.316026 
L 449.655934 461.254471 
L 449.900919 462.111706 
L 450.145905 461.948423 
L 450.880861 458.723585 
L 451.125846 457.376501 
L 451.860802 455.62121 
L 452.840743 450.273693 
L 453.575699 447.538704 
L 453.820684 447.701987 
L 454.06567 446.885572 
L 454.310655 442.721857 
L 454.55564 444.885356 
L 454.800626 444.232225 
L 455.045611 440.558359 
L 455.290596 442.068726 
L 455.535582 440.803283 
L 455.780567 437.333521 
L 456.270538 435.170022 
L 456.515523 434.884276 
L 456.760508 433.700475 
L 457.005494 435.65987 
L 457.250479 433.047343 
L 457.495464 432.802419 
L 457.740449 433.618834 
L 457.985435 434.027041 
L 458.23042 433.822937 
L 458.720391 434.680173 
L 458.965376 437.660086 
L 459.210361 438.354039 
L 459.455347 440.762462 
L 459.700332 441.497235 
L 459.945317 446.028337 
L 460.190303 444.191404 
L 461.170244 454.968078 
L 461.415229 454.314946 
L 461.660215 456.478445 
L 461.9052 457.172397 
L 462.150185 458.315378 
L 462.395171 461.581037 
L 463.620097 455.008898 
L 464.355053 450.886004 
L 464.600038 447.906091 
L 464.845024 447.946911 
L 465.090009 447.457063 
L 465.334994 446.477365 
L 465.57998 444.109762 
L 465.824965 443.905659 
L 466.06995 443.456631 
L 466.804906 439.782765 
L 467.049892 437.129417 
L 467.294877 440.517538 
L 467.539862 440.395076 
L 467.784848 436.108898 
L 468.029833 434.190324 
L 468.274818 434.394428 
L 468.519804 433.700475 
L 468.764789 433.578013 
L 469.009774 432.965702 
L 469.499745 430.761382 
L 469.74473 427.536544 
L 469.989715 429.414298 
L 470.234701 430.026609 
L 470.479686 427.536544 
L 470.724671 428.312138 
L 470.969657 428.312138 
L 471.214642 430.843024 
L 471.459627 430.761382 
L 471.704613 430.924665 
L 472.439569 436.76203 
L 472.684554 436.802851 
L 472.929539 437.660086 
L 473.174525 439.701123 
L 473.664495 444.803715 
L 473.909481 446.232441 
L 474.154466 451.906523 
L 474.399451 449.620562 
L 474.644437 450.722721 
L 475.134407 457.621425 
L 475.379392 455.988596 
L 475.624378 452.8454 
L 475.869363 454.845616 
L 476.114348 453.457711 
L 476.359334 450.355335 
L 476.604319 451.21257 
L 477.09429 446.19162 
L 477.339275 445.538488 
L 477.58426 445.62013 
L 477.829246 443.293348 
L 478.074231 442.150367 
L 478.564202 441.21149 
L 478.809187 439.170454 
L 479.054172 438.639784 
L 479.299158 439.946048 
L 480.034114 433.741296 
L 480.279099 434.843456 
L 480.524084 433.455551 
L 480.76907 435.333305 
L 481.014055 434.51689 
L 481.25904 428.475421 
L 481.504025 429.49594 
L 481.749011 428.638704 
L 481.993996 425.0873 
L 482.728952 422.760518 
L 482.973937 422.882981 
L 483.218923 421.495076 
L 483.463908 421.16851 
L 484.198864 422.189028 
L 484.443849 424.474989 
L 484.688835 424.760734 
L 485.178805 426.311922 
L 485.423791 429.822505 
L 485.668776 430.108251 
L 485.913761 434.435248 
L 486.158747 432.598315 
L 486.403732 438.109114 
L 486.648717 436.313002 
L 486.893702 437.700907 
L 487.138688 445.293564 
L 487.383673 445.08946 
L 487.628658 445.62013 
L 487.873644 445.130281 
L 488.363614 446.069158 
L 488.6086 444.599611 
L 489.09857 443.579093 
L 489.343556 441.823801 
L 489.833526 440.313434 
L 490.078512 438.190756 
L 490.323497 437.496803 
L 490.813468 431.292052 
L 491.058453 430.434816 
L 491.303438 431.006307 
L 491.548424 429.169374 
L 491.793409 430.475637 
L 492.038394 430.353175 
L 492.28338 427.659006 
L 492.77335 425.985356 
L 493.018335 427.005875 
L 493.263321 425.536328 
L 493.508306 424.760734 
L 493.753291 424.474989 
L 493.998277 422.433952 
L 494.243262 421.495076 
L 495.468189 414.228985 
L 495.713174 414.188164 
L 495.958159 413.004363 
L 496.44813 416.065918 
L 496.693115 415.820994 
L 496.938101 416.147559 
L 497.183086 416.678229 
L 497.428071 418.800907 
L 497.673057 419.331577 
L 498.163027 422.474773 
L 498.408013 423.41365 
L 498.897983 428.312138 
L 499.142968 428.026393 
L 500.12291 442.232009 
L 500.367895 439.292916 
L 500.61288 439.53784 
L 500.857866 441.456415 
L 501.102851 440.06851 
L 501.347836 439.619482 
L 501.592822 437.129417 
L 501.837807 438.109114 
L 502.082792 436.72121 
L 502.817748 429.659222 
L 503.062734 430.271533 
L 503.79769 426.311922 
L 504.042675 426.352743 
L 504.532646 424.597451 
L 504.777631 424.597451 
L 505.022616 424.311706 
L 505.267601 420.760302 
L 505.512587 422.433952 
L 505.757572 421.290972 
L 506.247543 417.453823 
L 507.227484 411.371533 
L 507.472469 412.31041 
L 507.717455 412.147127 
L 508.207425 409.085572 
L 508.452411 408.840648 
L 508.697396 407.166998 
L 508.942381 407.697667 
L 509.187367 411.779741 
L 509.432352 408.228337 
L 509.677337 410.514298 
L 510.167308 412.963542 
L 510.902264 417.453823 
L 511.147249 419.005011 
L 511.882205 426.066998 
L 512.372176 427.373261 
L 512.617161 429.904147 
L 512.862146 427.740648 
L 513.352117 435.210842 
L 513.597102 436.557927 
L 513.842088 435.455767 
L 514.087073 435.006739 
L 514.332058 432.435032 
L 514.577044 432.067646 
L 514.822029 431.414514 
L 515.556985 426.271102 
L 515.80197 423.617754 
L 516.046956 423.332009 
L 516.291941 422.066566 
L 516.536926 424.107603 
L 516.781911 419.49486 
L 517.026897 418.923369 
L 517.271882 420.352095 
L 517.761853 418.841728 
L 518.006838 419.821425 
L 518.496809 415.902635 
L 518.741794 415.820994 
L 518.986779 416.392484 
L 519.231765 418.066134 
L 519.47675 415.739352 
L 519.721735 407.86095 
L 519.966721 409.003931 
L 520.456691 406.677149 
L 520.701677 407.085356 
L 520.946662 403.574773 
L 521.191647 404.432009 
L 521.681618 403.452311 
L 521.926603 403.860518 
L 522.171589 403.656415 
L 522.416574 405.493348 
L 522.661559 406.268942 
L 522.906544 406.513866 
L 523.15153 408.799827 
L 523.396515 409.738704 
L 523.6415 413.494212 
L 524.131471 414.963758 
L 524.621442 419.780605 
L 524.866427 422.393132 
L 525.111412 422.27067 
L 525.601383 424.597451 
L 525.846368 423.495292 
L 526.091354 427.128337 
L 526.336339 426.801771 
L 526.581324 428.924449 
L 526.82631 428.39378 
L 527.071295 428.883629 
L 527.561266 424.107603 
L 527.806251 423.372829 
L 528.051236 422.229849 
L 528.296221 421.862462 
L 528.786192 416.963974 
L 529.031177 417.576285 
L 529.521148 416.310842 
L 530.011119 411.044968 
L 530.256104 411.453175 
L 530.501089 412.718618 
L 530.746075 412.432873 
L 530.99106 412.922721 
L 531.481031 410.310194 
L 531.726016 406.513866 
L 531.971001 409.085572 
L 532.705957 403.533952 
L 532.950943 401.003067 
L 533.195928 403.248207 
L 533.440913 399.4927 
L 533.685899 398.676285 
L 533.930884 398.513002 
L 534.175869 396.18622 
L 534.420854 397.329201 
L 534.66584 396.553607 
L 535.15581 397.614946 
L 535.400796 399.574341 
L 535.645781 400.268294 
L 535.890766 400.513218 
L 536.135752 405.330065 
L 536.380737 405.003499 
L 536.625722 408.96311 
L 536.870708 406.350583 
L 537.115693 408.269158 
L 537.360678 411.902203 
L 537.605664 409.983629 
L 537.850649 412.473693 
L 538.095634 417.780389 
L 538.34062 416.392484 
L 539.320561 422.678877 
L 539.565546 420.352095 
L 540.055517 418.474341 
L 540.300502 418.025313 
L 541.280443 410.514298 
L 541.525429 410.881685 
L 541.770414 410.228553 
L 542.50537 406.309762 
L 542.750355 404.268726 
L 542.995341 404.554471 
L 543.730297 398.023153 
L 543.975282 400.06419 
L 544.220267 399.125313 
L 544.465253 394.961598 
L 544.710238 393.614514 
L 544.955223 397.696587 
L 545.200209 398.104795 
L 545.445194 396.267862 
L 545.690179 392.593996 
L 545.935165 390.797883 
L 546.18015 392.512354 
L 546.425135 389.001771 
L 546.67012 388.062894 
L 546.915106 389.981469 
L 547.160091 387.777149 
L 547.405076 386.879093 
L 547.650062 388.185356 
L 547.895047 388.266998 
L 548.140032 388.185356 
L 548.630003 392.26743 
L 548.874988 392.716458 
L 549.119974 394.839136 
L 549.364959 394.471749 
L 549.85493 400.676501 
L 550.099915 401.411274 
L 550.3449 404.064622 
L 550.589886 403.248207 
L 550.834871 406.840432 
L 551.079856 407.779309 
L 551.324842 410.432657 
L 551.569827 409.5346 
L 551.814812 412.636976 
L 552.059797 410.06527 
L 552.304783 409.820346 
L 552.549768 410.59594 
L 552.794753 407.575205 
L 553.039739 408.105875 
L 553.284724 406.105659 
L 553.529709 405.656631 
L 554.01968 403.248207 
L 554.264665 403.166566 
L 554.754636 398.676285 
L 554.999621 399.655983 
L 555.244607 395.369806 
L 555.734577 393.043024 
L 555.979563 394.920778 
L 556.224548 392.675637 
L 556.714519 394.390108 
L 556.959504 392.022505 
L 557.204489 390.961166 
L 557.449475 392.185788 
L 557.69446 391.001987 
L 557.939445 390.6346 
L 558.18443 386.838272 
L 558.429416 386.511706 
L 559.164372 380.5927 
L 559.409357 381.041728 
L 559.654342 383.246048 
L 559.899328 381.368294 
L 560.144313 382.103067 
L 560.389298 381.613218 
L 560.634284 381.449935 
L 560.879269 384.348207 
L 561.124254 385.246263 
L 561.36924 385.123801 
L 561.614225 386.756631 
L 561.85921 385.695292 
L 562.349181 392.104147 
L 562.594166 392.022505 
L 563.084137 395.982117 
L 563.574108 403.37067 
L 563.819093 401.901123 
L 564.064078 403.982981 
L 564.309063 407.534384 
L 564.554049 407.942592 
L 565.044019 405.248423 
L 565.289005 406.1873 
L 565.53399 404.146263 
L 566.023961 402.431793 
L 566.268946 399.860086 
L 566.513931 398.594644 
L 566.758917 399.166134 
L 567.003902 396.594428 
L 567.248887 396.308683 
L 567.493873 395.002419 
L 567.738858 394.553391 
L 567.983843 391.083629 
L 568.228829 390.961166 
L 568.473814 390.6346 
L 568.963785 388.96095 
L 569.20877 388.266998 
L 569.453755 384.633952 
L 569.943726 385.572829 
L 570.188711 381.776501 
L 570.433696 384.756415 
L 570.678682 381.286652 
L 570.923667 384.021641 
L 571.168652 380.837624 
L 571.413638 379.939568 
L 571.658623 381.041728 
L 571.903608 377.857711 
L 572.148594 379.898747 
L 572.393579 375.326825 
L 572.88355 376.592268 
L 573.128535 376.020778 
L 573.37352 376.469806 
L 573.618506 378.020994 
L 573.863491 381.898963 
L 574.108476 382.552095 
L 574.353462 381.449935 
L 574.598447 382.592916 
L 574.843432 388.756847 
L 575.088418 386.389244 
L 575.333403 385.817754 
L 575.578388 390.59378 
L 576.068359 393.165486 
L 576.558329 401.043888 
L 576.803315 402.023585 
L 577.0483 399.655983 
L 577.293285 401.125529 
L 577.538271 401.329633 
L 577.783256 400.59486 
L 578.028241 400.676501 
L 578.273227 399.084492 
L 578.518212 399.084492 
L 579.008183 394.390108 
L 579.253168 392.675637 
L 579.498153 392.104147 
L 579.988124 388.471102 
L 580.233109 389.328337 
L 580.72308 385.123801 
L 580.968065 387.654687 
L 581.213051 385.817754 
L 581.703021 384.51149 
L 581.948006 383.776717 
L 582.192992 383.776717 
L 582.437977 378.95987 
L 582.682962 381.286652 
L 583.417918 373.734816 
L 583.662904 376.71473 
L 583.907889 372.714298 
L 584.152874 371.16311 
L 584.39786 373.122505 
L 584.642845 367.611706 
L 584.88783 367.407603 
L 585.377801 368.632225 
L 585.622786 364.182765 
L 586.112757 370.346695 
L 586.357742 370.59162 
L 586.602728 371.571317 
L 586.847713 371.938704 
L 587.337684 375.449287 
L 587.582669 378.38838 
L 587.827654 383.654255 
L 588.072639 383.450151 
L 588.56261 386.348423 
L 589.052581 392.593996 
L 589.297566 391.981685 
L 589.542551 392.634816 
L 589.787537 396.431145 
L 590.032522 397.614946 
L 590.277507 398.227257 
L 590.522493 398.145616 
L 591.012463 394.757495 
L 591.257449 394.022721 
L 591.502434 390.961166 
L 591.747419 389.777365 
L 591.992405 390.59378 
L 592.23739 389.369158 
L 592.482375 387.368942 
L 592.727361 386.593348 
L 593.217331 383.817538 
L 593.952287 380.347775 
L 594.197272 379.857927 
L 594.442258 380.796803 
L 594.687243 380.429417 
L 595.177214 375.204363 
L 595.667184 378.265918 
L 596.157155 373.285788 
L 596.647126 370.754903 
L 596.892111 370.142592 
L 597.137096 368.428121 
L 597.382082 365.325745 
L 597.627067 367.366782 
L 597.872052 365.57067 
L 598.117038 365.407387 
L 598.362023 370.02013 
L 598.851994 363.284708 
L 599.096979 364.182765 
L 599.831935 370.632441 
L 600.07692 370.550799 
L 600.566891 379.123153 
L 600.811876 380.225313 
L 601.056861 384.756415 
L 601.301847 383.36851 
L 601.546832 383.40933 
L 601.791817 386.389244 
L 602.036803 387.409762 
L 602.281788 390.716242 
L 602.526773 390.185572 
L 602.771759 395.451447 
L 603.016744 393.900259 
L 603.261729 390.430497 
L 603.7517 391.900043 
L 603.996685 390.797883 
L 604.241671 390.59378 
L 604.486656 388.838488 
L 604.731641 389.369158 
L 604.976627 386.470886 
L 605.221612 386.18514 
L 605.466597 385.327905 
L 605.711582 383.205227 
L 605.956568 382.83784 
L 606.691524 376.71473 
L 606.936509 377.694428 
L 607.181494 377.939352 
L 607.42648 376.428985 
L 607.671465 378.102635 
L 607.91645 375.61257 
L 608.161436 375.081901 
L 608.406421 373.775637 
L 608.651406 370.877365 
L 608.896392 370.346695 
L 609.141377 371.938704 
L 609.386362 368.999611 
L 609.631348 367.693348 
L 609.876333 368.91797 
L 610.366304 364.182765 
L 610.611289 365.856415 
L 610.856274 365.203283 
L 611.10126 361.447775 
L 611.346245 361.774341 
L 611.59123 362.876501 
L 611.836215 365.162462 
L 612.081201 364.631793 
L 612.326186 366.999395 
L 612.571171 367.734168 
L 612.816157 372.79594 
L 613.306127 372.020346 
L 613.551113 377.776069 
L 613.796098 378.470022 
L 614.041083 381.082549 
L 614.286069 380.796803 
L 614.531054 385.082981 
L 614.776039 385.817754 
L 615.021025 387.532225 
L 615.26601 391.900043 
L 615.510995 389.532441 
L 615.755981 389.328337 
L 616.000966 389.573261 
L 616.245951 389.287516 
L 616.490937 388.756847 
L 616.735922 386.919914 
L 616.980907 387.205659 
L 618.205834 379.49054 
L 618.450819 378.429201 
L 619.185775 371.816242 
L 619.43076 371.897883 
L 619.675746 370.632441 
L 619.920731 371.040648 
L 620.165716 369.203715 
L 620.410702 370.387516 
L 620.655687 369.897667 
L 620.900672 368.224017 
L 621.145658 365.693132 
L 621.390643 369.244536 
L 621.880614 362.223369 
L 622.125599 360.835464 
L 622.370584 361.447775 
L 622.61557 360.05987 
L 622.860555 359.855767 
L 623.10554 358.712786 
L 623.350525 354.998099 
L 623.595511 357.528985 
L 623.840496 358.38622 
L 624.085481 356.916674 
L 624.330467 356.386004 
L 624.575452 359.937408 
L 624.820437 359.814946 
L 625.065423 360.386436 
L 625.310408 361.325313 
L 626.045364 366.509546 
L 626.290349 368.264838 
L 626.535335 369.040432 
L 627.025305 374.306307 
L 627.270291 373.857279 
L 627.515276 378.91905 
L 628.005247 378.592484 
L 628.250232 382.715378 
L 628.495217 382.511274 
L 628.740203 382.715378 
L 629.475158 378.878229 
L 629.720144 377.980173 
L 630.210114 374.755335 
L 630.4551 372.591836 
L 630.700085 371.857063 
L 630.94507 370.550799 
L 631.190056 367.693348 
L 631.435041 367.203499 
L 631.680026 367.611706 
L 631.925012 366.101339 
L 632.169997 365.448207 
L 632.414982 362.998963 
L 632.659968 363.652095 
L 632.904953 363.978661 
L 633.394924 359.692484 
L 633.639909 360.549719 
L 633.884894 358.590324 
L 634.12988 355.120562 
L 634.374865 359.080173 
L 634.61985 360.05987 
L 634.864835 355.936976 
L 635.109821 348.589244 
L 635.354806 350.05879 
L 635.599791 350.466998 
L 635.844777 352.303931 
L 636.089762 349.4873 
L 636.334747 350.875205 
L 636.579733 347.323801 
L 636.824718 347.038056 
L 637.069703 349.936328 
L 637.314689 348.099395 
L 637.804659 352.018186 
L 638.049645 352.630497 
L 639.029586 357.651447 
L 639.519557 362.26419 
L 639.764542 367.325961 
L 640.009527 369.326177 
L 640.254513 366.958575 
L 640.499498 374.796156 
L 640.744483 370.183413 
L 640.989468 369.856847 
L 641.234454 371.408035 
L 641.479439 374.020562 
L 641.724424 373.653175 
L 641.96941 373.857279 
L 642.214395 372.061166 
L 642.45938 371.285572 
L 642.704366 367.366782 
L 644.419263 360.427257 
L 644.664248 356.998315 
L 644.909234 356.671749 
L 645.154219 355.651231 
L 645.64419 354.957279 
L 646.13416 351.283413 
L 646.379146 351.773261 
L 646.624131 347.609546 
L 647.114101 349.079093 
L 647.604072 345.527689 
L 647.849057 346.303283 
L 648.339028 344.058143 
L 648.584013 346.058359 
L 648.828999 343.078445 
L 649.073984 343.93568 
L 649.563955 340.58838 
L 649.80894 341.853823 
L 650.053925 344.180605 
L 650.298911 342.833521 
L 650.543896 342.506955 
L 650.788881 343.609114 
L 651.033867 346.466566 
L 651.278852 346.915594 
L 652.013808 352.426393 
L 652.258793 356.753391 
L 652.503779 355.447127 
L 652.748764 358.753607 
L 652.993749 360.549719 
L 653.238734 360.672181 
L 653.48372 364.590972 
L 653.728705 364.754255 
L 653.97369 367.734168 
L 654.218676 367.897451 
L 654.463661 366.264622 
L 654.708646 365.978877 
L 654.953632 364.550151 
L 655.198617 364.550151 
L 655.443602 364.264406 
L 655.688588 361.855983 
L 655.933573 360.753823 
L 656.178558 358.91689 
L 656.423544 358.263758 
L 656.913514 353.038704 
L 657.1585 353.89594 
L 657.403485 353.283629 
L 657.64847 351.936544 
L 657.893456 351.732441 
L 658.138441 351.079309 
L 658.383426 349.650583 
L 658.628411 350.58946 
L 658.873397 346.874773 
L 659.118382 347.568726 
L 659.608353 345.60933 
L 659.853338 346.997235 
L 660.098323 346.874773 
L 661.078265 338.465702 
L 661.32325 336.66959 
L 661.568235 336.261382 
L 661.813221 336.383844 
L 662.058206 336.220562 
L 662.303191 335.281685 
L 663.038147 340.629201 
L 663.528118 341.363974 
L 663.773103 342.874341 
L 664.018089 343.160086 
L 664.99803 350.099611 
L 665.243015 350.222073 
L 665.488 353.201987 
L 665.732986 357.773909 
L 665.977971 357.161598 
L 666.222956 361.12121 
L 666.467942 362.876501 
L 666.712927 363.611274 
L 666.957912 364.713434 
L 667.202898 361.733521 
L 667.447883 361.937624 
L 667.692868 359.570022 
L 667.937854 359.325097 
L 668.427824 354.998099 
L 668.67281 355.528769 
L 668.917795 353.120346 
L 669.16278 349.609762 
L 669.407766 347.732009 
L 669.652751 347.81365 
L 669.897736 346.507387 
L 670.142722 343.160086 
L 670.387707 342.547775 
L 670.877677 342.098747 
L 671.122663 341.976285 
L 671.612633 339.200475 
L 671.857619 341.404795 
L 672.102604 339.118834 
L 672.347589 333.89378 
L 672.83756 336.751231 
L 673.327531 328.954471 
L 673.572516 328.464622 
L 673.817501 328.505443 
L 674.062487 331.077149 
L 674.307472 327.607387 
L 674.552457 326.505227 
L 675.042428 329.199395 
L 675.287413 324.505011 
L 675.532399 324.341728 
L 675.777384 325.525529 
L 676.267354 329.076933 
L 676.51234 329.811706 
L 676.757325 331.077149 
L 677.00231 333.159006 
L 677.247296 332.628337 
L 677.492281 333.852959 
L 677.982252 337.526825 
L 678.227237 340.874125 
L 678.472222 340.914946 
L 678.717208 346.548207 
L 678.962193 344.547991 
L 679.452164 349.609762 
L 679.697149 349.201555 
L 679.942134 347.527905 
L 680.18712 346.874773 
L 680.432105 345.690972 
L 680.67709 345.56851 
L 680.922076 344.711274 
L 682.881958 333.771317 
L 683.371929 331.771102 
L 683.616914 332.056847 
L 683.861899 329.893348 
L 684.106885 326.13784 
L 684.35187 326.382765 
L 684.596855 327.566566 
L 684.841841 326.954255 
L 685.331811 330.709762 
L 685.576797 324.790756 
L 686.066767 320.422937 
L 686.556738 316.585788 
L 687.046709 321.770022 
L 687.536679 317.647127 
L 688.02665 319.44324 
L 688.271635 321.402635 
L 688.51662 319.075853 
L 689.006591 323.198747 
L 689.251576 323.198747 
L 689.496562 325.158143 
L 689.741547 322.463974 
L 690.231518 328.546263 
L 690.476503 333.36311 
L 690.721488 332.669158 
L 690.966474 336.261382 
L 691.456444 338.710626 
L 691.70143 346.67067 
L 692.1914 342.425313 
L 692.436386 344.547991 
L 692.681371 344.997019 
L 692.926356 342.996803 
L 693.171342 343.690756 
L 693.416327 340.58838 
L 693.661312 340.139352 
L 694.151283 336.302203 
L 694.396268 336.343024 
L 695.131224 330.791404 
L 695.376209 330.995508 
L 695.621195 330.097451 
L 695.86618 328.178877 
L 696.111165 328.627905 
L 696.356151 326.627689 
L 696.601136 323.32121 
L 696.846121 325.688812 
L 697.091107 326.382765 
L 697.336092 324.423369 
L 697.581077 325.280605 
L 697.826063 324.627473 
L 698.071048 322.586436 
L 698.316033 322.668078 
L 698.561019 319.035032 
L 698.806004 319.524881 
L 699.050989 318.790108 
L 699.295975 315.646911 
L 699.54096 315.238704 
L 699.785945 314.46311 
L 700.03093 317.443024 
L 700.275916 317.483844 
L 700.520901 315.56527 
L 700.765886 314.830497 
L 701.010872 315.238704 
L 701.255857 314.952959 
L 701.500842 316.055119 
L 701.745828 315.606091 
L 702.235798 319.116674 
L 702.480784 322.341512 
L 702.725769 321.851663 
L 702.970754 323.647775 
L 703.21574 326.70933 
L 703.460725 327.689028 
L 703.70571 329.321857 
L 704.195681 334.261166 
L 704.440666 334.138704 
L 704.930637 337.935032 
L 705.175622 337.975853 
L 705.420608 337.159438 
L 705.665593 337.649287 
L 705.910578 336.302203 
L 706.155563 336.13892 
L 706.400549 333.403931 
L 706.890519 330.750583 
L 707.135505 328.097235 
L 707.38049 329.48514 
L 707.870461 324.055983 
L 708.115446 325.443888 
L 708.605417 323.402851 
L 708.850402 323.239568 
L 709.095387 321.565918 
L 709.340373 322.627257 
L 709.830343 317.075637 
L 710.075329 317.76959 
L 710.320314 315.56527 
L 710.565299 317.565486 
L 710.810285 313.442592 
L 711.05527 313.565054 
L 711.300255 313.932441 
L 711.545241 314.952959 
L 711.790226 314.095724 
L 712.035211 311.483197 
L 712.280196 311.401555 
L 712.525182 310.054471 
L 712.770167 311.11581 
L 713.015152 307.360302 
L 713.260138 306.339784 
L 713.505123 307.278661 
L 713.750108 306.462246 
L 713.995094 306.66635 
L 714.240079 309.646263 
L 714.485064 310.830065 
L 714.73005 310.58514 
L 714.975035 311.156631 
L 715.465006 316.830713 
L 715.709991 317.443024 
L 716.444947 324.219266 
L 716.934918 326.464406 
L 717.179903 328.668726 
L 717.669874 330.424017 
L 717.914859 332.750799 
L 718.159844 332.954903 
L 718.404829 331.444536 
L 718.649815 332.26095 
L 719.139785 327.403283 
L 719.384771 327.607387 
L 719.629756 326.954255 
L 720.119727 321.198531 
L 720.364712 320.912786 
L 720.854683 317.524665 
L 721.344653 316.177581 
L 721.834624 313.769158 
L 722.079609 310.58514 
L 722.324595 312.952743 
L 722.56958 311.360734 
L 722.814565 311.034168 
L 723.059551 311.401555 
L 723.304536 309.115594 
L 723.549521 309.564622 
L 723.794506 308.829849 
L 724.039492 309.238056 
L 724.284477 308.666566 
L 724.529462 305.441728 
L 724.774448 304.625313 
L 725.019433 304.42121 
L 725.509404 300.624881 
L 725.754389 299.359438 
L 725.999374 302.747559 
L 726.24436 301.563758 
L 726.489345 298.787948 
L 726.979316 299.849287 
L 727.224301 302.053607 
L 727.469286 300.502419 
L 727.714272 304.706955 
L 727.959257 304.094644 
L 728.694213 310.054471 
L 728.939198 310.993348 
L 729.429169 318.749287 
L 729.674154 319.402419 
L 729.919139 322.463974 
L 730.164125 317.279741 
L 730.40911 318.218618 
L 730.899081 323.076285 
L 731.144066 324.260086 
L 731.389051 322.79054 
L 731.634037 318.626825 
L 731.879022 321.157711 
L 732.124007 316.13676 
L 732.368993 316.626609 
L 732.858963 311.973045 
L 733.103949 312.136328 
L 733.348934 309.401339 
L 733.593919 308.91149 
L 734.08389 304.176285 
L 734.328875 304.625313 
L 734.573861 304.747775 
L 734.818846 303.278229 
L 735.063831 302.992484 
L 735.308817 301.604579 
L 735.553802 303.31905 
L 736.043772 296.991836 
L 736.288758 299.196156 
L 736.533743 298.91041 
L 736.778728 299.44108 
L 737.268699 295.114082 
L 737.513684 295.154903 
L 737.75867 293.154687 
L 738.003655 289.848207 
L 738.24864 288.419482 
L 738.493626 289.848207 
L 738.738611 292.379093 
L 738.983596 287.072397 
L 739.228582 287.398963 
L 739.473567 289.113434 
L 739.718552 288.664406 
L 740.208523 292.950583 
L 740.453508 290.868726 
L 740.698494 296.66527 
L 740.943479 294.134384 
L 741.188464 295.56311 
L 742.168405 306.339784 
L 742.413391 304.666134 
L 742.658376 308.707387 
L 743.148347 311.646479 
L 743.393332 310.340216 
L 743.638317 310.54432 
L 743.883303 311.197451 
L 744.863244 308.625745 
L 745.108229 307.564406 
L 745.5982 301.6454 
L 745.843185 303.645616 
L 746.088171 304.666134 
L 746.333156 297.808251 
L 746.578141 298.216458 
L 746.823127 296.66527 
L 747.068112 297.726609 
L 747.313097 297.726609 
L 747.558082 294.297667 
L 748.048053 292.338272 
L 748.293038 292.419914 
L 748.538024 294.338488 
L 749.27298 290.052311 
L 749.517965 284.541512 
L 749.76295 288.33784 
L 750.007936 288.215378 
L 750.252921 281.724881 
L 750.497906 280.418618 
L 750.987877 279.193996 
L 751.232862 280.949287 
L 751.477848 277.846911 
L 751.722833 280.01041 
L 751.967818 280.745184 
L 752.212804 279.398099 
L 752.457789 283.643456 
L 752.702774 282.092268 
L 752.94776 284.949719 
L 753.192745 285.888596 
L 753.927701 292.950583 
L 754.172686 294.338488 
L 754.417671 292.868942 
L 754.907642 299.073693 
L 755.152627 299.645184 
L 755.642598 307.278661 
L 755.887583 304.257927 
L 756.377554 307.360302 
L 756.622539 306.503067 
L 756.867525 306.747991 
L 757.11251 306.339784 
L 757.602481 302.380173 
L 757.847466 302.21689 
L 758.092451 297.849071 
L 758.337437 296.501987 
L 758.582422 297.849071 
L 758.827407 293.930281 
L 759.072393 292.7873 
L 759.562363 291.521857 
L 759.807348 289.97067 
L 760.297319 288.746048 
L 760.542304 288.827689 
L 761.27726 284.868078 
L 761.522246 281.030929 
L 762.747172 279.643024 
L 762.992158 273.519914 
L 763.237143 272.78514 
L 763.482128 276.459006 
L 763.727114 273.479093 
L 763.972099 272.254471 
L 764.217084 275.805875 
L 764.46207 271.64216 
L 764.707055 273.234168 
L 764.95204 271.438056 
L 765.197025 272.336112 
L 765.442011 272.540216 
L 765.686996 273.31581 
L 765.931981 275.928337 
L 766.666937 279.398099 
L 766.911923 280.54108 
L 768.136849 291.399395 
L 768.381835 290.868726 
L 768.62682 296.991836 
L 769.116791 298.502203 
L 769.361776 296.951015 
L 769.606761 296.501987 
L 769.851747 293.766998 
L 770.096732 292.950583 
L 770.341717 293.236328 
L 771.076673 287.113218 
L 771.321658 286.990756 
L 771.811629 281.602419 
L 772.056614 281.64324 
L 772.3016 281.439136 
L 772.546585 280.214514 
L 772.79157 276.744752 
L 773.281541 275.56095 
L 773.526526 275.969158 
L 773.771512 273.683197 
L 774.506468 274.377149 
L 774.751453 272.21365 
L 775.241424 270.784924 
L 775.486409 271.601339 
L 775.731394 269.886868 
L 775.97638 262.988164 
L 776.46635 262.74324 
L 776.711336 263.110626 
L 776.956321 261.926825 
L 777.201306 262.090108 
L 777.446291 260.171533 
L 777.691277 264.41689 
L 777.936262 264.457711 
L 778.181247 264.376069 
L 778.426233 265.396587 
L 778.916203 269.723585 
L 779.161189 270.621641 
L 779.406174 276.785572 
L 779.651159 274.581253 
L 780.14113 277.030497 
L 780.631101 281.153391 
L 781.121071 283.970022 
L 781.366057 287.439784 
L 781.611042 286.909114 
L 781.856027 288.133737 
L 782.101013 286.0927 
L 782.345998 286.949935 
L 782.590983 285.480389 
L 782.835968 285.153823 
L 783.080954 283.725097 
L 783.570924 282.7454 
L 783.81591 282.051447 
L 784.060895 276.173261 
L 784.30588 276.622289 
L 784.795851 274.622073 
L 785.040836 273.968942 
L 785.285822 274.785356 
L 785.530807 271.193132 
L 785.775792 272.376933 
L 786.020778 274.45879 
L 787.000719 264.743456 
L 787.245704 266.62121 
L 787.735675 267.111058 
L 788.225646 261.722721 
L 788.470631 257.76311 
L 788.715616 259.681685 
L 789.205587 253.395292 
L 789.695557 258.089676 
L 789.940543 255.273045 
L 790.185528 257.354903 
L 790.430513 253.681037 
L 790.920484 256.538488 
L 791.165469 256.293564 
L 791.410455 261.763542 
L 791.65544 262.171749 
L 791.900425 261.886004 
L 792.145411 262.579957 
L 793.125352 274.948639 
L 793.370337 275.438488 
L 793.615323 275.152743 
L 793.860308 275.071102 
L 794.105293 278.949071 
L 794.350279 278.908251 
L 794.595264 278.173477 
L 795.085234 279.193996 
L 795.33022 279.193996 
L 796.065176 274.785356 
L 796.310161 274.132225 
L 796.800132 270.090972 
L 797.045117 270.131793 
L 797.535088 266.498747 
L 798.025058 265.478229 
L 798.270044 264.171965 
L 798.515029 263.967862 
L 799.005 257.232441 
L 799.249985 256.701771 
L 799.49497 258.620346 
L 799.739956 259.191836 
L 800.229926 262.049287 
L 800.474912 257.967214 
L 800.719897 258.946911 
L 801.209867 254.619914 
L 801.454853 249.313218 
L 801.699838 257.885572 
L 801.944823 255.926177 
L 802.189809 252.619698 
L 802.434794 253.640216 
L 802.679779 245.639352 
L 802.924765 245.884276 
L 803.16975 247.108898 
L 803.414735 247.313002 
L 804.149691 251.190972 
L 804.394677 248.86419 
L 804.884647 257.028337 
L 805.129633 258.579525 
L 805.374618 257.640648 
L 805.619603 261.967646 
L 805.864589 262.865702 
L 806.109574 266.049719 
L 806.599544 269.070454 
L 806.84453 268.988812 
L 807.089515 268.254039 
L 807.3345 269.805227 
L 807.579486 270.050151 
L 807.824471 271.11149 
L 808.069456 270.866566 
L 808.314442 269.886868 
L 808.559427 269.96851 
L 808.804412 267.233521 
L 809.049398 267.233521 
L 809.539368 264.335248 
L 809.784354 263.763758 
L 810.029339 262.457495 
L 810.274324 261.967646 
L 810.51931 260.947127 
L 810.764295 258.29378 
L 811.00928 257.436544 
L 811.254266 255.273045 
L 811.499251 254.864838 
L 811.744236 253.191188 
L 811.989222 252.333952 
L 812.234207 255.354687 
L 812.479192 251.558359 
L 812.724177 251.721641 
L 812.969163 251.395076 
L 813.214148 247.068078 
L 813.459133 246.65987 
L 813.704119 247.517106 
L 813.949104 244.496371 
L 814.194089 243.598315 
L 814.439075 242.21041 
L 814.68406 246.537408 
L 814.929045 239.638704 
L 815.419016 241.598099 
L 815.908987 238.005875 
L 816.153972 243.761598 
L 816.398957 239.230497 
L 816.643943 241.06743 
L 816.888928 245.639352 
L 817.133913 246.333305 
L 817.378899 248.006955 
L 817.623884 246.496587 
L 818.113855 251.395076 
L 818.35884 252.701339 
L 818.603825 254.701555 
L 818.84881 260.416458 
L 819.093796 257.19162 
L 819.583766 260.293996 
L 819.828752 263.600475 
L 820.073737 263.110626 
L 820.318722 263.478013 
L 820.563708 267.927473 
L 820.808693 264.41689 
L 821.543649 260.743024 
L 822.52359 254.374989 
L 822.768576 253.640216 
L 823.013561 254.048423 
L 823.258546 249.027473 
L 823.748517 247.517106 
L 823.993502 248.496803 
L 824.238488 246.374125 
L 824.483473 246.782333 
L 824.728458 244.9454 
L 824.973443 237.271102 
L 825.218429 241.924665 
L 825.463414 237.597667 
L 825.708399 243.557495 
L 825.953385 236.61797 
L 826.443355 234.658575 
L 826.688341 240.659222 
L 826.933326 236.291404 
L 827.178311 234.454471 
L 827.423297 227.637408 
L 827.668282 227.637408 
L 827.913267 228.739568 
L 828.158253 228.82121 
L 828.403238 228.168078 
L 828.648223 226.453607 
L 828.893209 228.617106 
L 829.138194 228.372181 
L 829.628165 233.882981 
L 829.87315 234.98514 
L 830.118135 236.822073 
L 830.36312 240.128553 
L 830.608106 241.353175 
L 830.853091 240.49594 
L 831.343062 244.822937 
L 831.588047 246.047559 
L 832.323003 253.599395 
L 832.567988 253.84432 
L 832.812974 253.354471 
L 833.302944 254.252527 
L 833.54793 253.31365 
L 833.792915 253.109546 
L 834.0379 249.884708 
L 834.282886 249.96635 
L 834.527871 249.272397 
L 834.772856 248.006955 
L 835.262827 242.577797 
L 835.507812 241.434816 
L 835.997783 242.618618 
L 836.487753 238.86311 
L 836.732739 234.332009 
L 836.977724 236.577149 
L 837.222709 235.801555 
L 837.467695 232.74 
L 837.71268 233.148207 
L 837.957665 234.699395 
L 838.202651 233.433952 
L 838.447636 230.658143 
L 838.692621 234.372829 
L 838.937607 232.984924 
L 839.182592 230.943888 
L 839.427577 224.086004 
L 839.917548 229.800907 
L 840.162533 225.637192 
L 840.407519 227.71905 
L 840.652504 226.208683 
L 840.897489 227.147559 
L 841.142475 225.147343 
L 841.38746 219.922289 
L 842.122416 226.861814 
L 842.367401 224.820778 
L 842.612386 227.065918 
L 842.857372 227.310842 
L 843.102357 226.08622 
L 843.347342 230.045832 
L 843.592328 236.209762 
L 843.837313 233.597235 
L 844.082298 237.76095 
L 844.327284 238.699827 
L 844.817254 243.31257 
L 845.06224 243.965702 
L 845.55221 244.333089 
L 845.797196 245.51689 
L 846.042181 245.312786 
L 846.287166 246.006739 
L 846.777137 244.496371 
L 848.492034 233.84216 
L 848.737019 231.63784 
L 848.982005 232.290972 
L 849.22699 231.556199 
L 849.716961 226.0454 
L 849.961946 228.372181 
L 850.206931 228.413002 
L 850.451917 230.862246 
L 850.696902 226.698531 
L 850.941887 224.535032 
L 851.186873 225.963758 
L 851.431858 223.718618 
L 851.676843 226.943456 
L 851.921829 221.146911 
L 852.166814 219.677365 
L 852.411799 220.697883 
L 852.656785 214.37067 
L 852.90177 214.656415 
L 853.391741 213.350151 
L 853.636726 211.758143 
L 853.881711 210.941728 
L 854.126696 213.880821 
L 854.616667 216.04432 
L 854.861652 216.08514 
L 855.351623 217.268942 
L 855.596608 218.575205 
L 855.841594 220.861166 
L 856.331564 222.943024 
L 856.57655 226.004579 
L 856.821535 226.861814 
L 857.311506 231.311274 
L 857.556491 233.801339 
L 857.801476 232.658359 
L 858.046462 236.61797 
L 858.291447 236.536328 
L 858.781418 236.699611 
L 859.516374 235.474989 
L 859.761359 234.740216 
L 860.006344 233.556415 
L 860.496315 226.739352 
L 860.7413 226.984276 
L 860.986285 225.963758 
L 861.721241 220.942808 
L 861.966227 221.840864 
L 862.211212 220.289676 
L 862.701183 215.309546 
L 862.946168 217.636328 
L 863.191153 214.574773 
L 863.436139 214.289028 
L 863.681124 210.778445 
L 863.926109 212.574557 
L 864.171095 211.513218 
L 864.41608 213.554255 
L 864.661065 211.06419 
L 864.906051 211.227473 
L 865.151036 206.369806 
L 865.396021 207.798531 
L 865.641007 210.329417 
L 865.885992 204.859438 
L 866.130977 202.532657 
L 866.375962 201.308035 
L 866.620948 200.777365 
L 867.110918 198.981253 
L 867.600889 204.287948 
L 867.845874 205.675853 
L 868.09086 206.002419 
L 868.335845 205.390108 
L 868.58083 209.839568 
L 868.825816 210.125313 
L 869.070801 212.778661 
L 869.315786 212.207171 
L 869.560772 213.717538 
L 869.805757 218.044536 
L 870.050742 219.309978 
L 871.030684 227.433305 
L 871.275669 226.290324 
L 871.520654 227.555767 
L 871.765639 226.576069 
L 872.010625 226.331145 
L 872.25561 224.657495 
L 872.745581 222.779741 
L 872.990566 219.269158 
L 873.235551 220.901987 
L 873.480537 217.595508 
L 873.725522 215.962678 
L 874.215493 214.084924 
L 874.460478 210.900907 
L 874.950449 208.451663 
L 875.195434 208.778229 
L 875.440419 207.512786 
L 875.685405 209.023153 
L 875.93039 207.961814 
L 876.175375 208.125097 
L 876.420361 208.900691 
L 876.665346 207.063758 
L 876.910331 208.329201 
L 877.155317 204.41041 
L 877.400302 197.021857 
L 877.645287 201.348855 
L 878.135258 194.36851 
L 878.380243 194.817538 
L 878.870214 193.960302 
L 879.115199 192.69486 
L 879.360184 193.633737 
L 879.60517 190.857927 
L 879.850155 193.919482 
L 880.09514 191.102851 
L 880.340126 193.470454 
L 880.585111 194.450151 
L 880.830096 194.817538 
L 882.055023 208.574125 
L 882.300008 208.574125 
L 883.27995 214.656415 
L 883.524935 214.738056 
L 883.76992 221.106091 
L 884.014905 218.942592 
L 884.259891 218.003715 
L 884.504876 217.922073 
L 884.749861 218.28946 
L 885.239832 216.534168 
L 885.729803 212.492916 
L 885.974788 210.696803 
L 886.219773 211.105011 
L 886.464759 207.553607 
L 886.709744 206.941296 
L 886.954729 204.206307 
L 887.199715 203.512354 
L 887.4447 203.83892 
L 887.689685 200.124233 
L 887.934671 200.369158 
L 888.179656 200.940648 
L 888.669627 199.062894 
L 888.914612 199.797667 
L 889.159597 199.266998 
L 889.404582 198.368942 
L 889.894553 193.225529 
L 890.139538 192.531577 
L 890.384524 196.654471 
L 890.629509 189.633305 
L 890.874494 188.653607 
L 891.11948 184.000043 
L 891.364465 184.36743 
L 891.60945 186.898315 
L 891.854436 183.83676 
L 892.099421 183.79594 
L 892.344406 182.897883 
L 892.589392 184.775637 
L 892.834377 184.93892 
L 893.079362 186.408467 
L 893.324348 189.38838 
L 893.569333 189.755767 
L 893.814318 190.857927 
L 894.059304 191.306955 
L 894.549274 196.327905 
L 894.79426 195.225745 
L 895.039245 205.635032 
L 895.28423 203.716458 
L 895.774201 204.451231 
L 896.019186 205.390108 
L 896.264171 208.002635 
L 896.509157 212.329633 
L 896.754142 210.411058 
L 896.999127 211.023369 
L 897.244113 209.717106 
L 897.489098 206.573909 
L 897.734083 206.165702 
L 897.979069 206.900475 
L 898.224054 205.104363 
L 898.469039 202.410194 
L 898.714025 197.430065 
L 898.95901 198.777149 
L 899.203995 197.103499 
L 899.448981 196.776933 
L 899.693966 190.694644 
L 899.938951 191.02121 
L 900.183937 192.286652 
L 900.428922 191.306955 
L 900.673907 191.388596 
L 901.163878 187.14324 
L 901.408863 189.102635 
L 901.653848 180.162894 
L 901.898834 187.347343 
L 902.143819 181.754903 
L 902.388804 184.244968 
L 902.63379 184.204147 
L 903.12376 180.040432 
L 903.368746 175.346048 
L 903.613731 177.182981 
L 903.858716 165.549071 
L 904.348687 169.059654 
L 904.593672 168.488164 
L 904.838658 169.835248 
L 905.083643 169.671965 
L 905.328628 170.243456 
L 905.573614 168.161598 
L 906.063584 171.917106 
L 906.30857 171.835464 
L 907.043526 180.366998 
L 907.288511 185.632873 
L 907.778481 185.143024 
L 908.023467 187.347343 
L 908.268452 191.878445 
L 909.003408 195.307387 
L 909.248393 195.878877 
L 909.493379 195.389028 
L 909.738364 197.021857 
L 909.983349 197.14432 
L 910.963291 190.776285 
L 911.208276 187.633089 
L 911.453261 187.71473 
L 911.943232 182.367214 
L 912.188217 183.510194 
L 912.433203 183.020346 
L 912.678188 181.59162 
L 912.923173 181.469158 
L 913.413144 176.203283 
L 913.658129 176.366566 
L 913.903114 174.488812 
L 914.1481 174.570454 
L 914.63807 175.917538 
L 914.883056 175.305227 
L 915.128041 167.549287 
L 915.373026 171.672181 
L 915.618012 173.83568 
L 915.862997 173.019266 
L 916.352968 165.140864 
L 916.597953 171.141512 
L 916.842938 163.26311 
L 917.087924 160.119914 
L 917.332909 163.548855 
L 917.82288 160.364838 
L 918.067865 158.936112 
L 918.557836 160.977149 
L 918.802821 161.222073 
L 919.047806 164.446911 
L 919.292791 166.079741 
L 919.537777 168.773909 
L 919.782762 169.141296 
L 920.272733 172.855983 
L 920.517718 173.958143 
L 921.252674 180.816026 
L 921.497659 181.959006 
L 921.742645 183.755119 
L 921.98763 186.653391 
L 922.232615 186.449287 
L 922.477601 188.449503 
L 922.722586 189.347559 
L 923.457542 183.959222 
L 923.702527 183.142808 
L 923.947513 183.020346 
L 924.192498 182.081469 
L 924.682469 174.529633 
L 924.927454 172.529417 
L 925.172439 175.346048 
L 925.417424 173.958143 
L 925.66241 171.631361 
L 925.907395 170.937408 
L 926.15238 167.998315 
L 926.397366 167.508467 
L 926.642351 166.732873 
L 926.887336 167.630929 
L 927.132322 169.467862 
L 927.377307 164.569374 
L 927.622292 165.998099 
L 928.112263 163.630497 
L 928.357248 161.344536 
L 928.602234 164.528553 
L 928.847219 160.4873 
L 929.092204 160.895508 
L 929.33719 162.079309 
L 929.582175 159.221857 
L 929.82716 154.119266 
L 930.317131 160.691404 
L 930.562116 153.057927 
L 930.807102 153.833521 
L 931.052087 152.282333 
L 931.297072 154.976501 
L 931.542057 154.568294 
L 931.787043 157.344104 
L 932.032028 156.323585 
L 932.277013 158.854471 
L 932.521999 162.609978 
L 932.766984 163.426393 
L 933.50194 170.48838 
L 933.746925 170.774125 
L 933.991911 171.631361 
L 934.726867 177.591188 
L 934.971852 177.632009 
L 935.216837 177.223801 
L 935.461823 177.795292 
L 935.706808 177.795292 
L 936.441764 173.917322 
L 936.686749 172.611058 
L 936.931734 169.100475 
L 937.17672 163.344752 
L 937.421705 165.957279 
L 937.66669 165.508251 
L 937.911676 164.079525 
L 938.156661 161.385356 
L 938.401646 160.773045 
L 938.646632 162.650799 
L 938.891617 158.364622 
L 939.136602 160.773045 
L 939.381588 150.241296 
L 939.626573 155.956199 
L 939.871558 155.670454 
L 940.116544 151.01689 
L 940.606514 153.711058 
L 940.8515 151.180173 
L 941.096485 150.4454 
L 941.34147 148.077797 
L 941.586456 156.56851 
L 941.831441 150.567862 
L 942.076426 148.894212 
L 942.566397 143.546695 
L 942.811382 142.199611 
L 943.056367 141.628121 
L 943.301353 139.464622 
L 943.546338 138.933952 
L 944.036309 142.485356 
L 944.281294 141.505659 
L 944.526279 143.995724 
L 944.771265 144.648855 
L 945.01625 145.873477 
L 945.506221 150.282117 
L 945.751206 152.486436 
L 945.996191 158.364622 
L 946.241177 157.589028 
L 946.486162 157.71149 
L 947.466103 164.569374 
L 948.446045 167.875853 
L 948.69103 165.344968 
L 948.936015 164.651015 
L 949.181 164.610194 
L 949.425986 160.242376 
L 949.670971 159.058575 
L 949.915956 159.711706 
L 950.650912 154.486652 
L 950.895898 152.853823 
L 951.385868 148.649287 
L 951.630854 146.649071 
L 951.875839 145.832657 
L 952.36581 145.955119 
L 952.85578 139.954471 
L 953.100766 144.118186 
L 953.345751 142.485356 
L 953.590736 143.587516 
L 953.835722 143.342592 
L 954.325692 140.730065 
L 954.570677 136.933737 
L 954.815663 136.770454 
L 955.060648 133.25987 
L 955.305633 132.68838 
L 955.550619 135.749935 
L 955.795604 130.279957 
L 956.040589 131.463758 
L 956.285575 131.627041 
L 956.53056 129.136976 
L 956.775545 130.279957 
L 957.020531 133.137408 
L 957.265516 133.137408 
L 957.755487 135.382549 
L 958.000472 138.444104 
L 958.245457 139.627905 
L 958.735428 144.852959 
L 958.980413 145.710194 
L 959.225399 148.036976 
L 959.470384 148.486004 
L 959.960355 152.363974 
L 960.20534 153.343672 
L 960.450325 153.7927 
L 960.69531 154.93568 
L 960.940296 155.343888 
L 961.185281 155.507171 
L 961.430266 155.098963 
L 961.675252 154.93568 
L 962.900178 147.506307 
L 963.145164 142.036328 
L 963.390149 147.13892 
L 964.37009 138.199179 
L 964.615076 139.668726 
L 964.860061 139.627905 
L 965.105046 137.382765 
L 965.350032 136.198963 
L 965.595017 131.178013 
L 966.084988 134.239568 
L 966.329973 133.055767 
L 966.574958 128.524665 
L 966.819943 132.68838 
L 967.064929 126.728553 
L 967.309914 133.137408 
L 967.799885 122.564838 
L 968.04487 128.116458 
L 968.534841 119.993132 
L 968.779826 126.075421 
L 969.024811 122.564838 
L 969.269797 126.810194 
L 969.514782 120.646263 
L 969.759767 120.768726 
L 970.494723 127.463326 
L 970.739709 127.953175 
L 970.984694 130.48406 
L 971.229679 131.178013 
L 971.71965 139.219698 
L 971.964635 140.770886 
L 972.209621 140.362678 
L 972.454606 141.342376 
L 972.699591 148.445184 
L 972.944576 148.853391 
L 973.189562 146.526609 
L 973.679532 146.934816 
L 973.924518 146.934816 
L 974.414488 143.179309 
L 974.659474 143.179309 
L 974.904459 144.526393 
L 975.39443 139.91365 
L 975.639415 139.34216 
L 975.8844 136.56635 
L 976.374371 135.260086 
L 976.864342 129.34108 
L 977.109327 130.116674 
L 977.354312 129.259438 
L 977.599298 126.606091 
L 977.844283 125.381469 
L 978.089268 122.319914 
L 978.334253 123.707819 
L 978.579239 123.054687 
L 978.824224 123.503715 
L 979.069209 120.401339 
L 979.314195 125.299827 
L 979.55918 124.442592 
L 979.804165 126.932657 
L 980.294136 118.931793 
L 980.539121 121.095292 
L 980.784107 116.237624 
L 981.274077 119.34 
L 981.519063 120.033952 
L 981.764048 113.012786 
L 982.009033 116.319266 
L 982.254019 113.094428 
L 982.499004 113.747559 
L 982.743989 114.89054 
L 983.23396 117.911274 
L 983.478945 119.013434 
L 983.723931 122.973045 
L 984.458886 128.198099 
L 984.703872 129.096156 
L 985.193842 133.913002 
L 985.438828 134.443672 
L 985.683813 135.954039 
L 985.928798 135.505011 
L 986.173784 135.913218 
L 986.418769 139.709546 
L 986.663754 138.484924 
L 986.90874 139.587084 
L 987.643696 134.606955 
L 987.888681 133.668078 
L 988.623637 127.830713 
L 989.358593 125.054903 
L 989.603578 121.462678 
L 990.093549 122.279093 
L 990.338534 121.340216 
L 990.583519 121.911706 
L 990.828505 119.952311 
L 991.07349 119.87067 
L 991.318475 115.9927 
L 991.563461 117.788812 
L 992.053431 113.992484 
L 992.298417 117.788812 
L 992.543402 118.727689 
L 992.788387 115.013002 
L 993.033373 113.135248 
L 993.523343 106.236544 
L 993.768329 106.359006 
L 994.013314 102.440216 
L 994.258299 103.21581 
L 994.503285 103.134168 
L 994.74827 107.257063 
L 994.993255 100.44 
L 995.238241 100.603283 
L 995.483226 102.195292 
L 995.973196 109.543024 
L 996.218182 107.1346 
L 996.218182 107.1346 
" clip-path="url(#p97105bfff0)" style="fill: none; stroke: #000000; stroke-width: 1.5; stroke-linecap: square"/>
   </g>
   <g id="patch_3">
    <path d="M 144 576.72 
L 144 77.76 
" style="fill: none; stroke: #000000; stroke-width: 0.8; stroke-linejoin: miter; stroke-linecap: square"/>
   </g>
   <g id="patch_4">
    <path d="M 1036.8 576.72 
L 1036.8 77.76 
" style="fill: none; stroke: #000000; stroke-width: 0.8; stroke-linejoin: miter; stroke-linecap: square"/>
   </g>
   <g id="patch_5">
    <path d="M 144 576.72 
L 1036.8 576.72 
" style="fill: none; stroke: #000000; stroke-width: 0.8; stroke-linejoin: miter; stroke-linecap: square"/>
   </g>
   <g id="patch_6">
    <path d="M 144 77.76 
L 1036.8 77.76 
" style="fill: none; stroke: #000000; stroke-width: 0.8; stroke-linejoin: miter; stroke-linecap: square"/>
   </g>
   <g id="text_13">
    <g id="patch_7">
     <path d="M 746.062 569.1408 
L 1030.272 569.1408 
L 1030.272 556.5983 
L 746.062 556.5983 
z
" style="fill: #ffffff"/>
    </g>
    <!-- Data: Scripps CO2 Program   github:lwieske/climate-and-digitalization -->
    <g transform="translate(748.462 565.07705) scale(0.08 -0.08)">
     <defs>
      <path id="DejaVuSans-44" d="M 1259 4147 
L 1259 519 
L 2022 519 
Q 2988 519 3436 956 
Q 3884 1394 3884 2338 
Q 3884 3275 3436 3711 
Q 2988 4147 2022 4147 
L 1259 4147 
z
M 628 4666 
L 1925 4666 
Q 3281 4666 3915 4102 
Q 4550 3538 4550 2338 
Q 4550 1131 3912 565 
Q 3275 0 1925 0 
L 628 0 
L 628 4666 
z
" transform="scale(0.015625)"/>
      <path id="DejaVuSans-74" d="M 1172 4494 
L 1172 3500 
L 2356 3500 
L 2356 3053 
L 1172 3053 
L 1172 1153 
Q 1172 725 1289 603 
Q 1406 481 1766 481 
L 2356 481 
L 2356 0 
L 1766 0 
Q 1100 0 847 248 
Q 594 497 594 1153 
L 594 3053 
L 172 3053 
L 172 3500 
L 594 3500 
L 594 4494 
L 1172 4494 
z
" transform="scale(0.015625)"/>
      <path id="DejaVuSans-3a" d="M 750 794 
L 1409 794 
L 1409 0 
L 750 0 
L 750 794 
z
M 750 3309 
L 1409 3309 
L 1409 2516 
L 750 2516 
L 750 3309 
z
" transform="scale(0.015625)"/>
      <path id="DejaVuSans-53" d="M 3425 4513 
L 3425 3897 
Q 3066 4069 2747 4153 
Q 2428 4238 2131 4238 
Q 1616 4238 1336 4038 
Q 1056 3838 1056 3469 
Q 1056 3159 1242 3001 
Q 1428 2844 1947 2747 
L 2328 2669 
Q 3034 2534 3370 2195 
Q 3706 1856 3706 1288 
Q 3706 609 3251 259 
Q 2797 -91 1919 -91 
Q 1588 -91 1214 -16 
Q 841 59 441 206 
L 441 856 
Q 825 641 1194 531 
Q 1563 422 1919 422 
Q 2459 422 2753 634 
Q 3047 847 3047 1241 
Q 3047 1584 2836 1778 
Q 2625 1972 2144 2069 
L 1759 2144 
Q 1053 2284 737 2584 
Q 422 2884 422 3419 
Q 422 4038 858 4394 
Q 1294 4750 2059 4750 
Q 2388 4750 2728 4690 
Q 3069 4631 3425 4513 
z
" transform="scale(0.015625)"/>
      <path id="DejaVuSans-63" d="M 3122 3366 
L 3122 2828 
Q 2878 2963 2633 3030 
Q 2388 3097 2138 3097 
Q 1578 3097 1268 2742 
Q 959 2388 959 1747 
Q 959 1106 1268 751 
Q 1578 397 2138 397 
Q 2388 397 2633 464 
Q 2878 531 3122 666 
L 3122 134 
Q 2881 22 2623 -34 
Q 2366 -91 2075 -91 
Q 1284 -91 818 406 
Q 353 903 353 1747 
Q 353 2603 823 3093 
Q 1294 3584 2113 3584 
Q 2378 3584 2631 3529 
Q 2884 3475 3122 3366 
z
" transform="scale(0.015625)"/>
      <path id="DejaVuSans-69" d="M 603 3500 
L 1178 3500 
L 1178 0 
L 603 0 
L 603 3500 
z
M 603 4863 
L 1178 4863 
L 1178 4134 
L 603 4134 
L 603 4863 
z
" transform="scale(0.015625)"/>
      <path id="DejaVuSans-73" d="M 2834 3397 
L 2834 2853 
Q 2591 2978 2328 3040 
Q 2066 3103 1784 3103 
Q 1356 3103 1142 2972 
Q 928 2841 928 2578 
Q 928 2378 1081 2264 
Q 1234 2150 1697 2047 
L 1894 2003 
Q 2506 1872 2764 1633 
Q 3022 1394 3022 966 
Q 3022 478 2636 193 
Q 2250 -91 1575 -91 
Q 1294 -91 989 -36 
Q 684 19 347 128 
L 347 722 
Q 666 556 975 473 
Q 1284 391 1588 391 
Q 1994 391 2212 530 
Q 2431 669 2431 922 
Q 2431 1156 2273 1281 
Q 2116 1406 1581 1522 
L 1381 1569 
Q 847 1681 609 1914 
Q 372 2147 372 2553 
Q 372 3047 722 3315 
Q 1072 3584 1716 3584 
Q 2034 3584 2315 3537 
Q 2597 3491 2834 3397 
z
" transform="scale(0.015625)"/>
      <path id="DejaVuSans-50" d="M 1259 4147 
L 1259 2394 
L 2053 2394 
Q 2494 2394 2734 2622 
Q 2975 2850 2975 3272 
Q 2975 3691 2734 3919 
Q 2494 4147 2053 4147 
L 1259 4147 
z
M 628 4666 
L 2053 4666 
Q 2838 4666 3239 4311 
Q 3641 3956 3641 3272 
Q 3641 2581 3239 2228 
Q 2838 1875 2053 1875 
L 1259 1875 
L 1259 0 
L 628 0 
L 628 4666 
z
" transform="scale(0.015625)"/>
      <path id="DejaVuSans-6f" d="M 1959 3097 
Q 1497 3097 1228 2736 
Q 959 2375 959 1747 
Q 959 1119 1226 758 
Q 1494 397 1959 397 
Q 2419 397 2687 759 
Q 2956 1122 2956 1747 
Q 2956 2369 2687 2733 
Q 2419 3097 1959 3097 
z
M 1959 3584 
Q 2709 3584 3137 3096 
Q 3566 2609 3566 1747 
Q 3566 888 3137 398 
Q 2709 -91 1959 -91 
Q 1206 -91 779 398 
Q 353 888 353 1747 
Q 353 2609 779 3096 
Q 1206 3584 1959 3584 
z
" transform="scale(0.015625)"/>
      <path id="DejaVuSans-67" d="M 2906 1791 
Q 2906 2416 2648 2759 
Q 2391 3103 1925 3103 
Q 1463 3103 1205 2759 
Q 947 2416 947 1791 
Q 947 1169 1205 825 
Q 1463 481 1925 481 
Q 2391 481 2648 825 
Q 2906 1169 2906 1791 
z
M 3481 434 
Q 3481 -459 3084 -895 
Q 2688 -1331 1869 -1331 
Q 1566 -1331 1297 -1286 
Q 1028 -1241 775 -1147 
L 775 -588 
Q 1028 -725 1275 -790 
Q 1522 -856 1778 -856 
Q 2344 -856 2625 -561 
Q 2906 -266 2906 331 
L 2906 616 
Q 2728 306 2450 153 
Q 2172 0 1784 0 
Q 1141 0 747 490 
Q 353 981 353 1791 
Q 353 2603 747 3093 
Q 1141 3584 1784 3584 
Q 2172 3584 2450 3431 
Q 2728 3278 2906 2969 
L 2906 3500 
L 3481 3500 
L 3481 434 
z
" transform="scale(0.015625)"/>
      <path id="DejaVuSans-68" d="M 3513 2113 
L 3513 0 
L 2938 0 
L 2938 2094 
Q 2938 2591 2744 2837 
Q 2550 3084 2163 3084 
Q 1697 3084 1428 2787 
Q 1159 2491 1159 1978 
L 1159 0 
L 581 0 
L 581 4863 
L 1159 4863 
L 1159 2956 
Q 1366 3272 1645 3428 
Q 1925 3584 2291 3584 
Q 2894 3584 3203 3211 
Q 3513 2838 3513 2113 
z
" transform="scale(0.015625)"/>
      <path id="DejaVuSans-75" d="M 544 1381 
L 544 3500 
L 1119 3500 
L 1119 1403 
Q 1119 906 1312 657 
Q 1506 409 1894 409 
Q 2359 409 2629 706 
Q 2900 1003 2900 1516 
L 2900 3500 
L 3475 3500 
L 3475 0 
L 2900 0 
L 2900 538 
Q 2691 219 2414 64 
Q 2138 -91 1772 -91 
Q 1169 -91 856 284 
Q 544 659 544 1381 
z
M 1991 3584 
L 1991 3584 
z
" transform="scale(0.015625)"/>
      <path id="DejaVuSans-62" d="M 3116 1747 
Q 3116 2381 2855 2742 
Q 2594 3103 2138 3103 
Q 1681 3103 1420 2742 
Q 1159 2381 1159 1747 
Q 1159 1113 1420 752 
Q 1681 391 2138 391 
Q 2594 391 2855 752 
Q 3116 1113 3116 1747 
z
M 1159 2969 
Q 1341 3281 1617 3432 
Q 1894 3584 2278 3584 
Q 2916 3584 3314 3078 
Q 3713 2572 3713 1747 
Q 3713 922 3314 415 
Q 2916 -91 2278 -91 
Q 1894 -91 1617 61 
Q 1341 213 1159 525 
L 1159 0 
L 581 0 
L 581 4863 
L 1159 4863 
L 1159 2969 
z
" transform="scale(0.015625)"/>
      <path id="DejaVuSans-6c" d="M 603 4863 
L 1178 4863 
L 1178 0 
L 603 0 
L 603 4863 
z
" transform="scale(0.015625)"/>
      <path id="DejaVuSans-77" d="M 269 3500 
L 844 3500 
L 1563 769 
L 2278 3500 
L 2956 3500 
L 3675 769 
L 4391 3500 
L 4966 3500 
L 4050 0 
L 3372 0 
L 2619 2869 
L 1863 0 
L 1184 0 
L 269 3500 
z
" transform="scale(0.015625)"/>
      <path id="DejaVuSans-6b" d="M 581 4863 
L 1159 4863 
L 1159 1991 
L 2875 3500 
L 3609 3500 
L 1753 1863 
L 3688 0 
L 2938 0 
L 1159 1709 
L 1159 0 
L 581 0 
L 581 4863 
z
" transform="scale(0.015625)"/>
      <path id="DejaVuSans-2f" d="M 1625 4666 
L 2156 4666 
L 531 -594 
L 0 -594 
L 1625 4666 
z
" transform="scale(0.015625)"/>
      <path id="DejaVuSans-2d" d="M 313 2009 
L 1997 2009 
L 1997 1497 
L 313 1497 
L 313 2009 
z
" transform="scale(0.015625)"/>
      <path id="DejaVuSans-6e" d="M 3513 2113 
L 3513 0 
L 2938 0 
L 2938 2094 
Q 2938 2591 2744 2837 
Q 2550 3084 2163 3084 
Q 1697 3084 1428 2787 
Q 1159 2491 1159 1978 
L 1159 0 
L 581 0 
L 581 3500 
L 1159 3500 
L 1159 2956 
Q 1366 3272 1645 3428 
Q 1925 3584 2291 3584 
Q 2894 3584 3203 3211 
Q 3513 2838 3513 2113 
z
" transform="scale(0.015625)"/>
      <path id="DejaVuSans-64" d="M 2906 2969 
L 2906 4863 
L 3481 4863 
L 3481 0 
L 2906 0 
L 2906 525 
Q 2725 213 2448 61 
Q 2172 -91 1784 -91 
Q 1150 -91 751 415 
Q 353 922 353 1747 
Q 353 2572 751 3078 
Q 1150 3584 1784 3584 
Q 2172 3584 2448 3432 
Q 2725 3281 2906 2969 
z
M 947 1747 
Q 947 1113 1208 752 
Q 1469 391 1925 391 
Q 2381 391 2643 752 
Q 2906 1113 2906 1747 
Q 2906 2381 2643 2742 
Q 2381 3103 1925 3103 
Q 1469 3103 1208 2742 
Q 947 2381 947 1747 
z
" transform="scale(0.015625)"/>
      <path id="DejaVuSans-7a" d="M 353 3500 
L 3084 3500 
L 3084 2975 
L 922 459 
L 3084 459 
L 3084 0 
L 275 0 
L 275 525 
L 2438 3041 
L 353 3041 
L 353 3500 
z
" transform="scale(0.015625)"/>
     </defs>
     <use xlink:href="#DejaVuSans-44"/>
     <use xlink:href="#DejaVuSans-61" x="77.001953"/>
     <use xlink:href="#DejaVuSans-74" x="138.28125"/>
     <use xlink:href="#DejaVuSans-61" x="177.490234"/>
     <use xlink:href="#DejaVuSans-3a" x="238.769531"/>
     <use xlink:href="#DejaVuSans-20" x="272.460938"/>
     <use xlink:href="#DejaVuSans-53" x="304.248047"/>
     <use xlink:href="#DejaVuSans-63" x="367.724609"/>
     <use xlink:href="#DejaVuSans-72" x="422.705078"/>
     <use xlink:href="#DejaVuSans-69" x="463.818359"/>
     <use xlink:href="#DejaVuSans-70" x="491.601562"/>
     <use xlink:href="#DejaVuSans-70" x="555.078125"/>
     <use xlink:href="#DejaVuSans-73" x="618.554688"/>
     <use xlink:href="#DejaVuSans-20" x="670.654297"/>
     <use xlink:href="#DejaVuSans-43" x="702.441406"/>
     <use xlink:href="#DejaVuSans-4f" x="772.265625"/>
     <use xlink:href="#DejaVuSans-32" x="850.976562"/>
     <use xlink:href="#DejaVuSans-20" x="914.599609"/>
     <use xlink:href="#DejaVuSans-50" x="946.386719"/>
     <use xlink:href="#DejaVuSans-72" x="1004.939453"/>
     <use xlink:href="#DejaVuSans-6f" x="1043.802734"/>
     <use xlink:href="#DejaVuSans-67" x="1104.984375"/>
     <use xlink:href="#DejaVuSans-72" x="1168.460938"/>
     <use xlink:href="#DejaVuSans-61" x="1209.574219"/>
     <use xlink:href="#DejaVuSans-6d" x="1270.853516"/>
     <use xlink:href="#DejaVuSans-20" x="1368.265625"/>
     <use xlink:href="#DejaVuSans-20" x="1400.052734"/>
     <use xlink:href="#DejaVuSans-20" x="1431.839844"/>
     <use xlink:href="#DejaVuSans-67" x="1463.626953"/>
     <use xlink:href="#DejaVuSans-69" x="1527.103516"/>
     <use xlink:href="#DejaVuSans-74" x="1554.886719"/>
     <use xlink:href="#DejaVuSans-68" x="1594.095703"/>
     <use xlink:href="#DejaVuSans-75" x="1657.474609"/>
     <use xlink:href="#DejaVuSans-62" x="1720.853516"/>
     <use xlink:href="#DejaVuSans-3a" x="1784.330078"/>
     <use xlink:href="#DejaVuSans-6c" x="1818.021484"/>
     <use xlink:href="#DejaVuSans-77" x="1845.804688"/>
     <use xlink:href="#DejaVuSans-69" x="1927.591797"/>
     <use xlink:href="#DejaVuSans-65" x="1955.375"/>
     <use xlink:href="#DejaVuSans-73" x="2016.898438"/>
     <use xlink:href="#DejaVuSans-6b" x="2068.998047"/>
     <use xlink:href="#DejaVuSans-65" x="2123.283203"/>
     <use xlink:href="#DejaVuSans-2f" x="2184.806641"/>
     <use xlink:href="#DejaVuSans-63" x="2218.498047"/>
     <use xlink:href="#DejaVuSans-6c" x="2273.478516"/>
     <use xlink:href="#DejaVuSans-69" x="2301.261719"/>
     <use xlink:href="#DejaVuSans-6d" x="2329.044922"/>
     <use xlink:href="#DejaVuSans-61" x="2426.457031"/>
     <use xlink:href="#DejaVuSans-74" x="2487.736328"/>
     <use xlink:href="#DejaVuSans-65" x="2526.945312"/>
     <use xlink:href="#DejaVuSans-2d" x="2588.46875"/>
     <use xlink:href="#DejaVuSans-61" x="2624.552734"/>
     <use xlink:href="#DejaVuSans-6e" x="2685.832031"/>
     <use xlink:href="#DejaVuSans-64" x="2749.210938"/>
     <use xlink:href="#DejaVuSans-2d" x="2812.6875"/>
     <use xlink:href="#DejaVuSans-64" x="2848.771484"/>
     <use xlink:href="#DejaVuSans-69" x="2912.248047"/>
     <use xlink:href="#DejaVuSans-67" x="2940.03125"/>
     <use xlink:href="#DejaVuSans-69" x="3003.507812"/>
     <use xlink:href="#DejaVuSans-74" x="3031.291016"/>
     <use xlink:href="#DejaVuSans-61" x="3070.5"/>
     <use xlink:href="#DejaVuSans-6c" x="3131.779297"/>
     <use xlink:href="#DejaVuSans-69" x="3159.5625"/>
     <use xlink:href="#DejaVuSans-7a" x="3187.345703"/>
     <use xlink:href="#DejaVuSans-61" x="3239.835938"/>
     <use xlink:href="#DejaVuSans-74" x="3301.115234"/>
     <use xlink:href="#DejaVuSans-69" x="3340.324219"/>
     <use xlink:href="#DejaVuSans-6f" x="3368.107422"/>
     <use xlink:href="#DejaVuSans-6e" x="3429.289062"/>
    </g>
   </g>
   <g id="text_14">
    <!-- Mauna Loa Observatory (Hawaii) In-Situ CO2 (ppm) -->
    <g transform="translate(281.840625 71.76) scale(0.24 -0.24)">
     <defs>
      <path id="DejaVuSans-4d" d="M 628 4666 
L 1569 4666 
L 2759 1491 
L 3956 4666 
L 4897 4666 
L 4897 0 
L 4281 0 
L 4281 4097 
L 3078 897 
L 2444 897 
L 1241 4097 
L 1241 0 
L 628 0 
L 628 4666 
z
" transform="scale(0.015625)"/>
      <path id="DejaVuSans-4c" d="M 628 4666 
L 1259 4666 
L 1259 531 
L 3531 531 
L 3531 0 
L 628 0 
L 628 4666 
z
" transform="scale(0.015625)"/>
      <path id="DejaVuSans-76" d="M 191 3500 
L 800 3500 
L 1894 563 
L 2988 3500 
L 3597 3500 
L 2284 0 
L 1503 0 
L 191 3500 
z
" transform="scale(0.015625)"/>
      <path id="DejaVuSans-79" d="M 2059 -325 
Q 1816 -950 1584 -1140 
Q 1353 -1331 966 -1331 
L 506 -1331 
L 506 -850 
L 844 -850 
Q 1081 -850 1212 -737 
Q 1344 -625 1503 -206 
L 1606 56 
L 191 3500 
L 800 3500 
L 1894 763 
L 2988 3500 
L 3597 3500 
L 2059 -325 
z
" transform="scale(0.015625)"/>
      <path id="DejaVuSans-48" d="M 628 4666 
L 1259 4666 
L 1259 2753 
L 3553 2753 
L 3553 4666 
L 4184 4666 
L 4184 0 
L 3553 0 
L 3553 2222 
L 1259 2222 
L 1259 0 
L 628 0 
L 628 4666 
z
" transform="scale(0.015625)"/>
      <path id="DejaVuSans-49" d="M 628 4666 
L 1259 4666 
L 1259 0 
L 628 0 
L 628 4666 
z
" transform="scale(0.015625)"/>
     </defs>
     <use xlink:href="#DejaVuSans-4d"/>
     <use xlink:href="#DejaVuSans-61" x="86.279297"/>
     <use xlink:href="#DejaVuSans-75" x="147.558594"/>
     <use xlink:href="#DejaVuSans-6e" x="210.9375"/>
     <use xlink:href="#DejaVuSans-61" x="274.316406"/>
     <use xlink:href="#DejaVuSans-20" x="335.595703"/>
     <use xlink:href="#DejaVuSans-4c" x="367.382812"/>
     <use xlink:href="#DejaVuSans-6f" x="421.345703"/>
     <use xlink:href="#DejaVuSans-61" x="482.527344"/>
     <use xlink:href="#DejaVuSans-20" x="543.806641"/>
     <use xlink:href="#DejaVuSans-4f" x="575.59375"/>
     <use xlink:href="#DejaVuSans-62" x="654.304688"/>
     <use xlink:href="#DejaVuSans-73" x="717.78125"/>
     <use xlink:href="#DejaVuSans-65" x="769.880859"/>
     <use xlink:href="#DejaVuSans-72" x="831.404297"/>
     <use xlink:href="#DejaVuSans-76" x="872.517578"/>
     <use xlink:href="#DejaVuSans-61" x="931.697266"/>
     <use xlink:href="#DejaVuSans-74" x="992.976562"/>
     <use xlink:href="#DejaVuSans-6f" x="1032.185547"/>
     <use xlink:href="#DejaVuSans-72" x="1093.367188"/>
     <use xlink:href="#DejaVuSans-79" x="1134.480469"/>
     <use xlink:href="#DejaVuSans-20" x="1193.660156"/>
     <use xlink:href="#DejaVuSans-28" x="1225.447266"/>
     <use xlink:href="#DejaVuSans-48" x="1264.460938"/>
     <use xlink:href="#DejaVuSans-61" x="1339.65625"/>
     <use xlink:href="#DejaVuSans-77" x="1400.935547"/>
     <use xlink:href="#DejaVuSans-61" x="1482.722656"/>
     <use xlink:href="#DejaVuSans-69" x="1544.001953"/>
     <use xlink:href="#DejaVuSans-69" x="1571.785156"/>
     <use xlink:href="#DejaVuSans-29" x="1599.568359"/>
     <use xlink:href="#DejaVuSans-20" x="1638.582031"/>
     <use xlink:href="#DejaVuSans-49" x="1670.369141"/>
     <use xlink:href="#DejaVuSans-6e" x="1699.861328"/>
     <use xlink:href="#DejaVuSans-2d" x="1763.240234"/>
     <use xlink:href="#DejaVuSans-53" x="1799.324219"/>
     <use xlink:href="#DejaVuSans-69" x="1862.800781"/>
     <use xlink:href="#DejaVuSans-74" x="1890.583984"/>
     <use xlink:href="#DejaVuSans-75" x="1929.792969"/>
     <use xlink:href="#DejaVuSans-20" x="1993.171875"/>
     <use xlink:href="#DejaVuSans-43" x="2024.958984"/>
     <use xlink:href="#DejaVuSans-4f" x="2094.783203"/>
     <use xlink:href="#DejaVuSans-32" x="2173.494141"/>
     <use xlink:href="#DejaVuSans-20" x="2237.117188"/>
     <use xlink:href="#DejaVuSans-28" x="2268.904297"/>
     <use xlink:href="#DejaVuSans-70" x="2307.917969"/>
     <use xlink:href="#DejaVuSans-70" x="2371.394531"/>
     <use xlink:href="#DejaVuSans-6d" x="2434.871094"/>
     <use xlink:href="#DejaVuSans-29" x="2532.283203"/>
    </g>
   </g>
  </g>
 </g>
 <defs>
  <clipPath id="p97105bfff0">
   <rect x="144" y="77.76" width="892.8" height="498.96"/>
  </clipPath>
 </defs>
</svg>
